<?xml version="1.0" encoding="utf-8"?>
<!-- Generator: Adobe Illustrator 17.0.0, SVG Export Plug-In . SVG Version: 6.00 Build 0)  -->
<!DOCTYPE svg PUBLIC "-//W3C//DTD SVG 1.1//EN" "http://www.w3.org/Graphics/SVG/1.1/DTD/svg11.dtd">
<svg version="1.1" id="Layer_1" xmlns="http://www.w3.org/2000/svg" xmlns:xlink="http://www.w3.org/1999/xlink" x="0px" y="0px"
	 width="108.615px" height="204.959px" viewBox="0 0 108.615 204.959" enable-background="new 0 0 108.615 204.959"
	 xml:space="preserve">
<g>
	<polygon fill="#23346C" points="19.769,185.73 19.769,176.243 16.662,182.415 14.513,182.415 11.382,176.243 11.382,185.73 
		8.205,185.73 8.205,169.458 11.337,169.458 15.588,178.256 19.816,169.458 22.946,169.458 22.946,185.73 	"/>
	<rect x="26.195" y="169.458" fill="#23346C" width="3.177" height="16.273"/>
	<path fill="#23346C" d="M41.211,185.73l-3.178-6.492h-2.284v6.492h-3.177v-16.273h6.376c3.314,0,5.279,2.262,5.279,4.981
		c0,2.285-1.393,3.702-2.97,4.275l3.633,7.017H41.211z M38.742,172.29h-2.993v4.298h2.993c1.395,0,2.308-0.892,2.308-2.15
		C41.05,173.183,40.137,172.29,38.742,172.29"/>
	<path fill="#23346C" d="M57.327,185.73l-0.961-2.881h-5.781l-0.984,2.881h-3.313l5.92-16.273h2.491l5.942,16.273H57.327z
		 M53.533,174.256l-2.058,5.92h4.044L53.533,174.256z"/>
	<path fill="#23346C" d="M76.591,185.73l-3.175-6.492H71.13v6.492h-3.177v-16.273h6.375c3.314,0,5.281,2.262,5.281,4.981
		c0,2.285-1.395,3.702-2.972,4.275l3.634,7.017H76.591z M74.124,172.29H71.13v4.298h2.994c1.393,0,2.307-0.892,2.307-2.15
		C76.432,173.183,75.517,172.29,74.124,172.29"/>
	<rect x="82.485" y="169.458" fill="#23346C" width="3.178" height="16.273"/>
	<path fill="#23346C" d="M98.787,184.083c-1.143,1.143-2.537,1.783-4.388,1.783c-1.852,0-3.268-0.64-4.412-1.783
		c-1.645-1.644-1.6-3.677-1.6-6.491c0-2.809-0.045-4.843,1.6-6.491c1.144-1.142,2.56-1.782,4.412-1.782
		c1.85,0,3.245,0.64,4.388,1.782c1.645,1.648,1.622,3.681,1.622,6.491C100.41,180.405,100.432,182.439,98.787,184.083
		 M96.433,173.022c-0.458-0.525-1.167-0.867-2.034-0.867c-0.869,0-1.6,0.341-2.058,0.867c-0.617,0.686-0.776,1.44-0.776,4.57
		c0,3.131,0.16,3.886,0.776,4.573c0.458,0.524,1.189,0.867,2.058,0.867c0.867,0,1.575-0.343,2.034-0.867
		c0.617-0.687,0.8-1.442,0.8-4.573C97.234,174.462,97.05,173.707,96.433,173.022"/>
	<path fill="#23346C" d="M29.971,160.67c-1.009,0-1.933-0.375-2.623-1.066c-0.967-0.967-0.967-1.975-0.967-4.154
		c0-2.177,0-3.187,0.967-4.153c0.69-0.69,1.614-1.069,2.623-1.069c1.849,0,3.217,1.129,3.562,3.06h-1.124
		c-0.274-1.255-1.154-2.077-2.438-2.077c-0.677,0-1.327,0.261-1.772,0.721c-0.649,0.663-0.722,1.37-0.722,3.518
		c0,2.148,0.073,2.859,0.722,3.518c0.445,0.461,1.095,0.723,1.772,0.723c1.284,0,2.194-0.824,2.466-2.079h1.096
		C33.202,159.544,31.805,160.67,29.971,160.67"/>
	<path fill="#23346C" d="M41.745,159.604c-0.692,0.692-1.601,1.066-2.624,1.066c-1.025,0-1.933-0.374-2.625-1.066
		c-0.967-0.969-0.967-1.976-0.967-4.154c0-2.177,0-3.186,0.967-4.153c0.693-0.69,1.6-1.065,2.625-1.065
		c1.023,0,1.932,0.375,2.624,1.065c0.967,0.967,0.967,1.976,0.967,4.153C42.712,157.628,42.712,158.635,41.745,159.604
		 M40.895,151.947c-0.447-0.461-1.096-0.737-1.774-0.737c-0.679,0-1.327,0.275-1.774,0.737c-0.648,0.665-0.721,1.354-0.721,3.503
		c0,2.148,0.073,2.842,0.721,3.505c0.447,0.461,1.095,0.735,1.774,0.735c0.677,0,1.327-0.274,1.774-0.735
		c0.649-0.664,0.721-1.357,0.721-3.505C41.616,153.301,41.544,152.611,40.895,151.947"/>
	<polygon fill="#23346C" points="45.104,160.584 45.104,150.317 46.201,150.317 46.201,159.604 51.45,159.604 51.45,160.584 	"/>
	<path fill="#23346C" d="M53.405,160.584v-10.267h6.373v0.98h-5.279v3.62h4.499v0.98h-4.499v3.706h5.279v0.98H53.405z
		 M56.678,149.321h-0.952l1.268-2.206h1.241L56.678,149.321z"/>
	<path fill="#23346C" d="M67.675,159.488c-0.724,0.78-1.689,1.184-2.741,1.184c-1.009,0-1.932-0.375-2.625-1.068
		c-0.967-0.967-0.967-1.976-0.967-4.153c0-2.18,0-3.187,0.967-4.153c0.693-0.691,1.601-1.068,2.625-1.068
		c1.961,0,3.288,1.27,3.592,3.071h-1.097c-0.289-1.298-1.21-2.091-2.495-2.091c-0.677,0-1.328,0.275-1.774,0.737
		c-0.648,0.664-0.72,1.354-0.72,3.504c0,2.148,0.072,2.855,0.72,3.517c0.447,0.461,1.098,0.723,1.774,0.723
		c0.75,0,1.471-0.304,1.947-0.881c0.417-0.504,0.575-1.068,0.575-1.86v-0.778h-2.522v-0.966h3.619v1.629
		C68.552,158.016,68.308,158.81,67.675,159.488"/>
	<rect x="70.906" y="150.317" fill="#23346C" width="1.097" height="10.267"/>
	<path fill="#23346C" d="M80.598,159.604c-0.692,0.692-1.6,1.066-2.625,1.066c-1.023,0-1.931-0.374-2.624-1.066
		c-0.967-0.969-0.967-1.976-0.967-4.154c0-2.177,0-3.186,0.967-4.153c0.693-0.69,1.6-1.065,2.624-1.065
		c1.025,0,1.934,0.375,2.625,1.065c0.967,0.967,0.967,1.976,0.967,4.153C81.564,157.628,81.564,158.635,80.598,159.604
		 M79.748,151.947c-0.447-0.461-1.095-0.737-1.775-0.737c-0.677,0-1.325,0.275-1.772,0.737c-0.649,0.665-0.722,1.354-0.722,3.503
		c0,2.148,0.073,2.842,0.722,3.505c0.447,0.461,1.094,0.735,1.772,0.735c0.68,0,1.328-0.274,1.775-0.735
		c0.649-0.664,0.721-1.357,0.721-3.505C80.469,153.301,80.396,152.611,79.748,151.947"/>
	<polygon fill="#23346C" points="24.002,195.587 24.002,199.365 28.501,199.365 28.501,200.346 24.002,200.346 24.002,204.873 
		22.907,204.873 22.907,194.605 29.28,194.605 29.28,195.587 	"/>
	<path fill="#23346C" d="M36.919,203.893c-0.693,0.692-1.6,1.066-2.624,1.066c-1.025,0-1.933-0.374-2.623-1.066
		c-0.969-0.966-0.969-1.976-0.969-4.155c0-2.176,0-3.185,0.969-4.152c0.69-0.692,1.599-1.068,2.623-1.068
		c1.024,0,1.931,0.375,2.624,1.068c0.966,0.967,0.966,1.976,0.966,4.152C37.885,201.917,37.885,202.927,36.919,203.893
		 M36.068,196.234c-0.447-0.46-1.094-0.733-1.772-0.733c-0.678,0-1.328,0.272-1.775,0.733c-0.649,0.666-0.721,1.357-0.721,3.504
		c0,2.15,0.072,2.842,0.721,3.507c0.447,0.461,1.097,0.734,1.775,0.734c0.678,0,1.326-0.272,1.772-0.734
		c0.65-0.665,0.723-1.357,0.723-3.507C36.79,197.592,36.717,196.901,36.068,196.234"/>
	<polygon fill="#23346C" points="47.978,204.875 47.978,197.073 45.167,203.258 44.23,203.258 41.375,197.073 41.375,204.875 
		40.278,204.875 40.278,194.605 41.375,194.605 44.719,201.888 47.978,194.605 49.075,194.605 49.075,204.875 	"/>
	<polygon fill="#23346C" points="51.771,204.875 51.771,194.605 58.144,194.605 58.144,195.587 52.867,195.587 52.867,199.205 
		57.365,199.205 57.365,200.187 52.867,200.187 52.867,203.892 58.144,203.892 58.144,204.875 	"/>
	<polygon fill="#23346C" points="66.822,204.875 61.371,196.64 61.371,204.875 60.275,204.875 60.275,194.605 61.311,194.605 
		66.762,202.812 66.762,194.605 67.859,194.605 67.859,204.875 	"/>
	<polygon fill="#23346C" points="73.888,195.587 73.888,204.873 72.791,204.873 72.791,195.587 69.819,195.587 69.819,194.605 
		76.858,194.605 76.858,195.587 	"/>
	<path fill="#23346C" d="M84.463,203.893c-0.694,0.692-1.6,1.066-2.625,1.066c-1.025,0-1.932-0.374-2.624-1.066
		c-0.969-0.966-0.969-1.976-0.969-4.155c0-2.176,0-3.185,0.969-4.152c0.692-0.692,1.599-1.068,2.624-1.068
		c1.025,0,1.931,0.375,2.625,1.068c0.966,0.967,0.966,1.976,0.966,4.152C85.429,201.917,85.429,202.927,84.463,203.893
		 M83.612,196.234c-0.448-0.46-1.096-0.733-1.774-0.733c-0.678,0-1.328,0.272-1.774,0.733c-0.649,0.666-0.72,1.357-0.72,3.504
		c0,2.15,0.071,2.842,0.72,3.507c0.446,0.461,1.096,0.734,1.774,0.734c0.677,0,1.326-0.272,1.774-0.734
		c0.648-0.665,0.723-1.357,0.723-3.507C84.335,197.592,84.26,196.901,83.612,196.234"/>
	<path fill-rule="evenodd" clip-rule="evenodd" fill="#E7BE00" d="M102.082,36.693H53.204V114.2l6.32-0.716
		c0,0,15.908-1.534,28.717-14.154c12.811-12.619,13.841-29.394,13.841-29.394V36.693z"/>
	<path fill-rule="evenodd" clip-rule="evenodd" fill="#23346C" d="M4.893,35.976H53.77v77.508h-4.612c0,0-17.615-2.25-30.425-14.87
		C5.924,85.996,4.893,69.22,4.893,69.22V35.976z"/>
	<g>
		<defs>
			<path id="SVGID_1_" d="M4.894,35.977V69.22c0,0,1.03,16.776,13.84,29.393c12.809,12.621,30.424,14.871,30.424,14.871h4.611
				V35.977H4.894z"/>
		</defs>
		<clipPath id="SVGID_2_">
			<use xlink:href="#SVGID_1_"  overflow="visible"/>
		</clipPath>
		<path clip-path="url(#SVGID_2_)" fill-rule="evenodd" clip-rule="evenodd" fill="#FFFFFF" d="M53.558,83.429
			c-2.286-1.28-4.01-0.665-5.748,0.639c-1.977,1.483-4.299,2.551-7.81,0.237c-3.513-2.314-5.081-1.163-7.018,0.125
			c-1.938,1.288-4.032,2.147-7.134,0.124c-3.103-2.022-4.716-1.619-7.33-0.083c-2.616,1.538-4.151,1.777-7.578,0
			c-5.48-2.838-8.576,1.516-9.164,1.416l0.66-3.923c0,0,3.312-3.9,8.231-1.289c4.193,2.227,5.365,1.602,7.614,0.452
			c2.208-1.126,2.867-2.431,7.82-0.078c2.771,1.317,5.105,0.915,6.335,0.125c2.503-1.607,4.857-2.512,8.221-0.042
			c2.698,1.98,5.498,0.352,6.42-0.209c1.47-0.89,3.497-2.543,6.482-0.881V83.429z"/>
		<path clip-path="url(#SVGID_2_)" fill-rule="evenodd" clip-rule="evenodd" fill="#FFFFFF" d="M53.558,90.223
			c-2.286-1.281-4.01-0.663-5.748,0.639c-1.977,1.483-4.299,2.55-7.81,0.237c-3.513-2.314-5.081-1.164-7.018,0.125
			c-1.938,1.287-4.032,2.147-7.134,0.124c-3.103-2.023-4.716-1.62-7.33-0.083c-2.616,1.537-4.151,1.777-7.578,0
			c-5.48-2.838-8.576,1.516-9.164,1.416l0.66-3.923c0,0,3.312-3.9,8.231-1.289c4.193,2.226,5.365,1.602,7.614,0.452
			c2.208-1.128,2.867-2.431,7.82-0.078c2.771,1.317,5.105,0.914,6.335,0.125c2.503-1.607,4.857-2.512,8.221-0.042
			c2.698,1.98,5.498,0.351,6.42-0.207c1.47-0.893,3.497-2.545,6.482-0.883V90.223z"/>
	</g>
	<rect x="5.464" y="0.941" fill="#FFFFFF" width="96.532" height="35.035"/>
	<path fill="#B99816" d="M18.759,125.592C8.592,121.599,1.566,116.884,0,114.878c-0.029-0.037,6.072,0.663,8.604-1.614
		c-1.18-5.56,0.062-9.033,0.062-9.033c1.828,1.937,7.475,5.474,15.377,8.497l-5.752,1.8L18.759,125.592z"/>
	<polygon fill-rule="evenodd" clip-rule="evenodd" fill="#88701E" points="18.21,114.531 23.939,112.678 20.065,119.42 	"/>
	<path fill="#B99816" d="M89.857,125.592c10.167-3.993,17.192-8.708,18.758-10.714c0.029-0.037-6.072,0.663-8.603-1.614
		c1.179-5.56-0.062-9.033-0.062-9.033c-1.828,1.937-7.474,5.474-15.377,8.497l5.751,1.8L89.857,125.592z"/>
	<polygon fill-rule="evenodd" clip-rule="evenodd" fill="#88701E" points="90.405,114.531 84.676,112.678 88.55,119.42 	"/>
	<path fill="#E7BE00" d="M54.347,137.481h-0.079c-21.872-0.061-40.273-8.456-43.223-11.406c-0.069-0.069,7.303-11.623,7.303-11.623
		c3.475,2.877,18.37,8.974,35.921,9.03h0.079c17.549-0.056,32.447-6.153,35.921-9.03c0,0,7.372,11.554,7.303,11.623
		C94.62,129.024,76.22,137.42,54.347,137.481"/>
	<polygon fill="#E30613" points="35.079,11.896 35.079,18.049 35.079,24.2 31.989,21.125 31.877,21.012 26.847,21.012 
		26.847,26.015 26.971,26.139 30.048,29.231 26.847,29.231 23.896,29.231 21.022,29.231 17.744,29.231 20.819,26.139 21.022,25.936 
		21.022,21.012 15.901,21.012 15.79,21.125 12.699,24.2 12.699,21.012 12.699,18.049 12.699,15.082 12.699,11.896 15.79,14.972 
		15.901,15.082 21.022,15.082 21.022,10.129 20.819,9.925 17.744,6.835 23.896,6.835 30.048,6.835 26.971,9.925 26.847,10.049 
		26.847,15.082 31.877,15.082 31.989,14.972 	"/>
	<polygon fill="#FFFFFF" points="23.429,9.896 24.35,9.896 24.35,17.572 32.026,17.572 32.026,18.494 24.35,18.494 24.35,26.169 
		23.429,26.169 23.429,18.494 15.752,18.494 15.752,17.572 23.429,17.572 	"/>
	<polygon fill="#E30613" points="64.84,12.043 64.84,18.194 64.84,24.346 61.75,21.271 61.638,21.16 56.607,21.16 56.607,26.163 
		56.732,26.288 59.808,29.379 56.607,29.379 53.656,29.379 50.783,29.379 47.504,29.379 50.579,26.288 50.783,26.085 50.783,21.16 
		45.663,21.16 45.55,21.271 42.46,24.346 42.46,21.16 42.46,18.194 42.46,15.23 42.46,12.043 45.55,15.118 45.663,15.23 
		50.783,15.23 50.783,10.275 50.579,10.071 47.504,6.982 53.656,6.982 59.808,6.982 56.732,10.071 56.607,10.195 56.607,15.23 
		61.638,15.23 61.75,15.118 	"/>
	<polygon fill="#FFFFFF" points="53.189,10.043 54.11,10.043 54.11,17.718 61.786,17.718 61.786,18.641 54.11,18.641 54.11,26.317 
		53.189,26.317 53.189,18.641 45.513,18.641 45.513,17.718 53.189,17.718 	"/>
	<polygon fill="#E30613" points="94.325,11.896 94.325,18.049 94.325,24.2 91.234,21.125 91.122,21.012 86.092,21.012 
		86.092,26.015 86.216,26.139 89.292,29.231 86.092,29.231 83.14,29.231 80.266,29.231 76.988,29.231 80.063,26.139 80.266,25.936 
		80.266,21.012 75.146,21.012 75.034,21.125 71.944,24.2 71.944,21.012 71.944,18.049 71.944,15.082 71.944,11.896 75.034,14.972 
		75.146,15.082 80.266,15.082 80.266,10.129 80.063,9.925 76.988,6.835 83.14,6.835 89.292,6.835 86.216,9.925 86.092,10.049 
		86.092,15.082 91.122,15.082 91.234,14.972 	"/>
	<polygon fill="#FFFFFF" points="82.673,9.896 83.595,9.896 83.595,17.572 91.271,17.572 91.271,18.494 83.595,18.494 
		83.595,26.169 82.673,26.169 82.673,18.494 74.997,18.494 74.997,17.572 82.673,17.572 	"/>
	<polygon fill-rule="evenodd" clip-rule="evenodd" fill="#23346C" points="24.593,128.663 26.79,122.943 26.355,122.777 
		24.17,126.02 24.7,122.14 24.267,121.975 22.071,127.695 22.505,127.862 23.972,124.037 23.577,127.083 23.899,127.207 
		25.628,124.672 24.16,128.497 	"/>
	
		<rect x="24.314" y="126.163" transform="matrix(-0.3257 0.9455 -0.9455 -0.3257 155.7998 141.6714)" fill-rule="evenodd" clip-rule="evenodd" fill="#23346C" width="6.128" height="0.465"/>
	<path fill-rule="evenodd" clip-rule="evenodd" fill="#23346C" d="M31.038,126.266c-0.177,0.575-0.48,0.85-0.777,0.76l-0.659-0.201
		l0.563-1.837l0.657,0.202C31.119,125.282,31.215,125.689,31.038,126.266 M30.308,130.568l0.119-2.799
		c0.385-0.081,0.803-0.537,1.06-1.377c0.304-0.996,0.169-1.82-0.387-1.991l-1.135-0.347l-1.792,5.86l0.445,0.137l0.755-2.469
		l0.555,0.168l-0.137,2.659L30.308,130.568z"/>
	<path fill-rule="evenodd" clip-rule="evenodd" fill="#23346C" d="M33.57,129.373l-0.911-0.244l1.165-2.504L33.57,129.373z
		 M33.853,131.542l0.501-6.209l-0.362-0.097l-2.67,5.628l0.477,0.129l0.522-1.135l1.169,0.314l-0.116,1.242L33.853,131.542z"/>
	<path fill-rule="evenodd" clip-rule="evenodd" fill="#23346C" d="M37.677,127.91c-0.126,0.589-0.405,0.89-0.708,0.826l-0.673-0.143
		l0.4-1.877l0.673,0.142C37.671,126.923,37.802,127.321,37.677,127.91 M37.324,132.26l-0.127-2.799
		c0.376-0.112,0.753-0.605,0.936-1.463c0.217-1.019,0.011-1.829-0.558-1.949l-1.161-0.248l-1.274,5.995l0.454,0.096l0.537-2.526
		l0.568,0.121l0.095,2.659L37.324,132.26z"/>
	<polygon fill-rule="evenodd" clip-rule="evenodd" fill="#23346C" points="40.663,132.89 40.807,132.07 39.337,131.81 
		39.656,129.996 40.911,130.217 41.056,129.404 39.801,129.182 40.112,127.42 41.582,127.678 41.727,126.857 39.798,126.516 
		38.734,132.551 	"/>
	
		<rect x="41.586" y="130.092" transform="matrix(-0.1219 0.9925 -0.9925 -0.1219 179.4452 101.8882)" fill-rule="evenodd" clip-rule="evenodd" fill="#23346C" width="6.13" height="0.465"/>
	<polygon fill-rule="evenodd" clip-rule="evenodd" fill="#23346C" points="48.837,133.786 49.372,127.682 48.908,127.641 
		47.701,131.362 47.142,127.486 46.679,127.446 46.145,133.55 46.608,133.59 46.965,129.509 47.425,132.548 47.767,132.578 
		48.731,129.665 48.375,133.745 	"/>
	<path fill-rule="evenodd" clip-rule="evenodd" fill="#23346C" d="M52.326,129.625c-0.022,0.645-0.255,1.008-0.577,0.996
		l-0.671-0.023l0.072-2.039l0.67,0.023C52.142,128.594,52.349,128.982,52.326,129.625 M52.79,129.641
		c0.037-1.065-0.317-1.871-0.915-1.892l-1.161-0.04l-0.214,6.124l0.465,0.016l0.084-2.408l0.697,0.025
		C52.343,131.487,52.752,130.71,52.79,129.641"/>
	<polygon fill-rule="evenodd" clip-rule="evenodd" fill="#23346C" points="56.038,133.895 56.038,133.06 54.544,133.06 
		54.544,131.217 55.818,131.217 55.818,130.392 54.544,130.392 54.544,128.602 56.038,128.602 56.038,127.767 54.08,127.767 
		54.08,133.895 	"/>
	<polygon fill-rule="evenodd" clip-rule="evenodd" fill="#23346C" points="59.22,128.493 59.191,127.658 57.04,127.733 
		57.07,128.567 57.913,128.538 58.097,133.828 58.562,133.811 58.377,128.521 	"/>
	<path fill-rule="evenodd" clip-rule="evenodd" fill="#23346C" d="M62.743,131.419l-0.355-4.048l-0.463,0.042l0.351,4.005
		c0.072,0.813-0.138,1.341-0.52,1.375c-0.381,0.033-0.674-0.451-0.746-1.266l-0.35-4.003l-0.463,0.04l0.353,4.046
		c0.111,1.259,0.657,2.067,1.279,2.014C62.451,133.57,62.854,132.68,62.743,131.419"/>
	<polygon fill-rule="evenodd" clip-rule="evenodd" fill="#23346C" points="67.186,132.942 66.333,126.875 65.873,126.939 
		65.534,130.836 64.117,127.185 63.657,127.25 64.51,133.317 64.97,133.253 64.4,129.197 65.532,132.053 65.873,132.006 
		66.156,128.95 66.726,133.007 	"/>
	<polygon fill-rule="evenodd" clip-rule="evenodd" fill="#23346C" points="71.609,126.793 71.449,125.973 69.529,126.347 
		70.697,132.362 71.154,132.273 70.659,129.73 71.91,129.486 71.75,128.669 70.499,128.912 70.143,127.078 	"/>
	<polygon fill-rule="evenodd" clip-rule="evenodd" fill="#23346C" points="75.88,131.214 75.679,130.405 74.246,130.762 
		72.965,125.626 72.515,125.738 73.997,131.685 	"/>
	<path fill-rule="evenodd" clip-rule="evenodd" fill="#23346C" d="M78.65,128.31l-1.12-3.906l-0.446,0.129l1.107,3.862
		c0.226,0.786,0.123,1.345-0.246,1.45c-0.368,0.106-0.748-0.314-0.973-1.099l-1.107-3.865l-0.448,0.129l1.12,3.906
		c0.349,1.215,1.039,1.904,1.638,1.732C78.774,130.477,78.999,129.526,78.65,128.31"/>
	<polygon fill-rule="evenodd" clip-rule="evenodd" fill="#23346C" points="80.795,123.381 80.327,123.533 81.035,127.991 
		78.986,123.968 78.528,124.117 81.379,129.635 81.722,129.523 	"/>
	
		<rect x="80.007" y="125.595" transform="matrix(0.3421 0.9397 -0.9397 0.3421 172.8905 4.7249)" fill-rule="evenodd" clip-rule="evenodd" fill="#23346C" width="6.128" height="0.465"/>
	
		<rect x="81.922" y="124.875" transform="matrix(0.3585 0.9335 -0.9335 0.3585 171.3117 0.9216)" fill-rule="evenodd" clip-rule="evenodd" fill="#23346C" width="6.127" height="0.464"/>
	<path fill="#FFFFFF" d="M35.571,47.171v3.83c0,0-1.47,0.594-2.593-0.246c-1.125-0.841-2.693-0.05-2.693-0.05V46.69
		c0,0,1.901-0.113,2.741,0.529C33.868,47.864,35.571,47.171,35.571,47.171 M8.368,64.183c0,0,0.297,0.63,2.99-0.198
		c2.692-0.827,1.781-1.223,3.78-1.57c1.352-0.233,2.545,0.198,2.545,0.198s2.313-1.543,3.485,0.149
		c0.777,1.124,0.926,3.04,0.926,3.04s-1.04-1.076-1.867-1.373c-0.827-0.296-0.961,3.387-3.371,3.486l-0.085,1.433l1.703-0.013
		c0,0,2.974,4.583,10.055,4.877l0.451-19.007c-0.577,0.016-1.049,0.173-1.376,0.383c-1.323,0.849-2.565,1.327-4.343,0.021
		c-1.425-1.045-2.904-0.185-3.391,0.111c-0.777,0.471-2.399,1.253-3.424,0.465c-1.026-0.786-0.728-3.677-0.728-3.677
		c0.572,0.321,6.843,0.459,13.313,0.52l0.165-6.962l0.446-0.035l0.112,7.004c6.945,0.059,13.886,0.036,14.044,0.064
		c0,0,0.231,1.348-0.347,2.071c-0.579,0.723-1.751,2.061-4.349,0.682c-2.214-1.176-2.833-0.846-4.022-0.24
		c-1.166,0.596-1.514,1.285-4.13,0.042c-0.408-0.193-0.797-0.317-1.16-0.383l0.303,18.937c7.039-0.344,10.631-4.871,10.631-4.871
		l1.489,0.025l-0.075-1.291c-2.412-0.099-2.545-3.782-3.372-3.485c-0.827,0.297-1.866,1.37-1.866,1.37s0.149-1.915,0.926-3.039
		c1.171-1.693,3.484-0.149,3.484-0.149s1.193-0.432,2.545-0.197c1.999,0.345,1.088,0.742,3.78,1.57
		c2.693,0.825,2.99,0.197,2.99,0.197l-0.197,0.594c-0.877,1.236-3.534,0.925-3.534,0.925l3.335,1.915l-2.064,1.469
		c0,0-0.728-1.42-1.803-1.815c-1.073-0.396-3.039,0.693-3.039,0.693l-0.038,1.257l3.615,0.057l0.048,1.371h-2.261
		c0,0-0.975,11.465-15.047,11.465c-14.073,0-15.641-11.217-15.641-11.217h-2.496v-1.669l4.205-0.03l-0.042-1.39
		c0,0-1.965-1.09-3.039-0.693c-1.075,0.396-1.802,1.817-1.802,1.817l-2.064-1.47l3.336-1.916c0,0-2.657,0.312-3.534-0.924
		L8.368,64.183z M19.415,63.183c0,0.252,0.203,0.456,0.455,0.456c0.252,0,0.456-0.205,0.456-0.456c0-0.252-0.203-0.456-0.456-0.456
		C19.618,62.727,19.415,62.932,19.415,63.183 M39.578,63.336c0-0.252-0.203-0.455-0.456-0.455c-0.252,0-0.456,0.203-0.456,0.455
		c0,0.253,0.205,0.456,0.456,0.456C39.375,63.792,39.578,63.589,39.578,63.336"/>
	<path fill="#09652E" d="M66.209,56.612l-1.82,1.251l-0.898-1.433l2.351-0.927c-0.013-0.116-0.02-0.233-0.02-0.353
		c0-0.25,0.031-0.494,0.09-0.726l-2.497-0.783l0.668-2.043l2.325,1.79c0.239-0.319,0.542-0.588,0.89-0.789l-0.196-2.586l1.585-0.077
		l-0.298,2.296c0.123-0.016,0.248-0.022,0.373-0.022c0.187,0,0.369,0.017,0.546,0.05l1.575-1.865l0.974,0.9l-1.4,1.453
		c0.42,0.296,0.759,0.699,0.977,1.169l1.626-0.503l0.381,1.356L71.7,54.982c0.003,0.056,0.004,0.112,0.004,0.168
		c0,0.306-0.046,0.601-0.134,0.88c0.978,1.577,3.281,5.44,4.508,8.767c1.584,4.299,1.51,7.468,1.51,7.468s4.774-4.144,5.519-8.824
		c0,0-1.128-2.56-3.095-1.357c-1.444,0.885-1.705,1.49-1.742,1.748c-0.003-0.809,0.157-4.851,3.69-6.275
		c3.935-1.584,2.178-4.069,0.153-3.018c-2.026,1.051-2.942,2.637-2.942,2.637s0.4-4.357,3.935-6.706
		c3.534-2.349-0.687-2.482-2.273-1.279c0,0,4.469-4.988,8.232-5.961l1.204-0.229c0,0-0.306,2.121,1.05,6.191
		c1.356,4.068-0.898,4.144-0.898,4.144s0.918-2.654-1.433-3.4c0,0-0.305,4.526,1.128,7.393c1.433,2.865-0.382,6.188-0.382,6.188
		s-0.287-3.017-2.025-4.45c0,0-0.382,7.258-2.197,8.309c0,0,0.459-2.195-0.974-3.477c0,0-2.197,6.266-5.138,8.063
		c0,0,1.566,0.152,2.559,0.228c0,0-3.975,1.603-4.967,4.087c0,0,1.128-1.356,2.483-1.508c0,0-0.84,0.916-0.305,1.434
		c0,0,1.165,0.764,2.73,0c1.568-0.765,1.721-3.078,2.026-4.452c0.306-1.375,2.577-2.808,3.553-2.349c0,0-1.95,2.272-1.357,3.629
		c0,0,4.117-3.19,7.908-3.934c2.332-0.459,5.579-0.231,6.189,0.381c0,0-3.382,1.375-3.917,3.401c0,0-2.348-1.967-5.29,1.126
		c-2.942,3.095-5.025,5.062-7.756,5.139c-2.732,0.076-5.979-1.126-7.182,0.152c-1.204,1.28-2.56,3.095-2.56,3.095
		s7.604,0.21,8.673,5.044c0,0-2.466-1.128-2.102,0.459c0.364,1.584,1.356,3.475,3.095,3.245c1.738-0.227,3.533,0,3.533,0
		s-3.4,2.35-6.265,1.434c-2.865-0.916-3.305-2.713-3.916-3.17c-0.611-0.459-1.738-0.707-1.738,0.669c0,1.375-0.076,2.96-0.076,2.96
		s-2.866-1.3-1.205-8.463c0,0-2.12-1.203-4.45,5.063l-1.203,3.915l-2.579-4.603c0,0,2.33-1.356,3.17-2.865
		c0.84-1.51-0.766-3.293-1.873-3.4c-1.584-0.152-2.96,0.077-3.705,0.611c0,0,1.756,0.286,2.12,1.203c0,0-1.663-0.153-2.12,1.28
		l1.279,0.305c0,0-0.516,0.248-0.822,0.84c-0.305,0.593-0.821,3.612,0.153,5.12c0,0-1.833,1.146-1.146,2.349
		c0.688,1.204,3.4,0.516,3.4,0.516s-3.84,4.891-4.299,7.545c0,0,0.306-4.449-1.204-5.731c-1.509-1.28-3.17-1.967-3.17-1.967
		l2.12-0.364c0,0-3.687-2.884-3.019-6.723c0,0,0.306,1.221,1.358,1.813c0,0-0.383-9.512,5.73-11.021c0,0-2.196,1.28-1.738,2.79
		c0.458,1.508,2.713,0.304,4.528,0.304c1.815,0,3.323,1.414,3.399,2.483c0,0,2.408-2.923,1.28-6.553
		c-1.127-3.628-3.265,0.231-3.629,1.586c0,0-0.482-2.488,0.357-4.424c-0.168,0.03-0.34,0.044-0.516,0.044
		c-0.291,0-0.572-0.04-0.838-0.12l-0.665,1.846l-1.203-0.439l1.082-1.774c-0.325-0.215-0.605-0.495-0.821-0.819l-2.286,0.472
		l-0.153-1.356l1.994-0.197C64.018,72.121,64,71.934,64,71.745c0-0.155,0.012-0.309,0.036-0.459l-1.74-0.645l-0.01,0.117
		c0,0-0.055-0.063-0.144-0.175l-0.925-0.343l0.337-0.617c-0.345-0.729-0.611-1.747-0.261-2.86c0,0-1.491-0.076-2.024,1.357
		c0,0-0.229-6.131-1.586-6.418c-1.356-0.288,3.629-1.051,7.317,0.915c0,0-1.663,0-1.586,1.203c0,0,2.273-0.744,3.552,0.154
		c0,0-1.452,0.992-1.145,1.815c0,0,1.222,0.095,2.578,0.382c0,0-1.323,0.219-2.738,0.832l0.583,1.882
		c0.224-0.054,0.458-0.082,0.699-0.082c0.34,0,0.666,0.057,0.969,0.163l1.004-2.279l1.128,0.231l-1.265,2.528
		c0.307,0.245,0.565,0.551,0.753,0.901l2.174-1.023l0.077,0.992l-1.942,0.914c0.029,0.168,0.045,0.34,0.045,0.515
		c0,0.288-0.042,0.566-0.119,0.829c0.954-0.27,2.223-0.249,3.906,0.225c0,0-2.654,1.434-1.967,4.453
		c0.687,3.018,1.069,2.635,1.069,2.635s4.203-4.526,3.534-9.206c-0.633-4.431-2.755-10.075-5.994-13.032
		c-0.449,0.28-0.982,0.442-1.552,0.442c-0.128,0-0.257-0.008-0.382-0.023v2.05l-1.719-0.077l0.509-2.417
		C66.775,57.369,66.444,57.021,66.209,56.612 M67.329,55.188c0,0.77,0.625,1.396,1.395,1.396c0.77,0,1.395-0.626,1.395-1.396
		c0-0.77-0.624-1.395-1.395-1.395C67.954,53.794,67.329,54.418,67.329,55.188 M64.468,67.621c-0.84,0.521-1.585,1.211-1.95,2.108
		l1.794,0.699c0.208-0.416,0.512-0.776,0.883-1.048L64.468,67.621z M65.509,71.783c0,0.77,0.624,1.396,1.395,1.396
		c0.77,0,1.393-0.626,1.393-1.396c0-0.769-0.624-1.394-1.393-1.394C66.134,70.389,65.509,71.014,65.509,71.783"/>
	<path fill="#BFBEBE" d="M102.857,0H4.39v67.708c0,24.802,23.325,46.557,49.915,46.557c26.482,0,47.806-20.441,48.547-46.573
		c-0.341-16.896-0.003-66.442,0-66.94L102.857,0z M101.354,1.494c-0.023,3.481-0.116,18.467-0.141,33.849H5.882V1.494H101.354z
		 M5.882,67.708V36.837h46.809v75.894C27.575,111.875,5.882,91.211,5.882,67.708z M54.305,112.771c-0.041,0-0.081-0.003-0.121-0.003
		V36.837h47.027c-0.016,12.025,0.011,24.073,0.148,30.851C100.642,92.969,79.973,112.771,54.305,112.771z"/>
</g>
</svg>
