<?xml version="1.0" encoding="utf-8"?>
<!-- Generator: Adobe Illustrator 17.0.0, SVG Export Plug-In . SVG Version: 6.00 Build 0)  -->
<!DOCTYPE svg PUBLIC "-//W3C//DTD SVG 1.1//EN" "http://www.w3.org/Graphics/SVG/1.1/DTD/svg11.dtd">
<svg version="1.1" id="Layer_1" xmlns="http://www.w3.org/2000/svg" xmlns:xlink="http://www.w3.org/1999/xlink" x="0px" y="0px"
	 width="115.537px" height="204.47px" viewBox="0 0 115.537 204.47" enable-background="new 0 0 115.537 204.47"
	 xml:space="preserve">
<g>
	<path fill="#E7BE00" d="M57.633,113.643V36.495h47.545c-0.017,12.217,0.011,24.457,0.151,31.343
		C104.601,93.488,83.66,113.585,57.633,113.643z"/>
	<path fill="#23346C" d="M9.401,67.473V36.684h46.917v75.699C31.169,111.649,9.401,90.986,9.401,67.473z"/>
	<path fill="#23346C" d="M33.831,160.298c-1.007,0-1.927-0.374-2.617-1.063c-0.964-0.965-0.964-1.97-0.964-4.143
		c0-2.171,0-3.179,0.964-4.142c0.689-0.688,1.61-1.066,2.617-1.066c1.842,0,3.208,1.126,3.552,3.051h-1.123
		c-0.272-1.252-1.15-2.071-2.429-2.071c-0.676,0-1.324,0.26-1.768,0.719c-0.649,0.662-0.72,1.366-0.72,3.509
		c0,2.143,0.071,2.851,0.72,3.509c0.444,0.46,1.092,0.722,1.768,0.722c1.279,0,2.186-0.822,2.46-2.074h1.092
		C37.052,159.174,35.657,160.298,33.831,160.298"/>
	<path fill="#23346C" d="M45.574,159.234c-0.692,0.69-1.599,1.063-2.617,1.063c-1.023,0-1.929-0.373-2.619-1.063
		c-0.965-0.966-0.965-1.971-0.965-4.143c0-2.171,0-3.177,0.965-4.142c0.69-0.688,1.596-1.062,2.619-1.062
		c1.018,0,1.925,0.374,2.617,1.062c0.964,0.965,0.964,1.971,0.964,4.142C46.538,157.263,46.538,158.268,45.574,159.234
		 M44.725,151.597c-0.445-0.46-1.093-0.735-1.768-0.735c-0.678,0-1.325,0.274-1.771,0.735c-0.647,0.663-0.718,1.351-0.718,3.493
		c0,2.143,0.071,2.834,0.718,3.496c0.446,0.46,1.093,0.733,1.771,0.733c0.674,0,1.322-0.273,1.768-0.733
		c0.647-0.662,0.719-1.353,0.719-3.496C45.444,152.948,45.373,152.26,44.725,151.597"/>
	<polygon fill="#23346C" points="48.924,160.212 48.924,149.972 50.017,149.972 50.017,159.234 55.252,159.234 55.252,160.212 	"/>
	<path fill="#23346C" d="M57.201,160.212v-10.24h6.356v0.978h-5.264v3.61h4.486v0.978h-4.486v3.696h5.264v0.978H57.201z
		 M60.466,148.979h-0.949l1.266-2.2h1.236L60.466,148.979z"/>
	<path fill="#23346C" d="M71.433,159.119c-0.721,0.777-1.682,1.18-2.733,1.18c-1.005,0-1.927-0.374-2.617-1.065
		c-0.964-0.965-0.964-1.971-0.964-4.142c0-2.174,0-3.179,0.964-4.142c0.69-0.689,1.595-1.064,2.617-1.064
		c1.957,0,3.28,1.265,3.582,3.062h-1.093c-0.288-1.295-1.208-2.085-2.489-2.085c-0.675,0-1.323,0.274-1.769,0.735
		c-0.646,0.662-0.72,1.351-0.72,3.495c0,2.143,0.074,2.847,0.72,3.508c0.446,0.46,1.094,0.722,1.769,0.722
		c0.748,0,1.467-0.303,1.943-0.879c0.416-0.503,0.573-1.065,0.573-1.855v-0.776h-2.516v-0.963h3.609v1.625
		C72.309,157.651,72.066,158.443,71.433,159.119"/>
	<rect x="74.657" y="149.972" fill="#23346C" width="1.094" height="10.24"/>
	<path fill="#23346C" d="M84.323,159.234c-0.692,0.69-1.597,1.063-2.618,1.063c-1.02,0-1.925-0.373-2.616-1.063
		c-0.963-0.966-0.963-1.971-0.963-4.143c0-2.171,0-3.177,0.963-4.142c0.69-0.688,1.596-1.062,2.616-1.062
		c1.022,0,1.927,0.374,2.618,1.062c0.963,0.965,0.963,1.971,0.963,4.142C85.286,157.263,85.286,158.268,84.323,159.234
		 M83.474,151.597c-0.445-0.46-1.093-0.735-1.769-0.735c-0.674,0-1.321,0.274-1.767,0.735c-0.648,0.663-0.721,1.351-0.721,3.493
		c0,2.143,0.073,2.834,0.721,3.496c0.445,0.46,1.093,0.733,1.767,0.733c0.677,0,1.325-0.273,1.769-0.733
		c0.647-0.662,0.72-1.353,0.72-3.496C84.194,152.948,84.121,152.26,83.474,151.597"/>
	<polygon fill="#23346C" points="27.682,195.122 27.682,198.89 32.17,198.89 32.17,199.868 27.682,199.868 27.682,204.384 
		26.59,204.384 26.59,194.143 32.947,194.143 32.947,195.122 	"/>
	<path fill="#23346C" d="M40.565,203.406c-0.691,0.69-1.596,1.064-2.617,1.064c-1.022,0-1.927-0.373-2.617-1.064
		c-0.967-0.963-0.967-1.971-0.967-4.144c0-2.17,0-3.176,0.967-4.141c0.69-0.69,1.595-1.065,2.617-1.065
		c1.021,0,1.926,0.374,2.617,1.065c0.965,0.965,0.965,1.971,0.965,4.141C41.53,201.435,41.53,202.443,40.565,203.406
		 M39.717,195.768c-0.447-0.459-1.093-0.731-1.768-0.731c-0.677,0-1.325,0.272-1.77,0.731c-0.647,0.664-0.719,1.353-0.719,3.495
		c0,2.144,0.071,2.834,0.719,3.497c0.445,0.46,1.093,0.732,1.77,0.732c0.676,0,1.322-0.272,1.768-0.732
		c0.647-0.663,0.721-1.353,0.721-3.497C40.438,197.121,40.364,196.432,39.717,195.768"/>
	<polygon fill="#23346C" points="51.596,204.385 51.596,196.604 48.791,202.773 47.856,202.773 45.008,196.604 45.008,204.385 
		43.916,204.385 43.916,194.143 45.008,194.143 48.346,201.407 51.596,194.143 52.69,194.143 52.69,204.385 	"/>
	<polygon fill="#23346C" points="55.376,204.385 55.376,194.143 61.735,194.143 61.735,195.122 56.47,195.122 56.47,198.731 
		60.957,198.731 60.957,199.71 56.47,199.71 56.47,203.405 61.735,203.405 61.735,204.385 	"/>
	<polygon fill="#23346C" points="70.388,204.385 64.953,196.172 64.953,204.385 63.858,204.385 63.858,194.143 64.893,194.143 
		70.33,202.328 70.33,194.143 71.423,194.143 71.423,204.385 	"/>
	<polygon fill="#23346C" points="77.436,195.122 77.436,204.384 76.343,204.384 76.343,195.122 73.379,195.122 73.379,194.143 
		80.397,194.143 80.397,195.122 	"/>
	<path fill="#23346C" d="M87.983,203.406c-0.692,0.69-1.597,1.064-2.618,1.064c-1.02,0-1.926-0.373-2.615-1.064
		c-0.966-0.963-0.966-1.971-0.966-4.144c0-2.17,0-3.176,0.966-4.141c0.689-0.69,1.595-1.065,2.615-1.065
		c1.022,0,1.927,0.374,2.618,1.065c0.964,0.965,0.964,1.971,0.964,4.141C88.947,201.435,88.947,202.443,87.983,203.406
		 M87.134,195.768c-0.445-0.459-1.093-0.731-1.769-0.731c-0.676,0-1.323,0.272-1.769,0.731c-0.646,0.664-0.718,1.353-0.718,3.495
		c0,2.144,0.071,2.834,0.718,3.497c0.446,0.46,1.093,0.732,1.769,0.732c0.676,0,1.325-0.272,1.769-0.732
		c0.647-0.663,0.72-1.353,0.72-3.497C87.854,197.121,87.781,196.432,87.134,195.768"/>
	<polygon fill="#23346C" points="8.66,185.29 8.66,178.498 3.168,178.498 3.168,185.29 0,185.29 0,169.059 3.168,169.059 
		3.168,175.694 8.66,175.694 8.66,169.059 11.828,169.059 11.828,185.29 	"/>
	<path fill="#23346C" d="M24.969,183.648c-1.14,1.14-2.529,1.779-4.376,1.779c-1.845,0-3.261-0.638-4.398-1.779
		c-1.643-1.641-1.597-3.669-1.597-6.473c0-2.802-0.046-4.83,1.597-6.472c1.137-1.14,2.552-1.779,4.398-1.779
		c1.847,0,3.236,0.638,4.376,1.779c1.641,1.642,1.619,3.67,1.619,6.472C26.588,179.979,26.61,182.007,24.969,183.648
		 M22.622,172.617c-0.456-0.524-1.164-0.866-2.029-0.866c-0.866,0-1.595,0.342-2.052,0.866c-0.614,0.684-0.774,1.437-0.774,4.558
		c0,3.123,0.159,3.876,0.774,4.561c0.457,0.523,1.186,0.865,2.052,0.865c0.865,0,1.573-0.342,2.029-0.865
		c0.616-0.685,0.797-1.438,0.797-4.561C23.419,174.053,23.237,173.3,22.622,172.617"/>
	<path fill="#23346C" d="M37.962,185.291l-3.168-6.475h-2.281v6.475h-3.168v-16.231h6.361c3.306,0,5.264,2.256,5.264,4.969
		c0,2.279-1.39,3.692-2.963,4.262l3.624,7H37.962z M35.499,171.887h-2.987v4.287h2.987c1.39,0,2.301-0.889,2.301-2.144
		C37.801,172.778,36.889,171.887,35.499,171.887"/>
	<rect x="43.84" y="169.061" fill="#23346C" width="3.166" height="16.231"/>
	<polygon fill="#23346C" points="49.263,185.29 49.263,182.737 56.192,171.887 49.56,171.887 49.56,169.059 59.933,169.059 
		59.933,171.567 52.979,182.464 59.933,182.464 59.933,185.29 	"/>
	<path fill="#23346C" d="M72.036,183.648c-1.14,1.14-2.53,1.779-4.376,1.779c-1.847,0-3.26-0.638-4.399-1.779
		c-1.641-1.641-1.595-3.669-1.595-6.473c0-2.802-0.046-4.83,1.595-6.472c1.139-1.14,2.552-1.779,4.399-1.779
		c1.846,0,3.236,0.638,4.376,1.779c1.642,1.642,1.619,3.67,1.619,6.472C73.655,179.979,73.678,182.007,72.036,183.648
		 M69.688,172.617c-0.456-0.524-1.162-0.866-2.028-0.866c-0.866,0-1.596,0.342-2.052,0.866c-0.616,0.684-0.776,1.437-0.776,4.558
		c0,3.123,0.161,3.876,0.776,4.561c0.456,0.523,1.185,0.865,2.052,0.865c0.866,0,1.573-0.342,2.028-0.865
		c0.616-0.685,0.798-1.438,0.798-4.561C70.486,174.053,70.304,173.3,69.688,172.617"/>
	<polygon fill="#23346C" points="86.008,185.29 79.58,175.33 79.58,185.29 76.411,185.29 76.411,169.059 79.238,169.059 
		85.665,178.997 85.665,169.059 88.836,169.059 88.836,185.29 	"/>
	<polygon fill="#23346C" points="98.429,171.887 98.429,185.291 95.261,185.291 95.261,171.887 91.022,171.887 91.022,169.061 
		102.67,169.061 102.67,171.887 	"/>
	<polygon fill="#23346C" points="104.846,185.29 104.846,169.059 115.537,169.059 115.537,171.887 108.013,171.887 108.013,175.694 
		114.419,175.694 114.419,178.519 108.013,178.519 108.013,182.464 115.537,182.464 115.537,185.29 	"/>
	<g>
		<defs>
			<path id="SVGID_1_" d="M8.486,35.882v33.156c0,0,1.026,16.731,13.801,29.317c12.777,12.585,30.345,14.832,30.345,14.832h4.6
				V35.882H8.486z"/>
		</defs>
		<clipPath id="SVGID_2_">
			<use xlink:href="#SVGID_1_"  overflow="visible"/>
		</clipPath>
		<path clip-path="url(#SVGID_2_)" fill-rule="evenodd" clip-rule="evenodd" fill="#FFFFFF" d="M57.023,76.433
			c-2.282-1.278-4.001-0.663-5.735,0.637c-1.971,1.48-4.287,2.544-7.79,0.237c-3.503-2.308-5.067-1.16-7,0.125
			c-1.932,1.283-4.021,2.141-7.115,0.124c-3.095-2.017-4.703-1.616-7.311-0.082c-2.607,1.533-4.14,1.771-7.557,0
			c-5.466-2.833-8.553,1.511-9.14,1.411l0.657-3.912c0,0,3.304-3.89,8.211-1.286c4.181,2.221,5.349,1.597,7.593,0.451
			c2.202-1.123,2.86-2.425,7.799-0.078c2.763,1.313,5.091,0.913,6.319,0.125c2.496-1.603,4.842-2.505,8.199-0.042
			c2.691,1.975,5.483,0.35,6.402-0.208c1.465-0.889,3.488-2.536,6.467-0.879V76.433z"/>
		<path clip-path="url(#SVGID_2_)" fill-rule="evenodd" clip-rule="evenodd" fill="#FFFFFF" d="M57.023,83.209
			c-2.282-1.278-4.001-0.663-5.735,0.637c-1.971,1.48-4.287,2.543-7.79,0.237c-3.503-2.308-5.067-1.161-7,0.124
			c-1.932,1.284-4.021,2.143-7.115,0.125c-3.095-2.018-4.703-1.616-7.311-0.082c-2.607,1.532-4.14,1.771-7.557,0
			c-5.466-2.832-8.553,1.511-9.14,1.411l0.657-3.912c0,0,3.304-3.89,8.211-1.286c4.181,2.219,5.349,1.597,7.593,0.451
			c2.202-1.125,2.86-2.425,7.799-0.078c2.763,1.313,5.091,0.911,6.319,0.124c2.496-1.602,4.842-2.505,8.199-0.04
			c2.691,1.975,5.483,0.348,6.402-0.208c1.465-0.889,3.488-2.538,6.467-0.879V83.209z"/>
		<path clip-path="url(#SVGID_2_)" fill-rule="evenodd" clip-rule="evenodd" fill="#FFFFFF" d="M57.023,89.986
			c-2.282-1.278-4.001-0.663-5.735,0.637c-1.971,1.478-4.287,2.543-7.79,0.237c-3.503-2.308-5.067-1.161-7,0.124
			c-1.932,1.284-4.021,2.141-7.115,0.125c-3.095-2.018-4.703-1.616-7.311-0.083c-2.607,1.533-4.14,1.771-7.557,0
			c-5.466-2.83-8.553,1.511-9.14,1.411l0.657-3.911c0,0,3.304-3.89,8.211-1.286c4.181,2.219,5.349,1.598,7.593,0.45
			c2.202-1.123,2.86-2.425,7.799-0.077c2.763,1.312,5.091,0.911,6.319,0.125c2.496-1.604,4.842-2.507,8.199-0.043
			c2.691,1.976,5.483,0.35,6.402-0.208c1.465-0.887,3.488-2.535,6.467-0.877V89.986z"/>
	</g>
	<rect x="9.055" y="0.939" fill="#FFFFFF" width="96.275" height="34.944"/>
	<path fill="#B99816" d="M22.314,125.261c-10.14-3.982-17.147-8.687-18.709-10.687c-0.028-0.035,6.056,0.663,8.58-1.61
		c-1.177-5.545,0.061-9.007,0.061-9.007c1.825,1.932,7.455,5.458,15.337,8.474l-5.737,1.794L22.314,125.261z"/>
	<polygon fill-rule="evenodd" clip-rule="evenodd" fill="#88701E" points="21.767,114.229 27.48,112.379 23.617,119.103 	"/>
	<path fill="#B99816" d="M93.223,125.261c10.14-3.982,17.147-8.687,18.709-10.687c0.029-0.035-6.056,0.663-8.58-1.61
		c1.177-5.545-0.061-9.007-0.061-9.007c-1.825,1.932-7.455,5.458-15.337,8.474l5.737,1.794L93.223,125.261z"/>
	<polygon fill-rule="evenodd" clip-rule="evenodd" fill="#88701E" points="93.77,114.229 88.056,112.379 91.921,119.103 	"/>
	<path fill="#E7BE00" d="M57.809,137.118H57.73c-21.814-0.062-40.167-8.434-43.109-11.377c-0.07-0.069,7.283-11.591,7.283-11.591
		c3.465,2.869,18.322,8.95,35.826,9.006h0.079c17.503-0.056,32.36-6.137,35.824-9.006c0,0,7.354,11.522,7.284,11.591
		C97.975,128.684,79.622,137.055,57.809,137.118"/>
	<path fill="#FFFFFF" d="M50.819,60.163v-7.755h5.418v-1.786H8.486v1.786h41.142v6.721c-4.335-3.575-10.052-5.772-16.334-5.772
		c-6.805,0-12.965,2.563-17.401,6.682v-7.605h-1.191v8.804c-3.641,3.906-5.853,8.958-5.853,14.48h1.612
		c0-11.441,10.242-20.749,22.832-20.749c12.591,0,22.833,9.308,22.833,20.749h1.612C57.74,69.674,55.094,64.192,50.819,60.163z"/>
	<g>
		<polygon fill="#E30613" points="38.591,11.865 38.591,18.001 38.591,24.136 35.508,21.067 35.399,20.958 30.382,20.958 
			30.382,25.948 30.504,26.073 33.573,29.155 30.382,29.155 27.437,29.155 24.57,29.155 21.301,29.155 24.369,26.073 24.57,25.869 
			24.57,20.958 19.464,20.958 19.352,21.067 16.27,24.136 16.27,20.958 16.27,18.001 16.27,15.044 16.27,11.865 19.352,14.932 
			19.464,15.044 24.57,15.044 24.57,10.102 24.369,9.899 21.301,6.818 27.437,6.818 33.573,6.818 30.504,9.899 30.382,10.023 
			30.382,15.044 35.399,15.044 35.508,14.932 		"/>
		<polygon fill="#FFFFFF" points="26.972,9.87 27.891,9.87 27.891,17.526 35.546,17.526 35.546,18.445 27.891,18.445 27.891,26.101 
			26.972,26.101 26.972,18.445 19.315,18.445 19.315,17.526 26.972,17.526 		"/>
	</g>
	<g>
		<polygon fill="#E30613" points="68.273,12.01 68.273,18.147 68.273,24.284 65.19,21.215 65.079,21.105 60.063,21.105 
			60.063,26.095 60.186,26.218 63.254,29.302 60.063,29.302 57.119,29.302 54.252,29.302 50.983,29.302 54.051,26.218 
			54.252,26.016 54.252,21.105 49.146,21.105 49.034,21.215 45.952,24.284 45.952,21.105 45.952,18.147 45.952,15.189 45.952,12.01 
			49.034,15.079 49.146,15.189 54.252,15.189 54.252,10.249 54.051,10.046 50.983,6.965 57.119,6.965 63.254,6.965 60.186,10.046 
			60.063,10.171 60.063,15.189 65.079,15.189 65.19,15.079 		"/>
		<polygon fill="#FFFFFF" points="56.654,10.017 57.572,10.017 57.572,17.673 65.227,17.673 65.227,18.59 57.572,18.59 
			57.572,26.248 56.654,26.248 56.654,18.59 48.997,18.59 48.997,17.673 56.654,17.673 		"/>
	</g>
	<g>
		<polygon fill="#E30613" points="97.679,11.865 97.679,18.001 97.679,24.136 94.597,21.067 94.487,20.958 89.47,20.958 
			89.47,25.948 89.593,26.073 92.661,29.155 89.47,29.155 86.525,29.155 83.659,29.155 80.39,29.155 83.457,26.073 83.659,25.869 
			83.659,20.958 78.552,20.958 78.441,21.067 75.359,24.136 75.359,20.958 75.359,18.001 75.359,15.044 75.359,11.865 
			78.441,14.932 78.552,15.044 83.659,15.044 83.659,10.102 83.457,9.899 80.39,6.818 86.525,6.818 92.661,6.818 89.593,9.899 
			89.47,10.023 89.47,15.044 94.487,15.044 94.597,14.932 		"/>
		<polygon fill="#FFFFFF" points="86.06,9.87 86.978,9.87 86.978,17.526 94.634,17.526 94.634,18.445 86.978,18.445 86.978,26.101 
			86.06,26.101 86.06,18.445 78.404,18.445 78.404,17.526 86.06,17.526 		"/>
	</g>
	<g>
		<rect x="56.392" y="86.975" fill="#E22429" width="43.748" height="1.786"/>
	</g>
	<g>
		<rect x="57.835" y="74.041" fill="#E22429" width="46.94" height="1.786"/>
	</g>
	<path fill="#E30613" d="M68.883,73.308c0-7.017,5.689-12.705,12.706-12.705c7.017,0,12.706,5.688,12.706,12.705
		C94.295,74.024,68.883,74.024,68.883,73.308"/>
	<polygon fill="#E30613" points="83.466,61.782 81.507,61.782 79.549,61.782 80.527,54.217 81.507,46.652 82.485,54.217 	"/>
	<polygon fill="#E30613" points="74.039,64.471 72.78,65.97 71.521,67.47 66.353,61.856 61.185,56.246 67.612,60.357 	"/>
	<polygon fill="#E30613" points="86.797,59.882 87.715,60.304 88.633,60.721 89.849,57.126 91.064,53.53 88.931,56.706 	"/>
	<polygon fill="#E30613" points="67.72,68.427 67.473,69.402 67.226,70.376 63.66,69.06 60.096,67.746 63.907,68.086 	"/>
	<polygon fill="#E30613" points="89.083,64.471 90.343,65.97 91.603,67.47 96.768,61.856 101.932,56.246 95.507,60.357 	"/>
	<polygon fill="#E30613" points="76.176,59.882 75.262,60.304 74.345,60.721 73.128,57.126 71.909,53.53 74.042,56.706 	"/>
	<polygon fill="#E30613" points="95.29,68.427 95.541,69.402 95.791,70.376 99.353,69.06 102.915,67.746 99.103,68.086 	"/>
	<polygon fill-rule="evenodd" clip-rule="evenodd" fill="#23346C" points="22.969,126.197 23.347,125.456 22.035,124.787 
		24.432,120.084 24.019,119.874 21.245,125.319 	"/>
	<path fill-rule="evenodd" clip-rule="evenodd" fill="#23346C" d="M25.912,125.249l-0.858-0.381l1.538-2.286L25.912,125.249z
		 M25.852,127.432l1.463-6.04l-0.341-0.151l-3.509,5.128l0.451,0.2l0.69-1.036l1.102,0.49l-0.308,1.207L25.852,127.432z"/>
	<polygon fill-rule="evenodd" clip-rule="evenodd" fill="#23346C" points="29.979,123.386 30.277,122.608 28.274,121.84 
		27.976,122.617 28.761,122.919 26.869,127.848 27.301,128.013 29.195,123.086 	"/>
	<polygon fill-rule="evenodd" clip-rule="evenodd" fill="#23346C" points="30.662,129.248 30.946,128.464 29.547,127.956 
		30.175,126.229 31.369,126.664 31.65,125.89 30.456,125.454 31.067,123.777 32.467,124.286 32.752,123.503 30.916,122.836 
		28.826,128.581 	"/>
	<path fill-rule="evenodd" clip-rule="evenodd" fill="#23346C" d="M35.323,128.737l-0.451-0.129
		c-0.241,0.573-0.561,0.928-0.887,0.836c-0.174-0.051-0.293-0.228-0.332-0.48c-0.054-0.355,0.01-0.702,0.348-1.883
		c0.339-1.179,0.469-1.508,0.703-1.78c0.167-0.194,0.36-0.282,0.535-0.231c0.326,0.094,0.406,0.562,0.305,1.177l0.454,0.131
		c0.231-1.203,0.01-1.954-0.53-2.109c-0.305-0.087-0.633,0.06-0.951,0.407c-0.454,0.495-0.637,1.147-0.961,2.277
		c-0.324,1.131-0.516,1.781-0.393,2.442c0.085,0.463,0.286,0.761,0.592,0.85C34.289,130.396,34.887,129.881,35.323,128.737"/>
	
		<rect x="33.605" y="127.61" transform="matrix(-0.2589 0.9659 -0.9659 -0.2589 169.6352 125.5259)" fill-rule="evenodd" clip-rule="evenodd" fill="#23346C" width="6.112" height="0.464"/>
	<path fill-rule="evenodd" clip-rule="evenodd" fill="#23346C" d="M39.787,127.297c-0.135,0.585-0.419,0.881-0.721,0.811
		l-0.669-0.155l0.432-1.866l0.669,0.155C39.798,126.311,39.922,126.712,39.787,127.297 M39.359,131.629l-0.077-2.793
		c0.376-0.108,0.761-0.592,0.958-1.444c0.233-1.012,0.043-1.822-0.523-1.953l-1.154-0.267l-1.375,5.955l0.451,0.105l0.579-2.509
		l0.564,0.13l0.048,2.655L39.359,131.629z"/>
	<path fill-rule="evenodd" clip-rule="evenodd" fill="#23346C" d="M42.595,130.414l-0.459-0.09c-0.19,0.594-0.478,0.975-0.811,0.91
		c-0.177-0.034-0.311-0.2-0.371-0.449c-0.087-0.349-0.052-0.699,0.182-1.905c0.234-1.205,0.335-1.545,0.544-1.836
		c0.149-0.208,0.336-0.311,0.512-0.276c0.333,0.064,0.454,0.525,0.408,1.145l0.463,0.09c0.127-1.217-0.159-1.946-0.711-2.053
		c-0.311-0.061-0.626,0.114-0.913,0.486c-0.41,0.534-0.535,1.199-0.759,2.355c-0.224,1.153-0.358,1.819-0.178,2.465
		c0.126,0.454,0.352,0.733,0.663,0.793C41.709,132.158,42.261,131.592,42.595,130.414"/>
	<path fill-rule="evenodd" clip-rule="evenodd" fill="#23346C" d="M45.591,130.674l0.634-4.002l-0.458-0.073l-0.628,3.96
		c-0.127,0.805-0.456,1.265-0.834,1.205c-0.376-0.06-0.543-0.598-0.416-1.404l0.628-3.959l-0.459-0.073l-0.633,4.002
		c-0.197,1.247,0.136,2.159,0.75,2.257C44.791,132.684,45.394,131.92,45.591,130.674"/>
	<path fill-rule="evenodd" clip-rule="evenodd" fill="#23346C" d="M52.164,131.669c0.046-0.521,0.003-0.965-0.138-1.269
		c-0.109-0.243-0.254-0.394-0.529-0.504l-0.338-0.131c-0.137-0.056-0.253-0.169-0.318-0.313c-0.068-0.152-0.085-0.351-0.065-0.575
		c0.047-0.538,0.28-0.93,0.639-0.9c0.257,0.022,0.464,0.153,0.621,0.528l0.346-0.555c-0.218-0.511-0.483-0.741-0.885-0.776
		c-0.632-0.055-1.08,0.638-1.173,1.699c-0.044,0.495-0.005,0.887,0.12,1.182c0.112,0.26,0.293,0.449,0.534,0.538l0.351,0.134
		c0.176,0.066,0.247,0.133,0.31,0.285c0.069,0.152,0.088,0.38,0.063,0.644c-0.049,0.59-0.31,0.913-0.709,0.878
		c-0.312-0.027-0.543-0.186-0.726-0.65l-0.361,0.581c0.239,0.615,0.549,0.857,1.008,0.897
		C51.55,133.416,52.066,132.79,52.164,131.669"/>
	<path fill-rule="evenodd" clip-rule="evenodd" fill="#23346C" d="M54.841,129.289c-0.035,0.644-0.273,0.999-0.595,0.983
		l-0.668-0.035l0.105-2.031l0.669,0.035C54.675,128.257,54.874,128.646,54.841,129.289 M55.304,129.313
		c0.056-1.062-0.285-1.871-0.88-1.903l-1.158-0.061l-0.32,6.103l0.463,0.026l0.126-2.401l0.694,0.036
		C54.825,131.145,55.247,130.375,55.304,129.313"/>
	
		<rect x="53.187" y="130.246" transform="matrix(-0.0174 0.9998 -0.9998 -0.0174 187.6827 76.5198)" fill-rule="evenodd" clip-rule="evenodd" fill="#23346C" width="6.112" height="0.463"/>
	<path fill-rule="evenodd" clip-rule="evenodd" fill="#23346C" d="M59.567,131.714h-0.467c-0.075,0.619-0.283,1.048-0.623,1.048
		c-0.179,0-0.343-0.136-0.45-0.369c-0.151-0.326-0.185-0.679-0.185-1.906c0-1.227,0.034-1.58,0.185-1.905
		c0.107-0.233,0.27-0.37,0.45-0.37c0.34,0,0.545,0.43,0.619,1.048h0.471c-0.107-1.218-0.528-1.88-1.09-1.88
		c-0.317,0-0.592,0.233-0.802,0.653c-0.301,0.603-0.296,1.281-0.296,2.455c0,1.177-0.005,1.855,0.296,2.456
		c0.211,0.42,0.485,0.653,0.802,0.653C59.03,133.596,59.465,132.935,59.567,131.714"/>
	
		<rect x="57.552" y="130.214" transform="matrix(0.0348 0.9994 -0.9994 0.0348 188.8686 65.3394)" fill-rule="evenodd" clip-rule="evenodd" fill="#23346C" width="6.112" height="0.465"/>
	<polygon fill-rule="evenodd" clip-rule="evenodd" fill="#23346C" points="63.936,133.341 63.894,132.509 62.406,132.588 
		62.311,130.752 63.579,130.686 63.536,129.863 62.268,129.929 62.173,128.147 63.661,128.069 63.618,127.237 61.666,127.34 
		61.988,133.444 	"/>
	<polygon fill-rule="evenodd" clip-rule="evenodd" fill="#23346C" points="67.183,133.052 66.651,126.964 66.189,127.005 
		66.563,131.28 64.782,127.128 64.358,127.165 64.891,133.253 65.354,133.212 64.978,128.928 66.762,133.089 	"/>
	<path fill-rule="evenodd" clip-rule="evenodd" fill="#23346C" d="M69.567,129.612c0.118,0.832,0.205,1.489,0.096,1.859
		c-0.087,0.298-0.239,0.45-0.456,0.48l-0.556,0.078l-0.619-4.402l0.557-0.078c0.216-0.031,0.404,0.071,0.571,0.335
		C69.366,128.211,69.45,128.78,69.567,129.612 M70.027,129.547c-0.124-0.875-0.226-1.762-0.646-2.37
		c-0.245-0.356-0.548-0.503-0.862-0.46l-1.062,0.151l0.85,6.051l1.063-0.148c0.316-0.044,0.565-0.272,0.703-0.68
		C70.307,131.389,70.15,130.423,70.027,129.547"/>
	
		<rect x="68.102" y="129.19" transform="matrix(0.1565 0.9877 -0.9877 0.1565 187.8497 38.8895)" fill-rule="evenodd" clip-rule="evenodd" fill="#23346C" width="6.11" height="0.463"/>
	<polygon fill-rule="evenodd" clip-rule="evenodd" fill="#23346C" points="76.052,131.638 75.893,130.82 74.449,131.101 
		73.44,125.919 72.986,126.007 74.152,132.007 	"/>
	
		<rect x="73.353" y="128.162" transform="matrix(0.2251 0.9743 -0.9743 0.2251 184.3102 25.0475)" fill-rule="evenodd" clip-rule="evenodd" fill="#23346C" width="6.111" height="0.464"/>
	<path fill-rule="evenodd" clip-rule="evenodd" fill="#23346C" d="M79.551,128.999c0.131,0.524,0.051,0.95-0.261,1.03l-0.707,0.176
		l-0.451-1.807l0.708-0.177C79.152,128.144,79.42,128.473,79.551,128.999 M78.868,126.453c0.137,0.55,0.016,0.9-0.271,0.97
		l-0.667,0.166l-0.423-1.699l0.665-0.166C78.459,125.653,78.731,125.904,78.868,126.453 M80.011,128.928
		c-0.188-0.75-0.514-1.137-0.789-1.262c0.161-0.208,0.246-0.716,0.086-1.359c-0.248-0.998-0.75-1.538-1.3-1.4l-1.153,0.287
		l1.479,5.93l1.199-0.299C80.059,130.694,80.283,130.018,80.011,128.928"/>
	<polygon fill-rule="evenodd" clip-rule="evenodd" fill="#23346C" points="83.268,129.781 83.038,128.98 81.606,129.391 
		81.101,127.624 82.321,127.275 82.095,126.483 80.872,126.832 80.381,125.116 81.812,124.707 81.583,123.906 79.706,124.444 
		81.391,130.318 	"/>
	<path fill-rule="evenodd" clip-rule="evenodd" fill="#23346C" d="M84.43,124.876c0.187,0.571,0.096,0.97-0.199,1.066l-0.653,0.212
		l-0.592-1.82l0.653-0.212C83.934,124.025,84.246,124.304,84.43,124.876 M86.297,128.809l-1.506-2.354
		c0.269-0.283,0.349-0.897,0.079-1.731c-0.321-0.988-0.902-1.585-1.454-1.405l-1.127,0.367l1.889,5.812l0.44-0.142l-0.796-2.45
		l0.553-0.179l1.407,2.25L86.297,128.809z"/>
	<polygon fill-rule="evenodd" clip-rule="evenodd" fill="#23346C" points="87.088,122.909 86.804,122.126 84.787,122.861 
		85.073,123.642 85.862,123.355 87.668,128.316 88.102,128.157 86.298,123.196 	"/>
	<path fill-rule="evenodd" clip-rule="evenodd" fill="#23346C" d="M89.966,125.254l-0.872,0.351l-0.575-2.694L89.966,125.254z
		 M91.494,126.812l-3.329-5.247l-0.347,0.14l1.253,6.086l0.456-0.185l-0.265-1.217l1.119-0.451l0.655,1.058L91.494,126.812z"/>
	<path fill-rule="evenodd" clip-rule="evenodd" fill="#23346C" d="M93.204,124.123c-0.222-0.475-0.48-0.837-0.756-1.032
		c-0.214-0.155-0.416-0.212-0.709-0.169l-0.359,0.053c-0.146,0.019-0.303-0.021-0.43-0.112c-0.136-0.099-0.251-0.263-0.344-0.465
		c-0.23-0.49-0.225-0.947,0.101-1.1c0.234-0.107,0.48-0.099,0.803,0.148l0.022-0.654c-0.445-0.333-0.788-0.4-1.154-0.23
		c-0.577,0.269-0.617,1.093-0.167,2.058c0.211,0.451,0.439,0.77,0.696,0.963c0.224,0.169,0.477,0.242,0.731,0.199l0.371-0.06
		c0.186-0.03,0.28-0.008,0.412,0.092c0.136,0.098,0.265,0.283,0.378,0.524c0.25,0.537,0.185,0.946-0.177,1.114
		c-0.283,0.134-0.564,0.113-0.953-0.198l-0.023,0.684c0.514,0.412,0.905,0.467,1.321,0.273
		C93.545,125.942,93.678,125.141,93.204,124.123"/>
	<polygon fill-rule="evenodd" clip-rule="evenodd" fill="#23346C" points="48.769,133.164 49.513,127.098 49.053,127.043 
		48.53,131.301 47.652,126.87 47.23,126.818 46.485,132.883 46.945,132.942 47.47,128.673 48.346,133.112 	"/>
	<path fill="#BFBEBE" d="M106.19,0H7.982v67.529c0,24.736,23.263,46.435,49.784,46.435c26.412,0,47.68-20.387,48.419-46.451
		c-0.342-16.851-0.003-66.266,0-66.763L106.19,0z M104.691,1.49c-0.023,3.472-0.115,18.419-0.141,33.76H9.471V1.49H104.691z
		 M9.471,67.529V36.74h46.917v75.699C31.239,111.705,9.471,91.042,9.471,67.529z M57.877,112.471V36.74h46.671
		c-0.016,11.993,0.011,24.008,0.148,30.768C103.982,92.686,83.426,112.414,57.877,112.471z"/>
</g>
</svg>
