<?xml version="1.0" encoding="utf-8"?>
<!-- Generator: Adobe Illustrator 17.0.0, SVG Export Plug-In . SVG Version: 6.00 Build 0)  -->
<!DOCTYPE svg PUBLIC "-//W3C//DTD SVG 1.1//EN" "http://www.w3.org/Graphics/SVG/1.1/DTD/svg11.dtd">
<svg version="1.1" id="Layer_1" xmlns="http://www.w3.org/2000/svg" xmlns:xlink="http://www.w3.org/1999/xlink" x="0px" y="0px"
	 width="108.615px" height="204.959px" viewBox="0 0 108.615 204.959" enable-background="new 0 0 108.615 204.959"
	 xml:space="preserve">
<g>
	<path fill="#23346C" d="M30.306,160.67c-1.009,0-1.933-0.375-2.624-1.066c-0.967-0.967-0.967-1.975-0.967-4.155
		c0-2.177,0-3.187,0.967-4.153c0.691-0.69,1.615-1.069,2.624-1.069c1.847,0,3.217,1.129,3.56,3.06h-1.123
		c-0.274-1.255-1.154-2.077-2.437-2.077c-0.678,0-1.328,0.261-1.772,0.721c-0.65,0.663-0.722,1.37-0.722,3.518
		s0.072,2.859,0.722,3.518c0.445,0.461,1.094,0.723,1.772,0.723c1.283,0,2.193-0.824,2.466-2.079h1.094
		C33.537,159.544,32.138,160.67,30.306,160.67"/>
	<path fill="#23346C" d="M42.08,159.604c-0.692,0.692-1.601,1.066-2.624,1.066c-1.025,0-1.932-0.374-2.626-1.066
		c-0.966-0.969-0.966-1.976-0.966-4.155c0-2.177,0-3.186,0.966-4.153c0.694-0.69,1.601-1.065,2.626-1.065
		c1.023,0,1.932,0.375,2.624,1.065c0.967,0.967,0.967,1.976,0.967,4.153C43.046,157.628,43.046,158.635,42.08,159.604
		 M41.229,151.947c-0.446-0.461-1.096-0.737-1.773-0.737c-0.679,0-1.328,0.275-1.775,0.737c-0.648,0.665-0.719,1.354-0.719,3.503
		s0.072,2.842,0.719,3.505c0.447,0.461,1.096,0.735,1.775,0.735c0.677,0,1.327-0.274,1.773-0.735
		c0.648-0.664,0.721-1.357,0.721-3.505S41.877,152.611,41.229,151.947"/>
	<polygon fill="#23346C" points="45.438,160.584 45.438,150.317 46.535,150.317 46.535,159.604 51.784,159.604 51.784,160.584 	"/>
	<path fill="#23346C" d="M53.739,160.584v-10.267h6.373v0.98h-5.278v3.62h4.498v0.98h-4.498v3.706h5.278v0.98H53.739z
		 M57.012,149.321H56.06l1.269-2.206h1.24L57.012,149.321z"/>
	<path fill="#23346C" d="M68.007,159.488c-0.721,0.78-1.687,1.184-2.74,1.184c-1.008,0-1.932-0.375-2.625-1.068
		c-0.966-0.967-0.966-1.976-0.966-4.153c0-2.18,0-3.187,0.966-4.153c0.693-0.691,1.602-1.066,2.625-1.066
		c1.961,0,3.289,1.268,3.592,3.07h-1.098c-0.287-1.298-1.211-2.091-2.494-2.091c-0.676,0-1.326,0.275-1.774,0.737
		c-0.648,0.664-0.72,1.354-0.72,3.504c0,2.148,0.072,2.855,0.72,3.517c0.448,0.461,1.098,0.723,1.774,0.723
		c0.75,0,1.471-0.304,1.948-0.881c0.417-0.504,0.576-1.068,0.576-1.86v-0.778h-2.523v-0.966h3.618v1.629
		C68.886,158.016,68.643,158.81,68.007,159.488"/>
	<rect x="71.241" y="150.317" fill="#23346C" width="1.096" height="10.267"/>
	<path fill="#23346C" d="M80.932,159.604c-0.692,0.692-1.6,1.066-2.625,1.066c-1.023,0-1.931-0.374-2.623-1.066
		c-0.967-0.969-0.967-1.976-0.967-4.155c0-2.177,0-3.186,0.967-4.153c0.691-0.69,1.6-1.065,2.623-1.065
		c1.025,0,1.933,0.375,2.625,1.065c0.967,0.967,0.967,1.976,0.967,4.153C81.899,157.628,81.899,158.635,80.932,159.604
		 M80.083,151.947c-0.448-0.461-1.097-0.737-1.776-0.737c-0.676,0-1.325,0.275-1.771,0.737c-0.65,0.665-0.723,1.354-0.723,3.503
		s0.073,2.842,0.723,3.505c0.446,0.461,1.096,0.735,1.771,0.735c0.679,0,1.328-0.274,1.776-0.735
		c0.648-0.664,0.721-1.357,0.721-3.505S80.731,152.611,80.083,151.947"/>
	<polygon fill="#23346C" points="24.142,195.586 24.142,199.364 28.64,199.364 28.64,200.346 24.142,200.346 24.142,204.873 
		23.046,204.873 23.046,194.605 29.419,194.605 29.419,195.586 	"/>
	<path fill="#23346C" d="M37.058,203.893c-0.692,0.692-1.6,1.066-2.624,1.066c-1.025,0-1.932-0.374-2.624-1.066
		c-0.968-0.966-0.968-1.976-0.968-4.155c0-2.176,0-3.185,0.968-4.152c0.692-0.692,1.599-1.068,2.624-1.068
		c1.024,0,1.932,0.375,2.624,1.068c0.967,0.967,0.967,1.976,0.967,4.152C38.025,201.917,38.025,202.927,37.058,203.893
		 M36.208,196.234c-0.447-0.46-1.095-0.733-1.774-0.733c-0.678,0-1.327,0.272-1.774,0.733c-0.649,0.666-0.721,1.357-0.721,3.504
		c0,2.15,0.072,2.842,0.721,3.507c0.447,0.461,1.096,0.734,1.774,0.734c0.679,0,1.326-0.272,1.774-0.734
		c0.649-0.665,0.722-1.357,0.722-3.507C36.93,197.591,36.856,196.9,36.208,196.234"/>
	<polygon fill="#23346C" points="48.119,204.874 48.119,197.073 45.307,203.258 44.369,203.258 41.514,197.073 41.514,204.874 
		40.418,204.874 40.418,194.605 41.514,194.605 44.861,201.888 48.119,194.605 49.215,194.605 49.215,204.874 	"/>
	<polygon fill="#23346C" points="51.909,204.874 51.909,194.605 58.282,194.605 58.282,195.586 53.005,195.586 53.005,199.205 
		57.505,199.205 57.505,200.187 53.005,200.187 53.005,203.892 58.282,203.892 58.282,204.874 	"/>
	<polygon fill="#23346C" points="66.961,204.874 61.51,196.64 61.51,204.874 60.415,204.874 60.415,194.605 61.451,194.605 
		66.902,202.812 66.902,194.605 67.998,194.605 67.998,204.874 	"/>
	<polygon fill="#23346C" points="74.028,195.586 74.028,204.873 72.932,204.873 72.932,195.586 69.959,195.586 69.959,194.605 
		76.997,194.605 76.997,195.586 	"/>
	<path fill="#23346C" d="M84.602,203.893c-0.693,0.692-1.6,1.066-2.625,1.066s-1.932-0.374-2.625-1.066
		c-0.967-0.966-0.967-1.976-0.967-4.155c0-2.176,0-3.185,0.967-4.152c0.692-0.692,1.6-1.068,2.625-1.068s1.932,0.375,2.625,1.068
		c0.966,0.967,0.966,1.976,0.966,4.152C85.568,201.917,85.568,202.927,84.602,203.893 M83.75,196.234
		c-0.446-0.46-1.096-0.733-1.773-0.733c-0.679,0-1.327,0.272-1.774,0.733c-0.648,0.666-0.721,1.357-0.721,3.504
		c0,2.15,0.072,2.842,0.721,3.507c0.447,0.461,1.096,0.734,1.774,0.734c0.677,0,1.326-0.272,1.773-0.734
		c0.649-0.665,0.722-1.357,0.722-3.507C84.473,197.591,84.4,196.9,83.75,196.234"/>
	<path fill="#23346C" d="M6.628,179.603H3.496v6.127H0.319v-16.274h6.309c3.359,0,5.371,2.307,5.371,5.075
		C11.998,177.296,9.987,179.603,6.628,179.603 M6.467,172.29h-2.97v4.458h2.97c1.44,0,2.354-0.893,2.354-2.217
		C8.821,173.204,7.906,172.29,6.467,172.29"/>
	<polygon fill="#23346C" points="14.234,185.729 14.234,169.455 17.411,169.455 17.411,182.895 24.793,182.895 24.793,185.729 	"/>
	<path fill="#23346C" d="M37.198,185.729l-0.96-2.88h-5.782l-0.982,2.88h-3.316l5.92-16.274h2.492l5.941,16.274H37.198z
		 M33.404,174.256l-2.058,5.92h4.046L33.404,174.256z"/>
	<polygon fill="#23346C" points="52.066,185.729 45.622,175.742 45.622,185.729 42.445,185.729 42.445,169.455 45.278,169.455 
		51.723,179.419 51.723,169.455 54.899,169.455 54.899,185.729 	"/>
	<path fill="#23346C" d="M67.872,185.729l-0.96-2.88H61.13l-0.984,2.88h-3.313l5.918-16.274h2.492l5.941,16.274H67.872z
		 M64.078,174.256l-2.058,5.92h4.045L64.078,174.256z"/>
	<polygon fill="#23346C" points="73.118,185.729 73.118,169.455 76.294,169.455 76.294,182.895 83.677,182.895 83.677,185.729 	"/>
	<polygon fill="#23346C" points="90.414,172.29 90.414,185.73 87.238,185.73 87.238,172.29 82.987,172.29 82.987,169.456 
		94.665,169.456 94.665,172.29 	"/>
	<path fill="#23346C" d="M106.672,184.082c-1.143,1.143-2.537,1.783-4.389,1.783c-1.851,0-3.268-0.64-4.411-1.783
		c-1.645-1.645-1.599-3.679-1.599-6.491c0-2.809-0.046-4.843,1.599-6.489c1.143-1.143,2.56-1.783,4.411-1.783
		c1.852,0,3.245,0.64,4.389,1.783c1.646,1.646,1.623,3.68,1.623,6.489C108.295,180.404,108.318,182.437,106.672,184.082
		 M104.318,173.021c-0.457-0.525-1.166-0.868-2.035-0.868c-0.868,0-1.599,0.343-2.056,0.868c-0.617,0.686-0.777,1.44-0.777,4.57
		c0,3.131,0.16,3.886,0.777,4.573c0.458,0.524,1.189,0.867,2.056,0.867c0.869,0,1.577-0.343,2.035-0.867
		c0.617-0.687,0.798-1.442,0.798-4.573C105.116,174.462,104.935,173.707,104.318,173.021"/>
	<path fill="#B99816" d="M18.758,125.592C8.591,121.599,1.566,116.884,0,114.878c-0.03-0.037,6.072,0.663,8.602-1.613
		c-1.179-5.561,0.062-9.034,0.062-9.034c1.83,1.937,7.474,5.474,15.378,8.497l-5.751,1.8L18.758,125.592z"/>
	<polygon fill-rule="evenodd" clip-rule="evenodd" fill="#88701E" points="18.21,114.531 23.938,112.677 20.065,119.42 	"/>
	<path fill="#B99816" d="M89.856,125.592c10.167-3.993,17.192-8.708,18.759-10.714c0.028-0.037-6.073,0.663-8.603-1.613
		c1.179-5.561-0.063-9.034-0.063-9.034c-1.828,1.937-7.473,5.474-15.377,8.497l5.752,1.8L89.856,125.592z"/>
	<polygon fill-rule="evenodd" clip-rule="evenodd" fill="#88701E" points="90.404,114.531 84.675,112.677 88.549,119.42 	"/>
	<path fill="#E7BE00" d="M54.346,137.481h-0.08c-21.872-0.061-40.272-8.456-43.222-11.406c-0.07-0.069,7.302-11.623,7.302-11.623
		c3.474,2.877,18.371,8.974,35.92,9.031h0.08c17.551-0.057,32.447-6.154,35.921-9.031c0,0,7.371,11.554,7.303,11.623
		C94.62,129.024,76.219,137.421,54.346,137.481"/>
	<path fill-rule="evenodd" clip-rule="evenodd" fill="#23346C" d="M33.221,129.555c0.136-0.507,0.171-0.952,0.083-1.28
		c-0.064-0.257-0.182-0.43-0.434-0.587l-0.31-0.19c-0.126-0.08-0.22-0.211-0.258-0.364c-0.042-0.163-0.023-0.362,0.033-0.579
		c0.141-0.524,0.439-0.872,0.788-0.777c0.25,0.065,0.433,0.231,0.522,0.628l0.438-0.488c-0.126-0.541-0.347-0.815-0.738-0.92
		c-0.614-0.164-1.178,0.442-1.455,1.473c-0.128,0.481-0.158,0.875-0.086,1.188c0.064,0.276,0.211,0.494,0.435,0.624l0.321,0.194
		c0.161,0.095,0.221,0.173,0.258,0.335c0.04,0.163,0.02,0.39-0.048,0.647c-0.154,0.575-0.468,0.847-0.854,0.743
		c-0.304-0.082-0.505-0.279-0.605-0.769l-0.457,0.511c0.128,0.649,0.393,0.942,0.837,1.062
		C32.311,131.173,32.929,130.643,33.221,129.555"/>
	<path fill-rule="evenodd" clip-rule="evenodd" fill="#23346C" d="M36.799,130.075l0.913-3.959l-0.452-0.103l-0.905,3.916
		c-0.183,0.795-0.546,1.233-0.918,1.147c-0.373-0.086-0.502-0.637-0.317-1.434l0.903-3.916l-0.453-0.104l-0.914,3.958
		c-0.285,1.233-0.016,2.17,0.593,2.31C35.857,132.032,36.514,131.307,36.799,130.075"/>
	<path fill-rule="evenodd" clip-rule="evenodd" fill="#23346C" d="M40.296,128.434c-0.104,0.593-0.373,0.903-0.678,0.85l-0.678-0.12
		l0.333-1.89l0.678,0.119C40.257,127.447,40.401,127.841,40.296,128.434 M40.096,132.793l-0.224-2.791
		c0.371-0.128,0.731-0.632,0.884-1.497c0.181-1.026-0.054-1.828-0.626-1.928l-1.169-0.206l-1.065,6.034l0.459,0.081l0.449-2.542
		l0.571,0.1l0.188,2.655L40.096,132.793z"/>
	<path fill-rule="evenodd" clip-rule="evenodd" fill="#23346C" d="M43.94,130.959l0.13-0.929l-1.108-0.155l-0.11,0.785l0.648,0.09
		l-0.048,0.34c-0.055,0.394-0.141,0.693-0.288,0.933c-0.158,0.257-0.355,0.385-0.555,0.357c-0.179-0.025-0.321-0.185-0.395-0.43
		c-0.104-0.344-0.089-0.697,0.082-1.918c0.172-1.219,0.254-1.554,0.449-1.856c0.139-0.216,0.321-0.339,0.5-0.313
		c0.341,0.048,0.508,0.471,0.49,1.147l0.465,0.065c0.061-1.052-0.196-1.949-0.839-2.039c-0.325-0.046-0.619,0.147-0.888,0.536
		c-0.381,0.554-0.471,1.228-0.636,2.396c-0.164,1.167-0.263,1.839-0.049,2.478c0.151,0.447,0.391,0.716,0.707,0.76
		c0.319,0.046,0.634-0.12,0.932-0.572C43.686,132.235,43.83,131.742,43.94,130.959"/>
	<polygon fill-rule="evenodd" clip-rule="evenodd" fill="#23346C" points="47.109,133.621 47.182,132.788 45.695,132.659 
		45.854,130.825 47.123,130.935 47.195,130.112 45.926,129.999 46.082,128.216 47.57,128.348 47.643,127.516 45.693,127.345 
		45.157,133.449 	"/>
	<path fill-rule="evenodd" clip-rule="evenodd" fill="#23346C" d="M52.718,131.845l0.141-4.061l-0.464-0.016l-0.141,4.016
		c-0.027,0.817-0.299,1.315-0.682,1.302c-0.383-0.013-0.614-0.531-0.586-1.347l0.14-4.018l-0.464-0.016l-0.142,4.059
		c-0.044,1.265,0.4,2.134,1.023,2.155C52.167,133.943,52.675,133.108,52.718,131.845"/>
	<polygon fill-rule="evenodd" clip-rule="evenodd" fill="#23346C" points="56.154,128.601 56.154,127.765 54.002,127.765 
		54.002,128.601 54.846,128.601 54.846,133.893 55.31,133.893 55.31,128.601 	"/>
	<path fill-rule="evenodd" clip-rule="evenodd" fill="#23346C" d="M60.699,131.631l-0.942,0.065l0.288-2.747L60.699,131.631z
		 M61.671,133.589l-1.548-6.033l-0.373,0.025l-0.693,6.192l0.494-0.035l0.123-1.244l1.207-0.083l0.297,1.214L61.671,133.589z"/>
	<path fill-rule="evenodd" clip-rule="evenodd" fill="#23346C" d="M64.211,130.278c0.083,0.787,0.113,1.199,0.068,1.517
		l-0.357-0.562l-0.203,0.541l0.389,0.607c-0.076,0.139-0.176,0.218-0.291,0.231c-0.18,0.018-0.362-0.109-0.494-0.329
		c-0.183-0.309-0.25-0.65-0.377-1.873c-0.13-1.224-0.135-1.57-0.019-1.911c0.083-0.242,0.234-0.404,0.413-0.424
		c0.181-0.018,0.362,0.109,0.494,0.33C64.018,128.715,64.082,129.054,64.211,130.278 M65.072,133.026l-0.362-0.559
		c0.143-0.568,0.073-1.202-0.036-2.238c-0.124-1.172-0.187-1.849-0.549-2.416c-0.253-0.398-0.547-0.601-0.872-0.567
		c-0.326,0.034-0.566,0.293-0.731,0.734c-0.237,0.631-0.162,1.308-0.038,2.479c0.123,1.172,0.188,1.85,0.551,2.417
		c0.254,0.398,0.543,0.601,0.868,0.566c0.241-0.025,0.448-0.184,0.598-0.451l0.368,0.575L65.072,133.026z"/>
	<path fill-rule="evenodd" clip-rule="evenodd" fill="#23346C" d="M68.351,130.707l-0.565-4.024l-0.46,0.064l0.559,3.981
		c0.114,0.809-0.066,1.348-0.446,1.401c-0.38,0.053-0.697-0.415-0.811-1.225l-0.56-3.978l-0.46,0.064l0.566,4.023
		c0.175,1.253,0.763,2.03,1.381,1.944C68.173,132.869,68.527,131.959,68.351,130.707"/>
	
		<rect x="66.811" y="129.155" transform="matrix(0.1911 0.9816 -0.9816 0.1911 183.5285 36.0793)" fill-rule="evenodd" clip-rule="evenodd" fill="#23346C" width="6.128" height="0.464"/>
	<polygon fill-rule="evenodd" clip-rule="evenodd" fill="#23346C" points="74.222,131.583 74.034,130.769 72.595,131.101 
		71.405,125.944 70.953,126.048 72.331,132.02 	"/>
	<path fill-rule="evenodd" clip-rule="evenodd" fill="#23346C" d="M76.419,128.99l-0.909,0.244l-0.243-2.75L76.419,128.99z
		 M77.749,130.728l-2.67-5.629l-0.362,0.098l0.501,6.209l0.477-0.128l-0.114-1.244l1.167-0.314l0.523,1.135L77.749,130.728z"/>
	<g>
		<g>
			<path fill-rule="evenodd" clip-rule="evenodd" fill="#E30613" d="M4.893,52.811h48.876v60.674h-4.611
				c0,0-17.615-2.25-30.424-14.87C5.923,85.996,4.893,69.22,4.893,69.22V52.811z"/>
		</g>
		<rect x="5.488" y="0.634" fill="#D8B300" width="48.13" height="51.639"/>
		<g>
			<defs>
				<rect id="SVGID_1_" x="5.488" y="0.634" width="48.129" height="51.639"/>
			</defs>
			<clipPath id="SVGID_2_">
				<use xlink:href="#SVGID_1_"  overflow="visible"/>
			</clipPath>
			<path clip-path="url(#SVGID_2_)" fill="#23346C" d="M35.415,9.461v3.829c0,0-1.47,0.595-2.593-0.246
				c-1.125-0.841-2.695-0.051-2.695-0.051V8.979c0,0,1.902-0.113,2.743,0.53C33.713,10.152,35.415,9.461,35.415,9.461 M8.211,26.472
				c0,0,0.296,0.628,2.99-0.197c2.692-0.829,1.781-1.224,3.78-1.57c1.352-0.235,2.545,0.197,2.545,0.197s2.314-1.545,3.485,0.149
				c0.776,1.124,0.926,3.039,0.926,3.039s-1.04-1.073-1.867-1.37c-0.827-0.297-0.961,3.385-3.371,3.483l-0.084,1.434l1.702-0.013
				c0,0,2.975,4.583,10.056,4.878l0.45-19.01c-0.577,0.016-1.049,0.175-1.375,0.385c-1.324,0.849-2.565,1.326-4.344,0.021
				c-1.424-1.045-2.904-0.185-3.39,0.111c-0.777,0.471-2.399,1.251-3.424,0.465c-1.026-0.786-0.728-3.676-0.728-3.676
				c0.571,0.321,6.843,0.457,13.313,0.519l0.165-6.962l0.445-0.035l0.111,7.004c6.947,0.06,13.888,0.037,14.045,0.064
				c0,0,0.23,1.349-0.347,2.073c-0.579,0.722-1.751,2.06-4.349,0.679c-2.214-1.176-2.833-0.845-4.021-0.237
				c-1.167,0.595-1.515,1.283-4.13,0.04c-0.408-0.193-0.797-0.317-1.16-0.385l0.303,18.937c7.039-0.343,10.631-4.87,10.631-4.87
				l1.489,0.025l-0.076-1.291c-2.41-0.1-2.544-3.782-3.371-3.485c-0.826,0.296-1.866,1.37-1.866,1.37s0.149-1.914,0.926-3.039
				c1.171-1.693,3.485-0.149,3.485-0.149s1.193-0.431,2.545-0.197c2,0.345,1.088,0.742,3.781,1.568
				c2.693,0.827,2.988,0.198,2.988,0.198l-0.196,0.594c-0.877,1.236-3.535,0.924-3.535,0.924l3.336,1.916l-2.064,1.47
				c0,0-0.729-1.421-1.803-1.817c-1.074-0.395-3.039,0.693-3.039,0.693l-0.038,1.258l3.616,0.059l0.048,1.37h-2.261
				c0,0-0.976,11.464-15.047,11.464c-14.073,0-15.64-11.216-15.64-11.216H11.35v-1.669l4.205-0.029l-0.042-1.391
				c0,0-1.965-1.089-3.039-0.692c-1.075,0.394-1.802,1.816-1.802,1.816l-2.064-1.47l3.336-1.915c0,0-2.657,0.31-3.533-0.927
				L8.211,26.472z M19.259,25.471c0,0.254,0.203,0.458,0.455,0.458c0.252,0,0.456-0.203,0.456-0.458
				c0-0.251-0.203-0.455-0.456-0.455C19.463,25.016,19.259,25.219,19.259,25.471 M39.422,25.626c0-0.252-0.204-0.456-0.456-0.456
				s-0.456,0.205-0.456,0.456c0,0.251,0.205,0.455,0.456,0.455S39.422,25.877,39.422,25.626"/>
			<path clip-path="url(#SVGID_2_)" fill-rule="evenodd" clip-rule="evenodd" fill="#23346C" d="M53.403,45.718
				c-2.287-1.281-4.01-0.664-5.749,0.64c-1.977,1.482-4.3,2.55-7.812,0.236c-3.511-2.313-5.079-1.163-7.017,0.125
				c-1.938,1.287-4.033,2.147-7.134,0.124c-3.103-2.023-4.716-1.62-7.33-0.082c-2.615,1.536-4.151,1.775-7.578,0
				c-5.479-2.839-8.575,1.515-9.163,1.414l0.659-3.921c0,0,3.312-3.902,8.232-1.291c4.191,2.225,5.364,1.602,7.614,0.452
				c2.208-1.128,2.867-2.431,7.819-0.078c2.771,1.317,5.105,0.915,6.335,0.125c2.504-1.607,4.856-2.512,8.222-0.042
				c2.698,1.981,5.497,0.351,6.419-0.207c1.469-0.892,3.497-2.545,6.483-0.882V45.718z"/>
		</g>
		<g>
			<rect x="54.347" y="0.77" fill="#E30613" width="47.531" height="51.64"/>
			<path fill-rule="evenodd" clip-rule="evenodd" fill="#23346C" d="M102.082,52.41H53.204v61.79l6.32-0.716
				c0,0,15.908-1.534,28.716-14.152c12.812-12.621,13.841-29.397,13.841-29.397V52.41z"/>
		</g>
		<g>
			<defs>
				<path id="SVGID_3_" d="M53.204,52.41v61.791l6.32-0.717c0,0,15.908-1.534,28.716-14.153
					c12.812-12.619,13.841-29.396,13.841-29.396V52.41H53.204z"/>
			</defs>
			<clipPath id="SVGID_4_">
				<use xlink:href="#SVGID_3_"  overflow="visible"/>
			</clipPath>
			<polygon clip-path="url(#SVGID_4_)" fill="#FFFFFF" points="103.339,88.165 61.04,45.885 46.674,60.25 88.973,102.529 			"/>
		</g>
		<g>
			<rect x="4.893" y="51.756" fill="#BFBEBE" width="97.089" height="1.494"/>
		</g>
		<polygon fill="#E30613" points="71.409,59.618 71.409,63.392 71.409,67.168 69.512,65.281 69.444,65.213 66.358,65.213 
			66.358,68.281 66.434,68.358 68.321,70.255 66.358,70.255 64.546,70.255 62.783,70.255 60.772,70.255 62.659,68.358 
			62.783,68.235 62.783,65.213 59.641,65.213 59.572,65.281 57.676,67.168 57.676,65.213 57.676,63.392 57.676,61.573 
			57.676,59.618 59.572,61.506 59.641,61.573 62.783,61.573 62.783,58.533 62.659,58.408 60.772,56.51 64.546,56.51 68.321,56.51 
			66.434,58.408 66.358,58.485 66.358,61.573 69.444,61.573 69.512,61.506 		"/>
		<polygon fill="#FFFFFF" points="64.259,58.39 64.825,58.39 64.825,63.101 69.535,63.101 69.535,63.667 64.825,63.667 
			64.825,68.378 64.259,68.378 64.259,63.667 59.549,63.667 59.549,63.101 64.259,63.101 		"/>
		<polygon fill="#E30613" points="82.498,70.611 82.498,74.386 82.498,78.161 80.602,76.275 80.534,76.206 77.448,76.206 
			77.448,79.276 77.524,79.353 79.411,81.25 77.448,81.25 75.636,81.25 73.873,81.25 71.861,81.25 73.748,79.353 73.873,79.229 
			73.873,76.206 70.73,76.206 70.661,76.275 68.765,78.161 68.765,76.206 68.765,74.386 68.765,72.568 68.765,70.611 70.661,72.499 
			70.73,72.568 73.873,72.568 73.873,69.526 73.748,69.403 71.861,67.506 75.636,67.506 79.411,67.506 77.524,69.403 77.448,69.478 
			77.448,72.568 80.534,72.568 80.602,72.499 		"/>
		<polygon fill="#FFFFFF" points="75.349,69.384 75.914,69.384 75.914,74.094 80.624,74.094 80.624,74.66 75.914,74.66 
			75.914,79.372 75.349,79.372 75.349,74.66 70.64,74.66 70.64,74.094 75.349,74.094 		"/>
		<polygon fill="#E30613" points="93.565,81.672 93.565,85.447 93.565,89.222 91.669,87.335 91.599,87.267 88.514,87.267 
			88.514,90.338 88.589,90.414 90.477,92.31 88.514,92.31 86.702,92.31 84.939,92.31 82.927,92.31 84.814,90.414 84.939,90.289 
			84.939,87.267 81.797,87.267 81.727,87.335 79.831,89.222 79.831,87.267 79.831,85.447 79.831,83.627 79.831,81.672 
			81.727,83.561 81.797,83.627 84.939,83.627 84.939,80.587 84.814,80.463 82.927,78.567 86.702,78.567 90.477,78.567 
			88.589,80.463 88.514,80.539 88.514,83.627 91.599,83.627 91.669,83.561 		"/>
		<polygon fill="#FFFFFF" points="86.416,80.445 86.981,80.445 86.981,85.155 91.691,85.155 91.691,85.721 86.981,85.721 
			86.981,90.431 86.416,90.431 86.416,85.721 81.705,85.721 81.705,85.155 86.416,85.155 		"/>
		<g>
			<rect x="52.874" y="1.171" fill="#BFBEBE" width="1.493" height="112.292"/>
		</g>
		<path fill="#D8B300" d="M32.399,65.182c-0.316,1.871,1.251,1.859,1.251,1.859s0.908-3.311,5.574-4.742
			c4.666-1.43,7.827-6.321,7.827-6.321s1.399,3.975-3.417,6.297c0,0,2.47-0.195,3.527-1.328c0,0,0.919,2.044-3.835,4.242
			c0,0,2.567-0.06,3.733-1.227c0.154-0.153-0.05,2.606-3.985,3.628c0,0,1.875,0.197,3.379-0.475c0,0,0.374,1.58-3.696,2.489
			c0,0,2.713-0.15,4.07,1.207c0,0-1.412,1.283-3.881,1.362c0.941,0.046,2.695,0.283,3.656,1.348c0,0-0.882,0.954-3.572,0.983
			c0.45,0.017,2.056,0.245,3.273,2.552c0,0-0.608,0.524-3.395-0.224c0,0,2.04,1.057,2.264,2.189c0,0-1.667,0.139-2.488-0.459
			c0,0,1.132,0.982,1.431,2.413c0,0-2.104-1.356-3.384-1.504c0,0,0.735,0.757,0.896,2.263c0,0-1.815-0.385-2.936-1.815
			c0,0-0.513,0.448,0.308,1.43c0,0-1.579,0.298-2.413-0.374c0,0-0.821,0.598,2.339,1.507c0,0-0.598,0.449-1.431,0.373l3.684,2.713
			c0,0,1.691,0.777,3.994-0.449c1.041-0.554,2.33,0.184,2.704,0.867c0,0-1.474-0.869-2.606,0.103c0,0,2.764-0.126,2.838,1.219
			c0,0-2.838-0.86-5.085,0.212c-1.223,0.583-2.219,1.902-1.994,4.156c0,0-1.528,0.398-0.919-1.855
			c0.609-2.253,0.919-2.439-0.587-3.719c-1.506-1.283-2.413-1.805-2.711-1.283c-0.299,0.524-0.15,1.357,0,1.73
			c0,0-2.563-5.957-3.994-5.2c-1.431,0.759,0.982,3.384,2.114,2.861c0,0-0.235,1.506-1.965,1.281c0,0,0.448,2.253,2.938,1.656
			c0,0-1.283,2.275-3.086,1.666c0,0,0.085,2.563,3.545,1.804c0,0-1.42,3.546-4.592,1.058c0,0,0.344,3.591-1.021,3.887
			c-0.1,0.035-0.183,0.034-0.231,0.029c-0.049,0.005-0.131,0.007-0.231-0.029c-1.364-0.296-1.021-3.887-1.021-3.887
			c-3.172,2.487-4.592-1.058-4.592-1.058c3.46,0.759,3.546-1.804,3.546-1.804c-1.805,0.609-3.087-1.666-3.087-1.666
			c2.489,0.597,2.937-1.656,2.937-1.656c-1.729,0.224-1.965-1.281-1.965-1.281c1.132,0.523,3.546-2.103,2.115-2.861
			c-1.431-0.757-3.994,5.2-3.994,5.2c0.15-0.373,0.299-1.206,0-1.73c-0.299-0.523-1.207,0-2.712,1.283
			c-1.506,1.28-1.197,1.467-0.587,3.719c0.609,2.253-0.919,1.855-0.919,1.855c0.224-2.254-0.769-3.573-1.994-4.156
			c-2.247-1.073-5.086-0.212-5.086-0.212c0.075-1.345,2.838-1.219,2.838-1.219c-1.131-0.972-2.606-0.103-2.606-0.103
			c0.373-0.683,1.663-1.421,2.705-0.867c2.302,1.225,3.993,0.449,3.993,0.449l3.684-2.713c-0.833,0.076-1.431-0.373-1.431-0.373
			c3.16-0.909,2.338-1.507,2.338-1.507c-0.832,0.673-2.413,0.374-2.413,0.374c0.822-0.982,0.31-1.43,0.31-1.43
			c-1.122,1.43-2.938,1.815-2.938,1.815c0.161-1.506,0.898-2.263,0.898-2.263c-1.282,0.149-3.385,1.504-3.385,1.504
			c0.299-1.431,1.431-2.413,1.431-2.413c-0.823,0.598-2.487,0.459-2.487,0.459c0.223-1.132,2.264-2.189,2.264-2.189
			c-2.787,0.748-3.397,0.224-3.397,0.224c1.218-2.307,2.821-2.535,3.273-2.552c-2.691-0.029-3.572-0.983-3.572-0.983
			c0.96-1.065,2.715-1.302,3.655-1.348c-2.469-0.08-3.88-1.362-3.88-1.362c1.356-1.357,4.069-1.207,4.069-1.207
			c-4.069-0.909-3.696-2.489-3.696-2.489c1.506,0.671,3.38,0.475,3.38,0.475c-3.934-1.022-4.138-3.78-3.985-3.628
			c1.165,1.167,3.731,1.227,3.731,1.227c-4.752-2.198-3.834-4.242-3.834-4.242c1.058,1.133,3.528,1.328,3.528,1.328
			c-4.817-2.323-3.417-6.297-3.417-6.297s3.16,4.891,7.827,6.321c4.667,1.431,5.575,4.742,5.575,4.742s1.326-0.31,1.147-1.863
			c-0.179-1.55-0.281-1.345-0.281-1.345h-0.411c-2.043,0.052-2.093-1.021-2.093-1.021s1.688,0.356,2.093,0.103
			c0.408-0.254,0.359-0.768-0.102-1.075c-0.632-0.424-2.554,0.716-2.554,0.716c-0.154-2.912,2.961-2.864,3.934-2.35
			c0.973,0.511,1.739,0.459,1.789-0.153c0.069-0.82-1.431-0.512-2.094-0.512c-0.662,0-1.491-0.735-0.205-1.482
			c0.971-0.563,2.606,0.102,4.293,0.663c1.687,0.559,1.735-0.714,1.735-0.714c0.919,1.584-0.458,2.657-0.458,2.657
			c1.024-0.511,2.193,0.919,1.89,0.97C35.766,61.684,32.956,61.878,32.399,65.182 M42.947,72.173
			c-0.388-0.02-0.637-0.008-0.637-0.008C42.529,72.177,42.742,72.179,42.947,72.173 M43.031,74.504c-0.079-0.004-0.123,0-0.123,0
			H43.031z M18.007,74.504h0.123C18.13,74.504,18.086,74.499,18.007,74.504 M18.09,72.173c0.205,0.007,0.418,0.004,0.637-0.008
			C18.727,72.165,18.477,72.153,18.09,72.173"/>
		<path fill="#FFFFFF" d="M34.06,69.803c0,0-0.025,3.642,0,4.891c-0.055,1.953-1.647,3.346-3.491,3.346
			c-1.824,0-3.593-1.472-3.593-3.346v-4.891H34.06z"/>
		<polygon fill="#E30613" points="32.972,72.04 32.972,73.389 32.972,74.738 32.295,74.063 32.27,74.038 31.167,74.038 
			31.167,75.136 31.195,75.163 31.869,75.841 31.167,75.841 30.52,75.841 29.889,75.841 29.171,75.841 29.845,75.163 29.889,75.117 
			29.889,74.038 28.767,74.038 28.743,74.063 28.065,74.738 28.065,74.038 28.065,73.389 28.065,72.737 28.065,72.04 28.743,72.714 
			28.767,72.737 29.889,72.737 29.889,71.654 29.845,71.607 29.171,70.93 30.52,70.93 31.869,70.93 31.195,71.607 31.167,71.634 
			31.167,72.737 32.27,72.737 32.295,72.714 		"/>
		<polygon fill="#FFFFFF" points="30.417,71.6 30.62,71.6 30.62,73.283 32.302,73.283 32.302,73.487 30.62,73.487 30.62,75.17 
			30.417,75.17 30.417,73.487 28.735,73.487 28.735,73.283 30.417,73.283 		"/>
		<path fill="#D8B300" d="M79.588,17.36c-0.315,1.872,1.252,1.858,1.252,1.858s0.907-3.31,5.573-4.741
			c4.667-1.43,7.827-6.32,7.827-6.32s1.399,3.975-3.416,6.298c0,0,2.469-0.197,3.526-1.33c0,0,0.919,2.044-3.835,4.242
			c0,0,2.568-0.059,3.733-1.225c0.154-0.154-0.051,2.605-3.985,3.628c0,0,1.873,0.197,3.38-0.476c0,0,0.373,1.58-3.696,2.487
			c0,0,2.713-0.149,4.069,1.207c0,0-1.411,1.283-3.88,1.364c0.942,0.047,2.695,0.282,3.656,1.35c0,0-0.881,0.952-3.571,0.98
			c0.45,0.017,2.054,0.245,3.272,2.552c0,0-0.608,0.524-3.395-0.223c0,0,2.039,1.057,2.264,2.189c0,0-1.667,0.138-2.488-0.459
			c0,0,1.133,0.982,1.431,2.413c0,0-2.104-1.356-3.385-1.506c0,0,0.737,0.759,0.897,2.264c0,0-1.816-0.385-2.937-1.816
			c0,0-0.512,0.449,0.31,1.431c0,0-1.579,0.298-2.414-0.374c0,0-0.822,0.598,2.339,1.504c0,0-0.598,0.45-1.431,0.374l3.683,2.713
			c0,0,1.692,0.777,3.995-0.449c1.041-0.555,2.329,0.184,2.704,0.867c0,0-1.473-0.868-2.606,0.103c0,0,2.764-0.125,2.838,1.22
			c0,0-2.838-0.862-5.086,0.211c-1.223,0.584-2.219,1.903-1.993,4.156c0,0-1.528,0.398-0.92-1.855
			c0.609-2.251,0.92-2.439-0.587-3.719c-1.506-1.281-2.413-1.805-2.713-1.281c-0.298,0.523-0.149,1.356,0,1.73
			c0,0-2.562-5.96-3.992-5.2c-1.431,0.757,0.982,3.384,2.114,2.861c0,0-0.235,1.504-1.966,1.28c0,0,0.448,2.254,2.938,1.656
			c0,0-1.283,2.276-3.086,1.666c0,0,0.086,2.563,3.545,1.805c0,0-1.42,3.544-4.592,1.057c0,0,0.343,3.593-1.021,3.889
			c-0.101,0.034-0.184,0.033-0.231,0.029c-0.049,0.004-0.132,0.005-0.232-0.029c-1.364-0.296-1.021-3.889-1.021-3.889
			c-3.172,2.487-4.592-1.057-4.592-1.057c3.46,0.757,3.546-1.805,3.546-1.805c-1.805,0.61-3.086-1.666-3.086-1.666
			c2.489,0.598,2.936-1.656,2.936-1.656c-1.729,0.224-1.965-1.28-1.965-1.28c1.133,0.523,3.547-2.104,2.115-2.861
			c-1.431-0.76-3.994,5.2-3.994,5.2c0.15-0.374,0.299-1.207,0-1.73c-0.298-0.524-1.206,0-2.712,1.281
			c-1.506,1.28-1.196,1.468-0.586,3.719c0.609,2.253-0.92,1.855-0.92,1.855c0.223-2.253-0.769-3.572-1.994-4.156
			c-2.247-1.073-5.086-0.211-5.086-0.211c0.075-1.345,2.839-1.22,2.839-1.22c-1.132-0.971-2.606-0.103-2.606-0.103
			c0.373-0.683,1.663-1.422,2.704-0.867c2.303,1.225,3.994,0.449,3.994,0.449l3.684-2.713c-0.833,0.076-1.432-0.374-1.432-0.374
			c3.162-0.906,2.339-1.504,2.339-1.504c-0.832,0.673-2.413,0.374-2.413,0.374c0.823-0.983,0.311-1.431,0.311-1.431
			c-1.122,1.431-2.937,1.816-2.937,1.816c0.16-1.506,0.897-2.264,0.897-2.264c-1.281,0.15-3.385,1.506-3.385,1.506
			c0.299-1.431,1.43-2.413,1.43-2.413c-0.822,0.597-2.488,0.459-2.488,0.459c0.225-1.131,2.265-2.189,2.265-2.189
			c-2.788,0.747-3.396,0.223-3.396,0.223c1.218-2.307,2.82-2.535,3.273-2.552c-2.692-0.029-3.571-0.98-3.571-0.98
			c0.959-1.069,2.714-1.304,3.654-1.35c-2.468-0.081-3.879-1.364-3.879-1.364c1.356-1.356,4.068-1.207,4.068-1.207
			c-4.068-0.907-3.696-2.487-3.696-2.487c1.506,0.673,3.38,0.476,3.38,0.476c-3.934-1.023-4.138-3.782-3.987-3.628
			c1.167,1.167,3.733,1.225,3.733,1.225c-4.754-2.198-3.835-4.242-3.835-4.242c1.058,1.133,3.528,1.33,3.528,1.33
			c-4.815-2.323-3.415-6.298-3.415-6.298s3.159,4.89,7.825,6.32c4.667,1.431,5.575,4.741,5.575,4.741s1.325-0.309,1.146-1.86
			c-0.178-1.55-0.28-1.347-0.28-1.347h-0.409c-2.046,0.052-2.094-1.021-2.094-1.021s1.686,0.355,2.094,0.102
			c0.407-0.253,0.358-0.768-0.103-1.074c-0.633-0.422-2.554,0.717-2.554,0.717c-0.154-2.915,2.961-2.865,3.934-2.352
			c0.972,0.511,1.738,0.459,1.789-0.153c0.069-0.819-1.431-0.512-2.093-0.512c-0.662,0-1.491-0.735-0.205-1.481
			c0.97-0.564,2.606,0.102,4.293,0.662c1.688,0.561,1.735-0.714,1.735-0.714c0.919,1.585-0.458,2.657-0.458,2.657
			c1.024-0.511,2.195,0.92,1.89,0.971C82.955,13.864,80.144,14.057,79.588,17.36 M90.136,24.351
			c-0.388-0.02-0.637-0.008-0.637-0.008C89.719,24.356,89.931,24.356,90.136,24.351 M90.221,26.682c-0.08-0.003-0.123,0-0.123,0
			H90.221z M65.195,26.682h0.123C65.319,26.682,65.274,26.679,65.195,26.682 M65.279,24.351c0.205,0.005,0.418,0.005,0.638-0.008
			C65.916,24.343,65.667,24.331,65.279,24.351"/>
		<path fill="#FFFFFF" d="M81.248,21.982c0,0-0.024,3.641,0,4.89c-0.055,1.954-1.646,3.346-3.491,3.346
			c-1.824,0-3.591-1.472-3.591-3.346v-4.89H81.248z"/>
		<polygon fill="#E30613" points="80.161,24.219 80.161,25.567 80.161,26.916 79.484,26.241 79.458,26.218 78.356,26.218 
			78.356,27.315 78.384,27.343 79.058,28.019 78.356,28.019 77.709,28.019 77.079,28.019 76.36,28.019 77.034,27.343 77.079,27.297 
			77.079,26.218 75.956,26.218 75.932,26.241 75.254,26.916 75.254,26.218 75.254,25.567 75.254,24.917 75.254,24.219 
			75.932,24.892 75.956,24.917 77.079,24.917 77.079,23.831 77.034,23.785 76.36,23.109 77.709,23.109 79.058,23.109 78.384,23.785 
			78.356,23.813 78.356,24.917 79.458,24.917 79.484,24.892 		"/>
		<polygon fill="#FFFFFF" points="77.607,23.78 77.808,23.78 77.808,25.463 79.491,25.463 79.491,25.664 77.808,25.664 
			77.808,27.348 77.607,27.348 77.607,25.664 75.924,25.664 75.924,25.463 77.607,25.463 		"/>
		<g>
			<path fill="#BFBEBE" d="M54.305,114.265c-26.591,0-49.916-21.756-49.916-46.557V0h98.468l-0.005,0.752
				c-0.003,0.498-0.342,50.044,0,66.94C102.111,93.824,80.787,114.265,54.305,114.265z M5.881,1.494v66.214
				c0,24.005,22.627,45.063,48.423,45.063c25.669,0,46.338-19.803,47.054-45.084c-0.319-15.737-0.046-59.88-0.005-66.193H5.881z"/>
		</g>
	</g>
</g>
</svg>
