<?xml version="1.0" encoding="utf-8"?>
<!-- Generator: Adobe Illustrator 17.0.0, SVG Export Plug-In . SVG Version: 6.00 Build 0)  -->
<!DOCTYPE svg PUBLIC "-//W3C//DTD SVG 1.1//EN" "http://www.w3.org/Graphics/SVG/1.1/DTD/svg11.dtd">
<svg version="1.1" id="Layer_1" xmlns="http://www.w3.org/2000/svg" xmlns:xlink="http://www.w3.org/1999/xlink" x="0px" y="0px"
	 width="108.615px" height="204.959px" viewBox="0 0 108.615 204.959" enable-background="new 0 0 108.615 204.959"
	 xml:space="preserve">
<g>
	<g>
		<path fill="#D4B12A" d="M101.222,51.757H54.369V1.495h46.987C101.326,6.242,101.165,32.39,101.222,51.757z"/>
		<rect x="5.885" y="1.495" fill="#23346C" width="46.991" height="50.262"/>
		<path fill="#D4B12A" d="M5.885,67.708V53.251h46.991v59.484C27.683,111.974,5.885,91.267,5.885,67.708z"/>
		<path fill="#23346C" d="M54.369,112.77v-59.52h46.857c0.021,5.764,0.063,10.845,0.136,14.437
			C100.647,92.949,80.01,112.739,54.369,112.77z"/>
	</g>
	<path fill="#23346C" d="M30.308,160.67c-1.01,0-1.931-0.375-2.625-1.066c-0.966-0.967-0.966-1.975-0.966-4.154
		c0-2.177,0-3.187,0.966-4.153c0.694-0.691,1.615-1.069,2.625-1.069c1.847,0,3.216,1.129,3.561,3.06h-1.124
		c-0.272-1.255-1.154-2.077-2.436-2.077c-0.678,0-1.328,0.259-1.773,0.721c-0.65,0.663-0.723,1.37-0.723,3.518
		s0.073,2.859,0.723,3.518c0.445,0.461,1.095,0.723,1.773,0.723c1.282,0,2.192-0.824,2.466-2.079h1.095
		C33.537,159.544,32.139,160.67,30.308,160.67"/>
	<path fill="#23346C" d="M42.081,159.604c-0.692,0.692-1.601,1.066-2.624,1.066c-1.025,0-1.933-0.374-2.625-1.066
		c-0.968-0.969-0.968-1.977-0.968-4.154c0-2.177,0-3.186,0.968-4.153c0.692-0.691,1.6-1.065,2.625-1.065
		c1.023,0,1.931,0.374,2.624,1.065c0.967,0.967,0.967,1.976,0.967,4.153C43.048,157.626,43.048,158.635,42.081,159.604
		 M41.23,151.946c-0.447-0.463-1.096-0.737-1.773-0.737c-0.68,0-1.329,0.274-1.775,0.737c-0.648,0.665-0.719,1.354-0.719,3.503
		s0.071,2.842,0.719,3.505c0.447,0.461,1.096,0.735,1.775,0.735c0.677,0,1.326-0.274,1.773-0.735c0.649-0.664,0.72-1.357,0.72-3.505
		S41.88,152.611,41.23,151.946"/>
	<polygon fill="#23346C" points="45.44,160.584 45.44,150.316 46.536,150.316 46.536,159.604 51.786,159.604 51.786,160.584 	"/>
	<path fill="#23346C" d="M53.741,160.584v-10.267h6.373v0.98h-5.279v3.619h4.498v0.982h-4.498v3.706h5.279v0.98H53.741z
		 M57.012,149.321h-0.952l1.27-2.206h1.24L57.012,149.321z"/>
	<path fill="#23346C" d="M68.009,159.488c-0.723,0.78-1.688,1.184-2.74,1.184c-1.009,0-1.932-0.375-2.626-1.068
		c-0.966-0.967-0.966-1.977-0.966-4.153c0-2.18,0-3.187,0.966-4.153c0.694-0.692,1.602-1.068,2.626-1.068
		c1.962,0,3.289,1.27,3.592,3.071h-1.098c-0.287-1.3-1.211-2.091-2.494-2.091c-0.677,0-1.327,0.274-1.774,0.737
		c-0.647,0.664-0.719,1.354-0.719,3.504c0,2.148,0.072,2.855,0.719,3.517c0.448,0.461,1.098,0.723,1.774,0.723
		c0.749,0,1.472-0.304,1.947-0.881c0.418-0.504,0.576-1.068,0.576-1.86v-0.778h-2.522v-0.967h3.618v1.631
		C68.887,158.016,68.643,158.81,68.009,159.488"/>
	<rect x="71.242" y="150.317" fill="#23346C" width="1.096" height="10.267"/>
	<path fill="#23346C" d="M80.933,159.604c-0.691,0.692-1.599,1.066-2.623,1.066c-1.025,0-1.933-0.374-2.624-1.066
		c-0.967-0.969-0.967-1.977-0.967-4.154c0-2.177,0-3.186,0.967-4.153c0.691-0.691,1.599-1.065,2.624-1.065
		c1.024,0,1.932,0.374,2.623,1.065c0.967,0.967,0.967,1.976,0.967,4.153C81.899,157.626,81.899,158.635,80.933,159.604
		 M80.084,151.946c-0.449-0.463-1.098-0.737-1.775-0.737c-0.678,0-1.327,0.274-1.773,0.737c-0.65,0.665-0.723,1.354-0.723,3.503
		s0.073,2.842,0.723,3.505c0.447,0.461,1.096,0.735,1.773,0.735c0.677,0,1.326-0.274,1.775-0.735
		c0.648-0.664,0.721-1.357,0.721-3.505S80.732,152.611,80.084,151.946"/>
	<polygon fill="#23346C" points="24.142,195.586 24.142,199.364 28.642,199.364 28.642,200.346 24.142,200.346 24.142,204.873 
		23.046,204.873 23.046,194.605 29.421,194.605 29.421,195.586 	"/>
	<path fill="#23346C" d="M37.06,203.893c-0.693,0.692-1.601,1.066-2.623,1.066c-1.025,0-1.933-0.374-2.624-1.066
		c-0.97-0.966-0.97-1.976-0.97-4.154c0-2.176,0-3.185,0.97-4.152c0.691-0.692,1.599-1.068,2.624-1.068
		c1.023,0,1.93,0.375,2.623,1.068c0.967,0.967,0.967,1.976,0.967,4.152C38.026,201.916,38.026,202.927,37.06,203.893
		 M36.208,196.234c-0.446-0.46-1.095-0.733-1.772-0.733c-0.679,0-1.327,0.272-1.775,0.733c-0.648,0.666-0.719,1.357-0.719,3.504
		c0,2.15,0.071,2.842,0.719,3.507c0.448,0.461,1.096,0.734,1.775,0.734c0.677,0,1.326-0.272,1.772-0.734
		c0.649-0.665,0.723-1.357,0.723-3.507C36.931,197.591,36.857,196.9,36.208,196.234"/>
	<polygon fill="#23346C" points="48.119,204.874 48.119,197.072 45.307,203.258 44.37,203.258 41.515,197.072 41.515,204.874 
		40.418,204.874 40.418,194.605 41.515,194.605 44.86,201.888 48.119,194.605 49.216,194.605 49.216,204.874 	"/>
	<polygon fill="#23346C" points="51.911,204.874 51.911,194.605 58.284,194.605 58.284,195.586 53.008,195.586 53.008,199.205 
		57.507,199.205 57.507,200.187 53.008,200.187 53.008,203.891 58.284,203.891 58.284,204.874 	"/>
	<polygon fill="#23346C" points="66.961,204.874 61.511,196.64 61.511,204.874 60.414,204.874 60.414,194.605 61.453,194.605 
		66.904,202.812 66.904,194.605 68,194.605 68,204.874 	"/>
	<polygon fill="#23346C" points="74.028,195.586 74.028,204.873 72.932,204.873 72.932,195.586 69.959,195.586 69.959,194.605 
		76.999,194.605 76.999,195.586 	"/>
	<path fill="#23346C" d="M84.604,203.893c-0.693,0.692-1.601,1.066-2.625,1.066c-1.024,0-1.932-0.374-2.624-1.066
		c-0.967-0.966-0.967-1.976-0.967-4.154c0-2.176,0-3.185,0.967-4.152c0.692-0.692,1.599-1.068,2.624-1.068
		c1.025,0,1.933,0.375,2.625,1.068c0.965,0.967,0.965,1.976,0.965,4.152C85.569,201.916,85.569,202.927,84.604,203.893
		 M83.752,196.234c-0.446-0.46-1.097-0.733-1.773-0.733c-0.677,0-1.326,0.272-1.773,0.733c-0.649,0.666-0.721,1.357-0.721,3.504
		c0,2.15,0.072,2.842,0.721,3.507c0.447,0.461,1.096,0.734,1.773,0.734c0.677,0,1.327-0.272,1.773-0.734
		c0.648-0.665,0.722-1.357,0.722-3.507C84.474,197.591,84.4,196.9,83.752,196.234"/>
	<path fill="#23346C" d="M19.567,185.864c-1.736,0-3.199-0.593-4.387-1.782c-0.708-0.708-1.143-1.53-1.324-2.445
		c-0.183-0.914-0.276-2.263-0.276-4.045c0-1.783,0.093-3.13,0.276-4.045c0.181-0.936,0.615-1.736,1.324-2.444
		c1.188-1.189,2.651-1.785,4.387-1.785c3.132,0,5.44,1.829,5.989,5.144h-3.221c-0.345-1.396-1.213-2.31-2.745-2.31
		c-0.868,0-1.554,0.275-2.034,0.847c-0.664,0.708-0.799,1.439-0.799,4.592c0,3.153,0.135,3.886,0.799,4.594
		c0.48,0.572,1.166,0.846,2.034,0.846c1.532,0,2.4-0.914,2.745-2.309h3.221C25.007,184.036,22.676,185.864,19.567,185.864"/>
	<polygon fill="#23346C" points="27.824,185.729 27.824,169.455 38.542,169.455 38.542,172.29 30.999,172.29 30.999,176.107 
		37.422,176.107 37.422,178.94 30.999,178.94 30.999,182.895 38.542,182.895 38.542,185.729 	"/>
	<path fill="#23346C" d="M51.312,184.175c-1.075,1.074-2.605,1.555-4.298,1.555h-5.871v-16.275h5.871
		c1.693,0,3.223,0.48,4.298,1.556c1.829,1.828,1.646,4.066,1.646,6.514C52.958,179.969,53.141,182.347,51.312,184.175
		 M49.096,173.295c-0.549-0.664-1.279-1.005-2.376-1.005h-2.4v10.605h2.4c1.097,0,1.828-0.342,2.376-1.006
		c0.593-0.731,0.686-1.897,0.686-4.363C49.782,175.056,49.689,174.028,49.096,173.295"/>
	<path fill="#23346C" d="M64.331,185.73l-3.176-6.492H58.87v6.492h-3.177v-16.274h6.376c3.314,0,5.278,2.262,5.278,4.982
		c0,2.285-1.394,3.702-2.97,4.273l3.635,7.018H64.331z M61.864,172.29H58.87v4.298h2.994c1.393,0,2.308-0.892,2.308-2.15
		C64.172,173.183,63.258,172.29,61.864,172.29"/>
	<path fill="#23346C" d="M79.992,184.082c-1.143,1.143-2.537,1.783-4.388,1.783c-1.852,0-3.268-0.64-4.411-1.783
		c-1.646-1.645-1.6-3.679-1.6-6.49c0-2.809-0.046-4.843,1.6-6.489c1.143-1.145,2.559-1.783,4.411-1.783
		c1.851,0,3.245,0.639,4.388,1.783c1.646,1.647,1.622,3.68,1.622,6.489C81.613,180.404,81.638,182.437,79.992,184.082
		 M77.638,173.021c-0.459-0.525-1.167-0.87-2.034-0.87c-0.868,0-1.601,0.344-2.058,0.87c-0.617,0.686-0.778,1.44-0.778,4.57
		c0,3.131,0.16,3.886,0.778,4.573c0.456,0.524,1.189,0.867,2.058,0.867c0.868,0,1.575-0.343,2.034-0.867
		c0.617-0.687,0.798-1.442,0.798-4.573C78.436,174.462,78.255,173.707,77.638,173.021"/>
	<path fill="#23346C" d="M89.001,185.864c-2.468,0-4.341-0.525-5.942-2.147l2.058-2.057c1.028,1.029,2.423,1.371,3.93,1.371
		c1.873,0,2.88-0.709,2.88-2.011c0-0.571-0.16-1.051-0.502-1.37c-0.321-0.3-0.686-0.459-1.441-0.574l-1.966-0.274
		c-1.392-0.205-2.423-0.639-3.154-1.348c-0.777-0.776-1.165-1.829-1.165-3.199c0-2.902,2.15-4.938,5.669-4.938
		c2.238,0,3.861,0.551,5.255,1.899l-2.011,1.988c-1.029-0.984-2.263-1.121-3.337-1.121c-1.691,0-2.515,0.937-2.515,2.057
		c0,0.411,0.139,0.846,0.48,1.167c0.321,0.297,0.847,0.547,1.509,0.639l1.92,0.275c1.485,0.205,2.423,0.618,3.109,1.255
		c0.868,0.824,1.256,2.011,1.256,3.452C95.035,184.082,92.407,185.864,89.001,185.864"/>
	<path fill="none" d="M4.893,52.81v16.41c0,0,1.031,16.776,13.84,29.394c12.811,12.62,30.425,14.872,30.425,14.872h4.611V52.81
		H4.893z"/>
	<path fill="#B99816" d="M18.759,125.592C8.592,121.599,1.567,116.884,0,114.878c-0.029-0.037,6.073,0.663,8.604-1.613
		c-1.18-5.561,0.062-9.034,0.062-9.034c1.829,1.937,7.474,5.474,15.377,8.497l-5.752,1.8L18.759,125.592z"/>
	<polygon fill-rule="evenodd" clip-rule="evenodd" fill="#88701E" points="18.21,114.531 23.939,112.677 20.066,119.419 	"/>
	<path fill="#B99816" d="M89.857,125.592c10.167-3.993,17.193-8.708,18.758-10.714c0.031-0.037-6.072,0.663-8.603-1.613
		c1.18-5.561-0.061-9.034-0.061-9.034c-1.83,1.937-7.475,5.474-15.378,8.497l5.752,1.8L89.857,125.592z"/>
	<polygon fill-rule="evenodd" clip-rule="evenodd" fill="#88701E" points="90.405,114.531 84.676,112.677 88.551,119.419 	"/>
	<path fill="#E7BE00" d="M54.347,137.481h-0.078c-21.872-0.061-40.274-8.456-43.223-11.406c-0.069-0.069,7.303-11.623,7.303-11.623
		c3.473,2.877,18.369,8.974,35.92,9.03h0.078c17.551-0.056,32.447-6.153,35.921-9.03c0,0,7.372,11.554,7.302,11.623
		C94.62,129.024,76.219,137.421,54.347,137.481"/>
	<polygon fill-rule="evenodd" clip-rule="evenodd" fill="#23346C" points="22.416,127.803 22.742,127.035 21.368,126.451 
		22.087,124.756 23.26,125.254 23.582,124.493 22.411,123.995 23.11,122.347 24.484,122.931 24.811,122.162 23.008,121.398 
		20.614,127.038 	"/>
	<path fill-rule="evenodd" clip-rule="evenodd" fill="#23346C" d="M26.912,124.949c-0.215,0.563-0.538,0.817-0.828,0.707
		l-0.643-0.248l0.688-1.792l0.643,0.248C27.061,123.974,27.128,124.387,26.912,124.949 M25.883,129.191l0.312-2.783
		c0.39-0.054,0.839-0.481,1.154-1.3c0.371-0.971,0.295-1.804-0.247-2.013l-1.109-0.424l-2.196,5.719l0.434,0.167l0.925-2.41
		l0.542,0.209l-0.322,2.641L25.883,129.191z"/>
	
		<rect x="25.379" y="126.533" transform="matrix(-0.3091 0.951 -0.951 -0.3091 157.7921 138.8958)" fill-rule="evenodd" clip-rule="evenodd" fill="#23346C" width="6.128" height="0.465"/>
	<polygon fill-rule="evenodd" clip-rule="evenodd" fill="#23346C" points="32.551,125.695 32.781,124.892 30.713,124.3 
		30.483,125.102 31.294,125.335 29.834,130.422 30.28,130.551 31.74,125.463 	"/>
	
		<rect x="32.139" y="128.452" transform="matrix(-0.2249 0.9744 -0.9744 -0.2249 168.5065 123.3206)" fill-rule="evenodd" clip-rule="evenodd" fill="#23346C" width="6.127" height="0.464"/>
	<path fill-rule="evenodd" clip-rule="evenodd" fill="#23346C" d="M44.815,131.579l-0.465-0.057
		c-0.149,0.606-0.411,1.009-0.748,0.966c-0.179-0.022-0.325-0.177-0.403-0.422c-0.11-0.343-0.102-0.696,0.049-1.918
		c0.151-1.221,0.227-1.57,0.417-1.875c0.134-0.218,0.313-0.335,0.493-0.313c0.338,0.042,0.49,0.494,0.487,1.118l0.469,0.059
		c0.044-1.228-0.295-1.937-0.855-2.005c-0.316-0.04-0.618,0.158-0.877,0.551c-0.373,0.561-0.452,1.236-0.596,2.406
		c-0.144,1.171-0.231,1.845-0.005,2.479c0.158,0.445,0.403,0.708,0.719,0.747C44.051,133.385,44.564,132.78,44.815,131.579"/>
	<polygon fill-rule="evenodd" clip-rule="evenodd" fill="#23346C" points="47.999,133.716 48.072,132.885 46.584,132.754 
		46.745,130.92 48.014,131.03 48.085,130.207 46.817,130.096 46.973,128.314 48.46,128.444 48.533,127.611 46.582,127.44 
		46.048,133.545 	"/>
	<path fill-rule="evenodd" clip-rule="evenodd" fill="#23346C" d="M51.372,130.794c-0.043,0.842-0.082,1.503-0.26,1.847
		c-0.143,0.276-0.323,0.396-0.541,0.386l-0.563-0.03l0.234-4.452l0.562,0.03c0.22,0.01,0.385,0.149,0.499,0.439
		C51.442,129.376,51.417,129.951,51.372,130.794 M51.836,130.819c0.046-0.885,0.115-1.778-0.181-2.459
		c-0.174-0.396-0.443-0.6-0.762-0.617l-1.073-0.056l-0.321,6.119l1.073,0.056c0.318,0.017,0.609-0.158,0.821-0.534
		C51.761,132.685,51.79,131.703,51.836,130.819"/>
	<path fill-rule="evenodd" clip-rule="evenodd" fill="#23346C" d="M54.911,129.573c0,0.602-0.211,0.955-0.521,0.955h-0.688v-1.919
		h0.688C54.7,128.61,54.911,128.971,54.911,129.573 M55.47,133.902l-0.706-2.71c0.343-0.19,0.611-0.75,0.611-1.627
		c0-1.042-0.369-1.79-0.952-1.79h-1.187v6.127h0.465v-2.582h0.581l0.645,2.582H55.47z"/>
	<path fill-rule="evenodd" clip-rule="evenodd" fill="#23346C" d="M58.984,131.738l-0.142-4.059l-0.464,0.014l0.141,4.018
		c0.028,0.816-0.207,1.332-0.591,1.347c-0.383,0.012-0.65-0.485-0.679-1.302l-0.141-4.018l-0.463,0.017l0.141,4.059
		c0.044,1.264,0.547,2.1,1.169,2.076C58.582,133.87,59.029,133.001,58.984,131.738"/>
	<polygon fill-rule="evenodd" clip-rule="evenodd" fill="#23346C" points="63.348,133.442 62.814,127.337 62.351,127.378 
		61.809,131.252 60.584,127.533 60.123,127.573 60.656,133.678 61.118,133.638 60.762,129.556 61.743,132.468 62.086,132.438 
		62.529,129.401 62.885,133.482 	"/>
	<polygon fill-rule="evenodd" clip-rule="evenodd" fill="#23346C" points="69.536,132.58 68.577,126.528 68.118,126.601 
		67.849,130.504 66.367,126.879 65.909,126.95 66.867,133.004 67.326,132.931 66.685,128.886 67.866,131.721 68.206,131.667 
		68.436,128.607 69.078,132.653 	"/>
	<path fill-rule="evenodd" clip-rule="evenodd" fill="#23346C" d="M72.166,130.014l-0.925,0.18l-0.05-2.76L72.166,130.014z
		 M73.371,131.84l-2.272-5.8l-0.368,0.07l0.067,6.23l0.486-0.095l-0.029-1.249l1.187-0.229l0.441,1.168L73.371,131.84z"/>
	<path fill-rule="evenodd" clip-rule="evenodd" fill="#23346C" d="M76.052,128.731l-0.227-0.91l-1.086,0.27l0.192,0.768l0.634-0.159
		l0.084,0.334c0.096,0.386,0.129,0.696,0.083,0.972c-0.05,0.297-0.185,0.49-0.38,0.538c-0.176,0.046-0.369-0.05-0.528-0.249
		c-0.226-0.282-0.345-0.614-0.643-1.809c-0.298-1.194-0.348-1.536-0.28-1.89c0.047-0.25,0.171-0.433,0.346-0.476
		c0.334-0.083,0.646,0.248,0.884,0.88l0.456-0.115c-0.339-0.997-0.913-1.733-1.542-1.576c-0.318,0.08-0.52,0.369-0.622,0.83
		c-0.148,0.656,0.022,1.315,0.306,2.46c0.286,1.143,0.445,1.805,0.884,2.315c0.307,0.359,0.63,0.518,0.939,0.441
		c0.313-0.078,0.543-0.347,0.65-0.88C76.295,130.008,76.243,129.499,76.052,128.731"/>
	<polygon fill-rule="evenodd" clip-rule="evenodd" fill="#23346C" points="80.346,129.988 78.657,124.097 78.21,124.226 
		79.396,128.361 76.85,124.616 76.439,124.733 78.129,130.624 78.575,130.495 77.387,126.351 79.936,130.105 	"/>
	<path fill-rule="evenodd" clip-rule="evenodd" fill="#23346C" d="M82.626,127.075l-0.891,0.306l-0.434-2.728L82.626,127.075z
		 M84.074,128.715l-3.057-5.428l-0.355,0.121l0.933,6.159l0.469-0.162l-0.201-1.231l1.143-0.395l0.601,1.095L84.074,128.715z"/>
	<polygon fill-rule="evenodd" clip-rule="evenodd" fill="#23346C" points="87.785,127.318 85.589,121.598 85.155,121.765 
		85.703,125.638 83.5,122.399 83.067,122.566 85.262,128.286 85.696,128.12 84.228,124.295 85.973,126.825 86.295,126.701 
		85.883,123.661 87.352,127.485 	"/>
	<polygon fill-rule="evenodd" clip-rule="evenodd" fill="#23346C" points="38.681,132.622 39.954,126.63 39.501,126.533 
		38.606,130.741 38.116,126.237 37.7,126.15 36.426,132.142 36.881,132.24 37.776,128.023 38.265,132.535 	"/>
	<g>
		<defs>
			<rect id="SVGID_1_" x="5.259" y="0.77" width="48.144" height="51.639"/>
		</defs>
		<clipPath id="SVGID_2_">
			<use xlink:href="#SVGID_1_"  overflow="visible"/>
		</clipPath>
		<g clip-path="url(#SVGID_2_)">
			<path fill-rule="evenodd" clip-rule="evenodd" fill="#FFFFFF" d="M53.674,38.328c-2.287-1.281-4.011-0.665-5.75,0.639
				c-1.976,1.482-4.299,2.55-7.81,0.237c-3.512-2.314-5.079-1.164-7.018,0.124c-1.938,1.287-4.033,2.148-7.135,0.125
				c-3.103-2.023-4.715-1.62-7.33-0.083c-2.615,1.537-4.15,1.777-7.577,0c-5.482-2.838-8.577,1.515-9.164,1.416l0.659-3.922
				c0,0,3.312-3.9,8.231-1.291c4.192,2.227,5.364,1.601,7.614,0.454c2.208-1.128,2.868-2.431,7.819-0.078
				c2.771,1.317,5.105,0.914,6.336,0.125c2.504-1.607,4.856-2.513,8.22-0.042c2.699,1.98,5.497,0.349,6.419-0.209
				c1.47-0.892,3.498-2.543,6.484-0.881V38.328z"/>
			<path fill-rule="evenodd" clip-rule="evenodd" fill="#FFFFFF" d="M53.674,45.122c-2.287-1.281-4.011-0.665-5.75,0.639
				c-1.976,1.482-4.299,2.55-7.81,0.237c-3.512-2.314-5.079-1.164-7.018,0.124c-1.938,1.288-4.033,2.147-7.135,0.125
				c-3.103-2.023-4.715-1.62-7.33-0.083c-2.615,1.537-4.15,1.775-7.577,0c-5.482-2.839-8.577,1.515-9.164,1.414l0.659-3.921
				c0,0,3.312-3.9,8.231-1.291c4.192,2.227,5.364,1.603,7.614,0.452c2.208-1.126,2.868-2.431,7.819-0.078
				c2.771,1.317,5.105,0.915,6.336,0.127c2.504-1.609,4.856-2.513,8.22-0.043c2.699,1.982,5.497,0.351,6.419-0.209
				c1.47-0.89,3.498-2.542,6.484-0.88V45.122z"/>
			<path fill="#FFFFFF" d="M47.456,22.014v-7.775h5.432v-1.792H5.009v1.792h41.253v6.739c-4.346-3.585-10.079-5.788-16.378-5.788
				c-6.824,0-12.998,2.569-17.446,6.697v-7.621h-1.194v8.823c-3.651,3.916-5.869,8.982-5.869,14.521H6.99
				c0-11.471,10.27-20.804,22.894-20.804s22.894,9.333,22.894,20.804h1.616C54.395,31.55,51.742,26.053,47.456,22.014z"/>
		</g>
	</g>
	<path fill="#076836" d="M28.857,97.912l-0.233,0.055c-2.734,2.696-4.57-0.862-4.57-0.862c0.313,0.235,0.626-0.504,0.626-0.504
		c-2.889-2.5-1.601-4.143-1.601-4.143c0.705,0.584,0.662-0.392,0.662-0.392c-1.679-1.914-1.287-4.724-1.287-4.724
		c0.704,0.74,0.818,0.156,0.818,0.156c-1.409-1.914-0.428-4.1-0.428-4.1c0.625,0.547,0.741,0.078,0.741,0.078
		c-1.289-2.263-0.314-4.375-0.314-4.375c0.428,0.583,0.782,0.077,0.782,0.077c-0.896-2.305-0.156-4.098-0.156-4.098
		c0.39,0.548,0.782,0.155,0.782,0.155c-0.819-1.366-0.235-2.889-0.235-2.889c0.548,1.017,0.662,0.235,0.662,0.235
		c-0.86-2.264,0.391-4.141,0.391-4.141c0.157,0.584,0.705,0.235,0.705,0.235c-0.662-1.679-0.157-3.358-0.157-3.358
		c0.392,0.312,0.741,0.155,0.741,0.155c-0.548-0.974,0-2.575,0-2.575c0.156,0.703,0.703,0.271,0.703,0.271
		c-0.583-1.331-0.078-2.499-0.078-2.499c0,0.704,0.662,0.077,0.662,0.077c-0.391-1.13,0.313-2.576,0.313-2.576
		c0,0.704,0.469,0.74,0.469,0.74c0-1.165,0.652-2.275,0.845-2.575l0.006-0.263c0,0,0.896,1.287,0.896,2.654
		c0,0,0.469-0.036,0.469-0.739c0,0,0.705,1.443,0.314,2.576c0,0,0.662,0.624,0.662-0.08c0,0,0.506,1.169-0.079,2.499
		c0,0,0.549,0.433,0.705-0.27c0,0,0.548,1.599,0,2.576c0,0,0.349,0.156,0.74-0.156c0,0,0.506,1.68-0.156,3.358
		c0,0,0.548,0.349,0.705-0.235c0,0,1.251,1.878,0.391,4.141c0,0,0.115,0.782,0.662-0.235c0,0,0.585,1.524-0.235,2.89
		c0,0,0.39,0.39,0.782-0.158c0,0,0.74,1.795-0.156,4.1c0,0,0.355,0.507,0.782-0.078c0,0,0.975,2.113-0.313,4.376
		c0,0,0.114,0.472,0.74-0.078c0,0,0.981,2.185-0.428,4.1c0,0,0.113,0.584,0.819-0.156c0,0,0.391,2.81-1.288,4.725
		c0,0-0.042,0.975,0.662,0.391c0,0,1.288,1.644-1.601,4.141c0,0,0.313,0.74,0.626,0.506c0,0-1.836,3.558-4.57,0.86l-0.11-0.003
		c0.054,1.962,1.174,4.599,1.174,4.599c-1.757-1.211-4.726,0.156-4.726,0.156C28.138,101.807,28.633,99.428,28.857,97.912"/>
	<g>
		<defs>
			<path id="SVGID_3_" d="M53.205,52.41v61.791l6.32-0.714c0,0,15.907-1.537,28.717-14.157c12.81-12.617,13.84-29.394,13.84-29.394
				V52.41H53.205z"/>
		</defs>
		<clipPath id="SVGID_4_">
			<use xlink:href="#SVGID_3_"  overflow="visible"/>
		</clipPath>
		<g clip-path="url(#SVGID_4_)">
			<polygon fill="#FFFFFF" points="103.34,88.165 60.385,45.229 46.02,59.595 88.974,102.529 			"/>
			<g>
				<polygon fill="#E30613" points="71.41,59.618 71.41,63.392 71.41,67.168 69.513,65.281 69.446,65.213 66.359,65.213 
					66.359,68.281 66.435,68.358 68.323,70.255 66.359,70.255 64.547,70.255 62.784,70.255 60.772,70.255 62.659,68.358 
					62.784,68.234 62.784,65.213 59.642,65.213 59.573,65.281 57.676,67.168 57.676,65.213 57.676,63.392 57.676,61.573 
					57.676,59.618 59.573,61.505 59.642,61.573 62.784,61.573 62.784,58.532 62.659,58.408 60.772,56.511 64.547,56.511 
					68.323,56.511 66.435,58.408 66.359,58.484 66.359,61.573 69.446,61.573 69.513,61.505 				"/>
				<polygon fill="#FFFFFF" points="64.26,58.39 64.826,58.39 64.826,63.101 69.536,63.101 69.536,63.667 64.826,63.667 
					64.826,68.378 64.26,68.378 64.26,63.667 59.55,63.667 59.55,63.101 64.26,63.101 				"/>
				<g>
					<g>
						<polygon fill="#E30613" points="93.566,81.672 93.566,85.447 93.566,89.223 91.669,87.335 91.601,87.267 88.514,87.267 
							88.514,90.338 88.591,90.413 90.478,92.31 88.514,92.31 86.703,92.31 84.939,92.31 82.927,92.31 84.816,90.413 84.939,90.288 
							84.939,87.267 81.797,87.267 81.729,87.335 79.833,89.223 79.833,87.267 79.833,85.447 79.833,83.627 79.833,81.672 
							81.729,83.561 81.797,83.627 84.939,83.627 84.939,80.587 84.816,80.463 82.927,78.567 86.703,78.567 90.478,78.567 
							88.591,80.463 88.514,80.539 88.514,83.627 91.601,83.627 91.669,83.561 						"/>
						<polygon fill="#FFFFFF" points="86.416,80.445 86.982,80.445 86.982,85.155 91.692,85.155 91.692,85.721 86.982,85.721 
							86.982,90.43 86.416,90.43 86.416,85.721 81.706,85.721 81.706,85.155 86.416,85.155 						"/>
					</g>
					<polygon fill="#E30613" points="82.5,70.611 82.5,74.386 82.5,78.161 80.604,76.273 80.535,76.206 77.448,76.206 
						77.448,79.276 77.525,79.353 79.411,81.249 77.448,81.249 75.637,81.249 73.874,81.249 71.861,81.249 73.749,79.353 
						73.874,79.229 73.874,76.206 70.731,76.206 70.662,76.273 68.766,78.161 68.766,76.206 68.766,74.386 68.766,72.568 
						68.766,70.611 70.662,72.498 70.731,72.568 73.874,72.568 73.874,69.526 73.749,69.402 71.861,67.506 75.637,67.506 
						79.411,67.506 77.525,69.402 77.448,69.478 77.448,72.568 80.535,72.568 80.604,72.498 					"/>
					<polygon fill="#FFFFFF" points="75.35,69.384 75.915,69.384 75.915,74.094 80.626,74.094 80.626,74.66 75.915,74.66 
						75.915,79.372 75.35,79.372 75.35,74.66 70.639,74.66 70.639,74.094 75.35,74.094 					"/>
				</g>
			</g>
		</g>
	</g>
	<path fill="#076836" d="M76.873,45.862l-0.235,0.054c-2.733,2.697-4.568-0.86-4.568-0.86c0.313,0.235,0.625-0.506,0.625-0.506
		c-2.889-2.498-1.601-4.142-1.601-4.142c0.704,0.584,0.662-0.391,0.662-0.391c-1.68-1.914-1.288-4.725-1.288-4.725
		c0.703,0.742,0.819,0.156,0.819,0.156c-1.409-1.914-0.428-4.1-0.428-4.1c0.624,0.547,0.741,0.078,0.741,0.078
		c-1.289-2.263-0.313-4.376-0.313-4.376c0.427,0.584,0.783,0.08,0.783,0.08c-0.898-2.306-0.157-4.1-0.157-4.1
		c0.392,0.548,0.782,0.156,0.782,0.156c-0.818-1.367-0.235-2.89-0.235-2.89c0.548,1.018,0.662,0.236,0.662,0.236
		c-0.86-2.264,0.392-4.143,0.392-4.143c0.157,0.584,0.704,0.235,0.704,0.235c-0.662-1.679-0.156-3.357-0.156-3.357
		c0.392,0.312,0.741,0.155,0.741,0.155c-0.547-0.975,0-2.576,0-2.576c0.155,0.704,0.704,0.27,0.704,0.27
		c-0.584-1.33-0.078-2.498-0.078-2.498c0,0.704,0.66,0.077,0.66,0.077c-0.391-1.13,0.314-2.576,0.314-2.576
		c0,0.705,0.469,0.74,0.469,0.74c0-1.165,0.654-2.273,0.845-2.575l0.005-0.263c0,0,0.897,1.288,0.897,2.655
		c0,0,0.471-0.038,0.471-0.742c0,0,0.704,1.444,0.313,2.576c0,0,0.662,0.627,0.662-0.078c0,0,0.505,1.168-0.078,2.499
		c0,0,0.548,0.433,0.703-0.271c0,0,0.549,1.601,0,2.577c0,0,0.351,0.156,0.741-0.156c0,0,0.505,1.68-0.156,3.359
		c0,0,0.548,0.348,0.703-0.236c0,0,1.253,1.878,0.392,4.142c0,0,0.115,0.782,0.66-0.235c0,0,0.586,1.523-0.233,2.89
		c0,0,0.391,0.391,0.781-0.156c0,0,0.74,1.794-0.155,4.099c0,0,0.355,0.506,0.782-0.078c0,0,0.974,2.113-0.313,4.377
		c0,0,0.113,0.469,0.74-0.079c0,0,0.982,2.185-0.427,4.1c0,0,0.113,0.584,0.819-0.156c0,0,0.39,2.81-1.288,4.725
		c0,0-0.042,0.974,0.662,0.392c0,0,1.289,1.642-1.601,4.14c0,0,0.312,0.74,0.626,0.507c0,0-1.836,3.556-4.569,0.859l-0.111-0.003
		c0.054,1.962,1.174,4.599,1.174,4.599c-1.758-1.21-4.724,0.156-4.724,0.156C76.153,49.758,76.647,47.379,76.873,45.862"/>
	<path fill="#BFBEBE" d="M102.857,0H4.39v67.707c0,24.802,23.325,46.558,49.915,46.558c26.483,0,47.807-20.441,48.547-46.573
		c-0.341-16.895-0.003-66.442,0-66.94L102.857,0z M101.219,51.756H54.366V1.494h46.987C101.323,6.242,101.162,32.389,101.219,51.756
		z M52.874,1.494v50.262H5.882V1.494H52.874z M5.882,67.707V53.25h46.991v59.484C27.68,111.973,5.882,91.267,5.882,67.707z
		 M54.366,112.77V53.25h46.857c0.021,5.764,0.063,10.845,0.136,14.437C100.644,92.949,80.007,112.738,54.366,112.77z"/>
</g>
</svg>
