<?xml version="1.0" encoding="utf-8"?>
<!-- Generator: Adobe Illustrator 17.0.0, SVG Export Plug-In . SVG Version: 6.00 Build 0)  -->
<!DOCTYPE svg PUBLIC "-//W3C//DTD SVG 1.1//EN" "http://www.w3.org/Graphics/SVG/1.1/DTD/svg11.dtd">
<svg version="1.1" id="Layer_1" xmlns="http://www.w3.org/2000/svg" xmlns:xlink="http://www.w3.org/1999/xlink" x="0px" y="0px"
	 width="108.615px" height="193.831px" viewBox="0 0 108.615 193.831" enable-background="new 0 0 108.615 193.831"
	 xml:space="preserve">
<g>
	<path fill="#B99816" d="M18.742,125.48C8.584,121.49,1.565,116.778,0,114.775c-0.029-0.036,6.066,0.663,8.594-1.613
		c-1.178-5.555,0.062-9.023,0.062-9.023c1.828,1.934,7.468,5.467,15.364,8.487l-5.747,1.798L18.742,125.48z"/>
	<polygon fill-rule="evenodd" clip-rule="evenodd" fill="#88701E" points="18.194,114.429 23.917,112.575 20.046,119.312 	"/>
	<path fill="#B99816" d="M89.776,125.48c10.157-3.989,17.177-8.702,18.741-10.705c0.029-0.036-6.066,0.663-8.594-1.613
		c1.177-5.555-0.063-9.023-0.063-9.023c-1.828,1.934-7.468,5.467-15.363,8.487l5.746,1.798L89.776,125.48z"/>
	<polygon fill-rule="evenodd" clip-rule="evenodd" fill="#88701E" points="90.324,114.429 84.6,112.575 88.471,119.312 	"/>
	<path fill="#E7BE00" d="M54.298,137.358h-0.079c-21.852-0.062-40.238-8.451-43.184-11.397c-0.07-0.07,7.297-11.613,7.297-11.613
		c3.47,2.875,18.353,8.967,35.887,9.023h0.079c17.534-0.055,32.417-6.148,35.888-9.023c0,0,7.366,11.542,7.296,11.613
		C94.535,128.907,76.15,137.295,54.298,137.358"/>
	<path fill="#23346C" d="M102.014,0.745c0,0-0.346,49.814,0,66.901c-0.757,26.718-22.527,45.769-47.758,45.769
		c-24.953,0-49.126-20.128-49.126-45.769V0.745H102.014z"/>
	<g>
		<defs>
			<path id="SVGID_1_" d="M5.131,0.746v66.9c0,25.642,24.173,45.77,49.126,45.77c25.231,0,47-19.05,47.758-45.77
				c-0.346-17.086,0-66.9,0-66.9H5.131z"/>
		</defs>
		<clipPath id="SVGID_2_">
			<use xlink:href="#SVGID_1_"  overflow="visible"/>
		</clipPath>
		<polygon clip-path="url(#SVGID_2_)" fill="#FFFFFF" points="111.446,82.304 18.144,-10.975 -8.86,16.027 84.444,109.307 		"/>
	</g>
	<g>
		<path fill="#BFBEBE" d="M54.256,114.161c-12.359,0-24.904-4.905-34.419-13.46C9.872,91.742,4.385,80.004,4.385,67.646V0h98.38
			l-0.005,0.751c-0.004,0.498-0.342,49.999,0,66.881C102.02,93.739,80.715,114.161,54.256,114.161z M5.876,1.491v66.156
			c0,23.985,22.607,45.024,48.38,45.024c25.646,0,46.296-19.786,47.012-45.045c-0.319-15.723-0.046-59.827-0.005-66.135H5.876z"/>
	</g>
	<path fill-rule="evenodd" clip-rule="evenodd" fill="#23346C" d="M20.52,124.58l-0.843-0.412l1.615-2.225L20.52,124.58z
		 M20.385,126.755l1.67-5.975l-0.335-0.163l-3.68,4.994l0.443,0.216l0.725-1.009l1.082,0.527l-0.349,1.194L20.385,126.755z"/>
	<path fill-rule="evenodd" clip-rule="evenodd" fill="#23346C" d="M23.959,126.223l-0.434-0.175
		c-0.298,0.545-0.654,0.864-0.967,0.737c-0.166-0.067-0.266-0.256-0.279-0.51c-0.017-0.358,0.082-0.697,0.543-1.833
		c0.458-1.136,0.621-1.449,0.883-1.695c0.186-0.175,0.388-0.241,0.555-0.173c0.314,0.127,0.344,0.6,0.18,1.202l0.437,0.176
		c0.357-1.169,0.215-1.938-0.305-2.148c-0.295-0.119-0.635-0.007-0.987,0.303c-0.503,0.445-0.753,1.074-1.193,2.163
		s-0.698,1.715-0.644,2.384c0.038,0.467,0.205,0.785,0.499,0.904C22.759,127.762,23.408,127.313,23.959,126.223"/>
	<path fill-rule="evenodd" clip-rule="evenodd" fill="#23346C" d="M27.005,127.386l-0.438-0.159
		c-0.279,0.555-0.623,0.886-0.942,0.77c-0.17-0.061-0.275-0.246-0.297-0.5c-0.029-0.358,0.059-0.698,0.478-1.851
		c0.419-1.152,0.571-1.469,0.824-1.725c0.179-0.181,0.379-0.253,0.549-0.191c0.318,0.115,0.365,0.588,0.222,1.193l0.443,0.161
		c0.316-1.18,0.146-1.945-0.381-2.136c-0.298-0.109-0.635,0.016-0.975,0.337c-0.487,0.463-0.715,1.1-1.116,2.202
		c-0.402,1.105-0.638,1.74-0.561,2.405c0.054,0.467,0.232,0.777,0.53,0.887C25.86,128.966,26.492,128.494,27.005,127.386"/>
	<polygon fill-rule="evenodd" clip-rule="evenodd" fill="#23346C" points="29.456,130.069 29.7,129.273 28.277,128.839 
		28.814,127.086 30.026,127.456 30.267,126.67 29.054,126.298 29.574,124.594 30.997,125.03 31.24,124.234 29.375,123.664 
		27.591,129.5 	"/>
	<polygon fill-rule="evenodd" clip-rule="evenodd" fill="#23346C" points="32.897,131.032 34.476,125.138 34.03,125.019 
		32.92,129.158 32.667,124.653 32.258,124.544 30.678,130.438 31.126,130.558 32.237,126.409 32.487,130.922 	"/>
	<path fill-rule="evenodd" clip-rule="evenodd" fill="#23346C" d="M36.59,128.717c-0.175,0.822-0.316,1.466-0.544,1.778
		c-0.185,0.249-0.379,0.339-0.593,0.294l-0.549-0.116l0.923-4.341l0.549,0.116c0.214,0.045,0.354,0.206,0.422,0.511
		C36.88,127.333,36.765,127.897,36.59,128.717 M37.043,128.814c0.183-0.863,0.389-1.731,0.204-2.445
		c-0.108-0.417-0.341-0.659-0.652-0.725l-1.048-0.222l-1.268,5.967l1.048,0.223c0.311,0.066,0.622-0.061,0.891-0.398
		C36.677,130.637,36.86,129.678,37.043,128.814"/>
	<polygon fill-rule="evenodd" clip-rule="evenodd" fill="#23346C" points="39.605,132.494 39.764,131.678 38.305,131.394 
		38.654,129.594 39.899,129.837 40.056,129.029 38.811,128.787 39.151,127.037 40.611,127.321 40.77,126.505 38.856,126.133 
		37.691,132.122 	"/>
	<path fill-rule="evenodd" clip-rule="evenodd" fill="#23346C" d="M43.152,128.65c-0.084,0.595-0.341,0.913-0.646,0.871
		l-0.678-0.095l0.265-1.894l0.678,0.096C43.078,127.672,43.236,128.057,43.152,128.65 M43.103,132.997l-0.32-2.771
		c0.366-0.138,0.706-0.654,0.828-1.52c0.144-1.027-0.116-1.816-0.689-1.897l-1.171-0.164l-0.85,6.042l0.458,0.065l0.358-2.546
		l0.573,0.08l0.279,2.635L43.103,132.997z"/>
	<polygon fill-rule="evenodd" clip-rule="evenodd" fill="#23346C" points="46.248,133.34 46.334,132.513 44.856,132.357 
		45.048,130.534 46.309,130.667 46.395,129.848 45.134,129.716 45.32,127.942 46.798,128.098 46.886,127.272 44.946,127.067 
		44.309,133.136 	"/>
	<path fill-rule="evenodd" clip-rule="evenodd" fill="#23346C" d="M50.984,130.583c-0.064,1.224-0.112,1.564-0.278,1.882
		c-0.12,0.225-0.294,0.362-0.475,0.353c-0.179-0.009-0.338-0.164-0.434-0.401c-0.133-0.333-0.145-0.677-0.08-1.901
		c0.064-1.224,0.112-1.565,0.278-1.881c0.119-0.227,0.295-0.363,0.473-0.354c0.18,0.009,0.34,0.164,0.434,0.401
		C51.036,129.016,51.048,129.359,50.984,130.583 M51.447,130.608c0.062-1.172,0.105-1.848-0.162-2.463
		c-0.188-0.431-0.445-0.675-0.771-0.693c-0.325-0.016-0.602,0.2-0.834,0.608c-0.331,0.584-0.363,1.26-0.424,2.433
		c-0.062,1.173-0.101,1.848,0.167,2.463c0.188,0.431,0.441,0.676,0.766,0.693c0.325,0.017,0.608-0.199,0.839-0.608
		C51.358,132.457,51.385,131.78,51.447,130.608"/>
	<polygon fill-rule="evenodd" clip-rule="evenodd" fill="#23346C" points="55.319,133.641 55.319,127.539 54.855,127.539 
		53.982,131.336 53.091,127.539 52.628,127.539 52.628,133.641 53.091,133.641 53.091,129.561 53.811,132.535 54.153,132.535 
		54.855,129.561 54.855,133.641 	"/>
	<polygon fill-rule="evenodd" clip-rule="evenodd" fill="#23346C" points="59.044,133.537 58.831,127.439 58.369,127.455 
		58.518,131.737 56.96,127.505 56.535,127.519 56.749,133.618 57.211,133.603 57.061,129.311 58.62,133.553 	"/>
	
		<rect x="57.369" y="130.143" transform="matrix(0.0872 0.9962 -0.9962 0.0872 185.0296 58.8168)" fill-rule="evenodd" clip-rule="evenodd" fill="#23346C" width="6.101" height="0.463"/>
	<path fill-rule="evenodd" clip-rule="evenodd" fill="#23346C" d="M64.256,130.986l-0.423-4.023l-0.46,0.048l0.418,3.98
		c0.085,0.81-0.114,1.34-0.493,1.379c-0.379,0.04-0.679-0.436-0.764-1.246l-0.418-3.98l-0.461,0.048l0.423,4.023
		c0.131,1.253,0.69,2.048,1.307,1.983C64.004,133.132,64.388,132.238,64.256,130.986"/>
	<polygon fill-rule="evenodd" clip-rule="evenodd" fill="#23346C" points="68.522,132.472 67.673,126.43 67.215,126.494 
		66.877,130.374 65.466,126.739 65.008,126.803 65.857,132.846 66.316,132.781 65.748,128.741 66.874,131.587 67.215,131.539 
		67.496,128.497 68.064,132.536 	"/>
	<path fill-rule="evenodd" clip-rule="evenodd" fill="#23346C" d="M72.549,129.642l-0.918,0.195l-0.098-2.747L72.549,129.642z
		 M73.78,131.44l-2.363-5.736l-0.365,0.077l0.175,6.202l0.482-0.103l-0.049-1.242l1.178-0.25l0.46,1.155L73.78,131.44z"/>
	<polygon fill-rule="evenodd" clip-rule="evenodd" fill="#23346C" points="77.051,130.597 75.574,124.676 75.126,124.787 
		76.163,128.946 73.758,125.13 73.347,125.231 74.822,131.152 75.271,131.041 74.233,126.875 76.639,130.7 	"/>
	
		<rect x="74.787" y="126.982" transform="matrix(0.2757 0.9612 -0.9612 0.2757 178.661 17.3185)" fill-rule="evenodd" clip-rule="evenodd" fill="#23346C" width="6.102" height="0.463"/>
	<polygon fill-rule="evenodd" clip-rule="evenodd" fill="#23346C" points="82.809,128.862 80.924,123.058 80.483,123.201 
		80.825,127.083 78.805,123.747 78.364,123.89 80.25,129.694 80.69,129.55 79.43,125.67 81.033,128.276 81.36,128.17 
		81.108,125.126 82.369,129.005 	"/>
	<path fill-rule="evenodd" clip-rule="evenodd" fill="#23346C" d="M85.443,125.644l-1.45-3.777l-0.432,0.166l1.434,3.738
		c0.292,0.759,0.237,1.322-0.119,1.459c-0.356,0.136-0.769-0.246-1.061-1.006l-1.434-3.737l-0.432,0.166l1.45,3.776
		c0.451,1.177,1.195,1.799,1.776,1.577C85.755,127.782,85.894,126.82,85.443,125.644"/>
	<polygon fill-rule="evenodd" clip-rule="evenodd" fill="#23346C" points="89.924,125.962 87.442,120.389 87.019,120.576 
		87.766,124.401 85.406,121.295 84.984,121.483 87.466,127.058 87.889,126.869 86.229,123.142 88.097,125.565 88.41,125.426 
		87.842,122.425 89.502,126.151 	"/>
	<polygon fill="#E30613" points="41.263,20.422 41.263,27.181 41.263,33.938 37.867,30.559 37.746,30.438 32.221,30.438 
		32.221,35.933 32.357,36.07 35.735,39.466 32.221,39.466 28.977,39.466 25.821,39.466 22.219,39.466 25.598,36.07 25.821,35.846 
		25.821,30.438 20.196,30.438 20.073,30.559 16.679,33.938 16.679,30.438 16.679,27.181 16.679,23.923 16.679,20.422 20.073,23.802 
		20.196,23.923 25.821,23.923 25.821,18.482 25.598,18.258 22.219,14.863 28.977,14.863 35.735,14.863 32.357,18.258 32.221,18.394 
		32.221,23.923 37.746,23.923 37.867,23.802 	"/>
	<polygon fill="#FFFFFF" points="28.465,18.227 29.477,18.227 29.477,26.658 37.909,26.658 37.909,27.67 29.477,27.67 
		29.477,36.102 28.465,36.102 28.465,27.67 20.032,27.67 20.032,26.658 28.465,26.658 	"/>
	<polygon fill="#E30613" points="65.865,45.006 65.865,51.765 65.865,58.522 62.47,55.143 62.348,55.022 56.822,55.022 
		56.822,60.517 56.958,60.655 60.337,64.05 56.822,64.05 53.58,64.05 50.423,64.05 46.821,64.05 50.2,60.655 50.423,60.431 
		50.423,55.022 44.797,55.022 44.675,55.143 41.28,58.522 41.28,55.022 41.28,51.765 41.28,48.507 41.28,45.006 44.675,48.385 
		44.797,48.507 50.423,48.507 50.423,43.066 50.2,42.842 46.821,39.447 53.58,39.447 60.337,39.447 56.958,42.842 56.822,42.978 
		56.822,48.507 62.348,48.507 62.47,48.385 	"/>
	<polygon fill="#FFFFFF" points="53.066,42.81 54.079,42.81 54.079,51.242 62.511,51.242 62.511,52.255 54.079,52.255 
		54.079,60.686 53.066,60.686 53.066,52.255 44.634,52.255 44.634,51.242 53.066,51.242 	"/>
	<polygon fill="#E30613" points="90.32,69.402 90.32,76.161 90.32,82.918 86.924,79.539 86.803,79.417 81.277,79.417 81.277,84.914 
		81.413,85.05 84.792,88.445 81.277,88.445 78.034,88.445 74.877,88.445 71.275,88.445 74.655,85.05 74.877,84.826 74.877,79.417 
		69.252,79.417 69.13,79.539 65.736,82.918 65.736,79.417 65.736,76.161 65.736,72.903 65.736,69.402 69.13,72.781 69.252,72.903 
		74.877,72.903 74.877,67.461 74.655,67.238 71.275,63.843 78.034,63.842 84.792,63.843 81.413,67.238 81.277,67.374 81.277,72.903 
		86.803,72.903 86.924,72.781 	"/>
	<polygon fill="#FFFFFF" points="77.521,67.206 78.533,67.206 78.533,75.639 86.966,75.639 86.966,76.65 78.533,76.65 
		78.533,85.082 77.521,85.082 77.521,76.65 69.089,76.65 69.089,75.639 77.521,75.639 	"/>
	<polygon fill="#23346C" points="4.048,178.906 4.048,183.303 11.109,183.303 11.109,186.419 4.048,186.419 4.048,193.68 
		0.555,193.68 0.555,175.789 12.34,175.789 12.34,178.906 	"/>
	<path fill="#23346C" d="M25.591,191.871c-1.256,1.255-2.789,1.96-4.824,1.96c-2.035,0-3.594-0.705-4.85-1.96
		c-1.81-1.81-1.759-4.046-1.759-7.136c0-3.091-0.05-5.327,1.759-7.137c1.256-1.256,2.814-1.959,4.85-1.959
		c2.035,0,3.568,0.703,4.824,1.959c1.81,1.809,1.784,4.045,1.784,7.137C27.375,187.825,27.401,190.061,25.591,191.871
		 M23.003,179.709c-0.502-0.578-1.282-0.955-2.236-0.955c-0.955,0-1.759,0.377-2.262,0.955c-0.678,0.753-0.854,1.583-0.854,5.026
		c0,3.441,0.176,4.271,0.854,5.024c0.502,0.579,1.307,0.956,2.262,0.956c0.954,0,1.734-0.377,2.236-0.956
		c0.679-0.753,0.879-1.583,0.879-5.024C23.883,181.292,23.682,180.463,23.003,179.709"/>
	<polygon fill="#23346C" points="43.087,193.68 43.087,183.253 39.669,190.036 37.308,190.036 33.866,183.253 33.866,193.68 
		30.373,193.68 30.373,175.79 33.815,175.79 38.489,185.463 43.137,175.79 46.58,175.79 46.58,193.68 	"/>
	<polygon fill="#23346C" points="50.116,193.68 50.116,175.79 61.9,175.79 61.9,178.906 53.609,178.906 53.609,183.102 
		60.67,183.102 60.67,186.217 53.609,186.217 53.609,190.564 61.9,190.564 61.9,193.68 	"/>
	<polygon fill="#23346C" points="75.296,193.68 68.21,182.699 68.21,193.68 64.717,193.68 64.717,175.79 67.833,175.79 
		74.919,186.745 74.919,175.79 78.412,175.79 78.412,193.68 	"/>
	<polygon fill="#23346C" points="88.949,178.906 88.949,193.68 85.456,193.68 85.456,178.906 80.783,178.906 80.783,175.789 
		93.622,175.789 93.622,178.906 	"/>
	<path fill="#23346C" d="M106.781,191.871c-1.256,1.255-2.789,1.96-4.824,1.96c-2.036,0-3.594-0.705-4.85-1.96
		c-1.809-1.81-1.759-4.046-1.759-7.136c0-3.091-0.05-5.327,1.759-7.137c1.257-1.256,2.814-1.959,4.85-1.959
		c2.035,0,3.568,0.703,4.824,1.959c1.809,1.809,1.784,4.045,1.784,7.137C108.565,187.825,108.59,190.061,106.781,191.871
		 M104.193,179.709c-0.502-0.578-1.282-0.955-2.236-0.955c-0.955,0-1.759,0.377-2.262,0.955c-0.679,0.753-0.854,1.583-0.854,5.026
		c0,3.441,0.176,4.271,0.854,5.024c0.502,0.579,1.307,0.956,2.262,0.956c0.954,0,1.734-0.377,2.236-0.956
		c0.678-0.753,0.879-1.583,0.879-5.024C105.073,181.292,104.872,180.463,104.193,179.709"/>
	<path fill="#23346C" d="M6.622,169.806c-1.711,0-3.297-0.654-4.48-1.837c-1.636-1.636-1.661-3.246-1.661-7.272
		c0-4.052,0.025-5.638,1.661-7.273c1.183-1.183,2.769-1.838,4.48-1.838c3.221,0,5.486,2.014,6.09,5.234h-1.384
		c-0.528-2.491-2.29-4.027-4.706-4.027c-1.283,0-2.491,0.478-3.398,1.384c-1.283,1.283-1.384,2.692-1.384,6.519
		c0,3.824,0.101,5.234,1.384,6.518c0.907,0.905,2.114,1.384,3.398,1.384c2.416,0,4.228-1.534,4.757-4.027h1.334
		C12.108,167.793,9.793,169.806,6.622,169.806"/>
	<path fill="#23346C" d="M26.732,167.969c-1.183,1.184-2.768,1.837-4.48,1.837c-1.711,0-3.297-0.654-4.479-1.837
		c-1.636-1.636-1.66-3.246-1.66-7.273c0-4.052,0.025-5.637,1.66-7.273c1.182-1.183,2.768-1.838,4.479-1.838
		c1.712,0,3.297,0.655,4.48,1.838c1.635,1.635,1.661,3.22,1.661,7.273C28.393,164.723,28.367,166.333,26.732,167.969 M25.65,154.178
		c-0.905-0.906-2.114-1.384-3.398-1.384c-1.283,0-2.491,0.478-3.398,1.384c-1.283,1.283-1.384,2.692-1.384,6.518
		c0,3.825,0.101,5.234,1.384,6.518c0.907,0.906,2.114,1.384,3.398,1.384c1.283,0,2.492-0.478,3.398-1.384
		c1.283-1.284,1.384-2.693,1.384-6.518C27.034,156.87,26.933,155.461,25.65,154.178"/>
	<polygon fill="#23346C" points="32.422,151.737 33.782,151.737 33.782,168.448 43.294,168.448 43.294,169.656 32.422,169.656 	"/>
	<path fill="#23346C" d="M46.515,151.737h10.872v1.207h-9.513v7.072h8.103v1.209h-8.103v7.223h9.513v1.209H46.515V151.737z
		 M50.466,150.025l2.441-3.7h1.686l-2.668,3.7H50.466z"/>
	<path fill="#23346C" d="M70.662,167.742c-1.183,1.309-2.895,2.064-4.706,2.064c-1.711,0-3.296-0.654-4.479-1.837
		c-1.636-1.636-1.662-3.246-1.662-7.273c0-4.052,0.026-5.637,1.662-7.273c1.183-1.183,2.769-1.838,4.479-1.838
		c3.121,0,5.588,2.089,6.116,5.234h-1.359c-0.529-2.491-2.341-4.027-4.757-4.027c-1.283,0-2.491,0.478-3.397,1.384
		c-1.283,1.283-1.384,2.692-1.384,6.518c0,3.825,0.101,5.234,1.384,6.518c0.905,0.906,2.114,1.384,3.397,1.384
		c1.409,0,2.793-0.604,3.725-1.737c0.781-0.982,1.082-2.013,1.082-3.549v-1.609h-4.807v-1.209h6.166v2.92
		C72.122,165.302,71.745,166.611,70.662,167.742"/>
	<rect x="76.043" y="151.737" fill="#23346C" width="1.359" height="17.919"/>
	<path fill="#23346C" d="M92.056,167.969c-1.183,1.184-2.769,1.837-4.48,1.837c-1.711,0-3.297-0.654-4.479-1.837
		c-1.636-1.636-1.661-3.246-1.661-7.273c0-4.052,0.025-5.637,1.661-7.273c1.182-1.183,2.768-1.838,4.479-1.838
		c1.711,0,3.297,0.655,4.48,1.838c1.635,1.635,1.661,3.22,1.661,7.273C93.717,164.723,93.691,166.333,92.056,167.969
		 M90.974,154.178c-0.906-0.906-2.114-1.384-3.398-1.384c-1.283,0-2.491,0.478-3.398,1.384c-1.283,1.283-1.384,2.692-1.384,6.518
		c0,3.825,0.101,5.234,1.384,6.518c0.907,0.906,2.114,1.384,3.398,1.384c1.283,0,2.491-0.478,3.398-1.384
		c1.283-1.284,1.384-2.693,1.384-6.518C92.358,156.87,92.257,155.461,90.974,154.178"/>
	<path fill="#23346C" d="M102.575,169.806c-2.643,0-4.329-0.73-5.965-2.366l0.957-0.956c1.611,1.611,2.944,2.114,5.083,2.114
		c2.844,0,4.606-1.358,4.606-3.699c0-1.083-0.302-1.939-0.982-2.517c-0.679-0.529-1.107-0.755-2.592-0.957l-2.089-0.327
		c-1.359-0.202-2.416-0.628-3.197-1.309c-0.93-0.78-1.409-1.887-1.409-3.297c0-3.02,2.114-4.907,5.561-4.907
		c2.215,0,3.625,0.604,5.159,1.938l-0.881,0.881c-1.057-1.006-2.239-1.661-4.354-1.661c-2.617,0-4.152,1.409-4.152,3.699
		c0,1.033,0.302,1.813,0.93,2.341c0.629,0.528,1.661,0.931,2.668,1.107l1.938,0.302c1.686,0.227,2.466,0.554,3.196,1.182
		c0.982,0.806,1.561,2.04,1.561,3.473C108.615,167.894,106.325,169.806,102.575,169.806"/>
</g>
</svg>
