<?xml version="1.0" encoding="UTF-8" standalone="no"?>
<!-- Created with Inkscape (http://www.inkscape.org/) -->

<svg
   xmlns:dc="http://purl.org/dc/elements/1.1/"
   xmlns:cc="http://creativecommons.org/ns#"
   xmlns:rdf="http://www.w3.org/1999/02/22-rdf-syntax-ns#"
   xmlns:svg="http://www.w3.org/2000/svg"
   xmlns="http://www.w3.org/2000/svg"
   xmlns:sodipodi="http://sodipodi.sourceforge.net/DTD/sodipodi-0.dtd"
   xmlns:inkscape="http://www.inkscape.org/namespaces/inkscape"
   width="27.287514mm"
   height="13.233203mm"
   viewBox="0 0 27.287514 13.233203"
   version="1.1"
   id="svg1524"
   inkscape:version="0.92.3 (2405546, 2018-03-11)"
   sodipodi:docname="mbway.svg">
  <defs
     id="defs1518" />
  <sodipodi:namedview
     id="base"
     pagecolor="#ffffff"
     bordercolor="#666666"
     borderopacity="1.0"
     inkscape:pageopacity="0.0"
     inkscape:pageshadow="2"
     inkscape:zoom="5.6"
     inkscape:cx="48.161578"
     inkscape:cy="34.47028"
     inkscape:document-units="mm"
     inkscape:current-layer="layer1"
     showgrid="false"
     fit-margin-top="0"
     fit-margin-left="0"
     fit-margin-right="0"
     fit-margin-bottom="0"
     inkscape:window-width="1440"
     inkscape:window-height="835"
     inkscape:window-x="0"
     inkscape:window-y="40"
     inkscape:window-maximized="1" />
  <metadata
     id="metadata1521">
    <rdf:RDF>
      <cc:Work
         rdf:about="">
        <dc:format>image/svg+xml</dc:format>
        <dc:type
           rdf:resource="http://purl.org/dc/dcmitype/StillImage" />
        <dc:title></dc:title>
      </cc:Work>
    </rdf:RDF>
  </metadata>
  <g
     inkscape:label="Layer 1"
     inkscape:groupmode="layer"
     id="layer1"
     transform="translate(5.3282809,-138.43697)">
    <g
       id="g1675"
       transform="matrix(0.45216474,0,0,0.45216474,71.551253,114.33059)"
       style="fill:#585858;fill-opacity:1">
      <g
         id="g1324"
         transform="matrix(0.35277777,0,0,-0.35277777,-156.06578,64.412202)"
         style="fill:#585858;fill-opacity:1">
        <path
           d="m 0,0 c -1.996,-5.222 -4.031,-10.43 -5.975,-15.672 -1.238,-3.336 -2.331,-6.727 -3.509,-10.086 -0.784,-2.233 -2.059,-3.224 -4.056,-3.214 -1.982,0.009 -3.226,1.03 -4.046,3.25 -2.932,7.936 -5.871,15.869 -8.825,23.798 -0.238,0.64 -0.609,1.231 -1.165,2.336 -0.442,-3.356 -0.841,-6.197 -1.187,-9.044 -0.746,-6.146 -1.456,-12.296 -2.198,-18.443 -0.275,-2.273 -1.777,-3.446 -3.972,-3.157 -1.966,0.258 -2.7,1.43 -2.389,3.861 1.428,11.18 2.87,22.359 4.284,33.541 0.178,1.411 0.735,2.502 2.177,2.838 2.103,0.489 4.155,0.328 5.61,-1.468 0.87,-1.074 1.583,-2.331 2.122,-3.608 2.722,-6.453 5.368,-12.937 8.03,-19.415 0.509,-1.239 0.972,-2.496 1.582,-4.07 1.527,3.962 2.854,7.68 4.387,11.311 2.065,4.889 4.184,9.763 6.49,14.542 1.214,2.517 3.366,3.319 6.011,2.825 1.497,-0.28 2.373,-1.121 2.573,-2.671 1.478,-11.469 2.978,-22.935 4.45,-34.405 0.233,-1.82 -0.669,-2.991 -2.383,-3.262 -1.924,-0.304 -3.651,0.628 -3.902,2.345 -0.533,3.64 -0.907,7.302 -1.361,10.953 C 2.051,-11.31 1.342,-5.708 0.638,-0.104 0.425,-0.069 0.213,-0.035 0,0"
           style="fill:#000000;fill-opacity:1;fill-rule:nonzero;stroke:none"
           id="path1326"
           inkscape:connector-curvature="0" />
      </g>
      <g
         id="g1328"
         transform="matrix(0.35277777,0,0,-0.35277777,-149.07768,72.859536)"
         style="fill:#585858;fill-opacity:1">
        <path
           d="m 0,0 c 5.301,0 10.548,-0.159 15.778,0.074 2.262,0.101 3.964,1.653 4.695,3.935 1.186,3.703 -1.572,7.252 -5.857,7.45 -2.507,0.116 -5.024,0 -7.535,0.058 -1.821,0.043 -3.046,1.26 -3.083,2.919 -0.039,1.745 1.203,2.99 3.121,3.046 1.634,0.047 3.277,-0.067 4.905,0.043 3.099,0.21 5.247,2.245 5.392,4.97 0.152,2.853 -1.753,5.339 -4.911,5.558 C 8.401,28.337 4.263,28.122 0,28.122 Z m 20.948,15.352 c 2.105,-1.372 4.18,-3.455 5.113,-6.44 C 28.388,1.466 22.922,-6.051 14.838,-6.288 8.997,-6.46 3.147,-6.35 -2.698,-6.313 c -2.253,0.015 -3.471,1.252 -3.475,3.509 -0.022,11.165 -0.023,22.331 0.002,33.496 0.005,2.252 1.233,3.481 3.481,3.496 4.735,0.031 9.474,0.11 14.204,-0.048 7.101,-0.237 12.153,-5.285 11.684,-11.913 -0.159,-2.249 -1.412,-4.421 -2.25,-6.875"
           style="fill:#000000;fill-opacity:1;fill-rule:nonzero;stroke:none"
           id="path1330"
           inkscape:connector-curvature="0" />
      </g>
      <g
         id="g1332"
         transform="matrix(0.35277777,0,0,-0.35277777,-154.31865,82.578034)"
         style="fill:#585858;fill-opacity:1">
        <path
           d="m 0,0 c -12.153,0.001 -24.306,-0.006 -36.459,0.005 -5.608,0.005 -8.683,3.575 -7.96,9.19 0.097,0.753 0.115,1.522 0.277,2.259 0.378,1.715 1.849,2.789 3.44,2.586 1.64,-0.208 2.738,-1.528 2.743,-3.297 0.001,-0.117 -0.008,-0.233 -0.012,-0.35 -0.156,-4.197 -0.156,-4.178 4.143,-4.176 22.903,0.011 45.807,0.01 68.711,0.016 3.21,0.001 3.544,0.379 3.248,3.565 -0.049,0.521 -0.127,1.061 -0.046,1.569 0.253,1.58 1.242,2.532 2.808,2.662 1.566,0.131 2.896,-0.6 3.157,-2.167 C 44.381,9.87 44.633,7.768 44.357,5.792 43.846,2.129 41.028,0.01 37.16,0.005 24.774,-0.012 12.387,-0.001 0,0"
           style="fill:#e02111;fill-opacity:1;fill-rule:nonzero;stroke:none"
           id="path1334"
           inkscape:connector-curvature="0" />
      </g>
      <g
         id="g1336"
         transform="matrix(0.35277777,0,0,-0.35277777,-154.23963,53.315048)"
         style="fill:#585858;fill-opacity:1">
        <path
           d="m 0,0 c 8.946,0 17.891,0.005 26.837,-0.002 4.832,-0.004 7.465,-2.041 8.653,-6.761 0.326,-1.297 0.556,-2.637 0.647,-3.969 0.127,-1.872 -1.075,-3.244 -2.786,-3.403 -1.769,-0.165 -3.127,0.915 -3.453,2.756 -0.061,0.344 -0.07,0.698 -0.125,1.044 -0.543,3.448 -1.203,4.032 -4.649,4.033 -16.897,0.004 -33.794,0.004 -50.691,-0.004 -3.073,-0.002 -3.87,-0.74 -4.264,-3.82 -0.067,-0.521 -0.142,-1.045 -0.27,-1.554 -0.436,-1.737 -1.79,-2.67 -3.501,-2.441 -1.561,0.21 -2.885,1.557 -2.671,3.159 0.283,2.123 0.642,4.303 1.425,6.278 1.263,3.185 3.827,4.7 7.31,4.689 9.179,-0.03 18.358,-0.01 27.538,-0.01 z"
           style="fill:#e02111;fill-opacity:1;fill-rule:nonzero;stroke:none"
           id="path1338"
           inkscape:connector-curvature="0" />
      </g>
      <g
         id="g1340"
         transform="matrix(0.35277777,0,0,-0.35277777,-131.26466,70.35418)"
         style="fill:#585858;fill-opacity:1">
        <path
           d="m 0,0 c 0.869,3.366 1.757,6.727 2.602,10.099 0.61,2.435 1.175,4.881 1.737,7.327 0.298,1.301 0.997,2.102 2.411,2.053 1.345,-0.046 1.915,-0.908 2.188,-2.107 1.168,-5.122 2.347,-10.241 3.534,-15.358 0.142,-0.61 0.359,-1.204 0.9,-1.843 0.614,2.611 1.252,5.216 1.834,7.834 0.747,3.363 1.445,6.736 2.171,10.103 0.353,1.633 1.234,2.358 2.485,1.988 1.384,-0.41 1.49,-1.409 1.196,-2.652 C 19.459,10.685 17.915,3.912 16.3,-2.843 15.918,-4.441 15.22,-5.84 13.19,-5.83 11.598,-5.822 10.696,-5.016 10.31,-3.536 9.161,0.867 8.016,5.272 6.87,9.676 6.813,9.894 6.756,10.111 6.559,10.865 5.998,8.712 5.582,7.042 5.125,5.382 4.319,2.458 3.495,-0.462 2.665,-3.379 c -0.419,-1.469 -1.17,-2.5 -2.93,-2.461 -1.652,0.037 -2.454,0.979 -2.793,2.406 -1.699,7.152 -3.369,14.312 -5.034,21.472 -0.262,1.124 0.286,1.844 1.359,2.06 1.229,0.249 2.055,-0.301 2.313,-1.549 C -3.688,15.004 -3,11.449 -2.253,7.906 -1.699,5.282 -1.078,2.671 -0.487,0.055 -0.325,0.036 -0.162,0.018 0,0"
           style="fill:#000000;fill-opacity:1;fill-rule:nonzero;stroke:none"
           id="path1342"
           inkscape:connector-curvature="0" />
      </g>
      <g
         id="g1344"
         transform="matrix(0.35277777,0,0,-0.35277777,-118.3307,68.53187)"
         style="fill:#585858;fill-opacity:1">
        <path
           d="M 0,0 C -1.283,3.53 -2.478,6.816 -3.673,10.103 -3.845,10.086 -4.016,10.068 -4.188,10.051 -5.347,6.748 -6.506,3.446 -7.715,0 Z m 6.81,-9.703 c -0.411,-0.353 -0.931,-1.156 -1.453,-1.158 -0.716,-0.002 -1.802,0.421 -2.081,0.983 -0.77,1.555 -1.27,3.258 -1.746,4.939 -0.285,1.005 -0.724,1.412 -1.819,1.372 -2.45,-0.087 -4.908,-0.077 -7.359,-0.005 -0.991,0.029 -1.471,-0.28 -1.72,-1.245 -0.407,-1.58 -0.939,-3.127 -1.409,-4.691 -0.402,-1.335 -1.382,-1.74 -2.593,-1.394 -1.258,0.359 -1.288,1.454 -0.941,2.448 2.458,7.046 4.95,14.079 7.458,21.107 0.5,1.402 1.307,2.425 3.052,2.369 1.661,-0.053 2.335,-1.07 2.815,-2.417 C 1.5,5.629 3.994,-1.345 6.478,-8.322 6.594,-8.647 6.643,-8.997 6.81,-9.703"
           style="fill:#000000;fill-opacity:1;fill-rule:nonzero;stroke:none"
           id="path1346"
           inkscape:connector-curvature="0" />
      </g>
      <g
         id="g1348"
         transform="matrix(0.35277777,0,0,-0.35277777,-112.83185,67.67829)"
         style="fill:#585858;fill-opacity:1">
        <path
           d="m 0,0 c 1.729,3.644 3.229,6.801 4.724,9.96 0.225,0.474 0.425,0.961 0.638,1.441 0.491,1.11 1.361,1.451 2.435,1.006 C 8.904,11.948 9.227,11.049 8.688,9.965 6.637,5.844 4.541,1.745 2.507,-2.384 2.139,-3.132 1.809,-3.977 1.771,-4.792 1.668,-6.949 1.741,-9.115 1.73,-11.277 c -0.006,-1.188 -0.412,-2.101 -1.779,-2.115 -1.441,-0.016 -2.032,0.894 -1.869,2.174 0.647,5.077 -0.652,9.561 -3.525,13.789 -1.425,2.097 -2.245,4.607 -3.301,6.948 -0.487,1.08 -0.719,2.216 0.65,2.84 1.38,0.63 2.151,-0.102 2.718,-1.345 C -4.045,8.093 -2.653,5.2 -1.269,2.304 -0.974,1.687 -0.61,1.102 0,0"
           style="fill:#000000;fill-opacity:1;fill-rule:nonzero;stroke:none"
           id="path1350"
           inkscape:connector-curvature="0" />
      </g>
    </g>
  </g>
</svg>
