<?xml version="1.0" encoding="UTF-8" standalone="no"?>
<!-- Created with Inkscape (http://www.inkscape.org/) -->

<svg
   xmlns:dc="http://purl.org/dc/elements/1.1/"
   xmlns:cc="http://creativecommons.org/ns#"
   xmlns:rdf="http://www.w3.org/1999/02/22-rdf-syntax-ns#"
   xmlns:svg="http://www.w3.org/2000/svg"
   xmlns="http://www.w3.org/2000/svg"
   xmlns:sodipodi="http://sodipodi.sourceforge.net/DTD/sodipodi-0.dtd"
   xmlns:inkscape="http://www.inkscape.org/namespaces/inkscape"
   width="47.977119mm"
   height="8.7312498mm"
   viewBox="0 0 47.977119 8.7312498"
   version="1.1"
   id="svg1256"
   inkscape:version="0.92.5 (2060ec1f9f, 2020-04-08)"
   sodipodi:docname="paypal.svg">
  <defs
     id="defs1250" />
  <sodipodi:namedview
     id="base"
     pagecolor="#ffffff"
     bordercolor="#666666"
     borderopacity="1.0"
     inkscape:pageopacity="0.0"
     inkscape:pageshadow="2"
     inkscape:zoom="3.959798"
     inkscape:cx="9.8392936"
     inkscape:cy="-10.338567"
     inkscape:document-units="mm"
     inkscape:current-layer="layer1"
     showgrid="false"
     fit-margin-top="0"
     fit-margin-left="0"
     fit-margin-right="0"
     fit-margin-bottom="0"
     inkscape:window-width="1600"
     inkscape:window-height="836"
     inkscape:window-x="0"
     inkscape:window-y="40"
     inkscape:window-maximized="1" />
  <metadata
     id="metadata1253">
    <rdf:RDF>
      <cc:Work
         rdf:about="">
        <dc:format>image/svg+xml</dc:format>
        <dc:type
           rdf:resource="http://purl.org/dc/dcmitype/StillImage" />
        <dc:title></dc:title>
      </cc:Work>
    </rdf:RDF>
  </metadata>
  <g
     inkscape:label="Layer 1"
     inkscape:groupmode="layer"
     id="layer1"
     transform="translate(-37.999535,-49.973661)">
    <g
       transform="matrix(0.26458333,0,0,0.26458333,74.198895,34.610658)"
       id="g1248">
      <g
         transform="translate(105.91051,49.836708)"
         id="g1223">
        <path
           style="opacity:1;fill:#253b80;fill-opacity:1;stroke:none;stroke-width:2.21493244;stroke-linecap:round;stroke-linejoin:round;stroke-miterlimit:4;stroke-dasharray:none;stroke-dashoffset:0;stroke-opacity:1;paint-order:fill markers stroke"
           d="M -242.72699,8.2281848 V 41.228185 h 84.30468 l 5.20508,-33.0000002 z"
           id="rect827-2"
           inkscape:connector-curvature="0" />
        <g
           id="g1927"
           transform="translate(0,-0.97051431)">
          <g
             transform="matrix(0.94466366,0,0,0.94466366,-23.260967,2.0116067)"
             id="g1188">
            <g
               transform="matrix(0.29824038,0,0,0.29824038,-160.80907,23.655086)"
               id="g929">
              <path
                 inkscape:connector-curvature="0"
                 style="fill:#253b80"
                 d="m -204.59725,41.550957 0.523,-3.322 -1.165,-0.027 h -5.563 l 3.866,-24.513 a 0.316,0.316 0 0 1 0.314,-0.268 h 9.38 c 3.114,0 5.263,0.648 6.385,1.927 0.526,0.6 0.861,1.227 1.023,1.917 0.17,0.724 0.173,1.589 0.007,2.644 l -0.012,0.077 v 0.676 l 0.526,0.298 a 3.69,3.69 0 0 1 1.065,0.812 c 0.45,0.513 0.741,1.165 0.864,1.938 0.127,0.795 0.085,1.741 -0.123,2.812 -0.24,1.232 -0.628,2.305 -1.152,3.183 a 6.547,6.547 0 0 1 -1.825,2 c -0.696,0.494 -1.523,0.869 -2.458,1.109 -0.906,0.236 -1.939,0.355 -3.072,0.355 h -0.73 c -0.522,0 -1.029,0.188 -1.427,0.525 a 2.21,2.21 0 0 0 -0.744,1.328 l -0.055,0.299 -0.924,5.855 -0.042,0.215 c -0.011,0.068 -0.03,0.102 -0.058,0.125 a 0.155,0.155 0 0 1 -0.096,0.035 z"
                 id="path6-5" />
              <path
                 inkscape:connector-curvature="0"
                 style="opacity:0.5;fill:#ffffff"
                 d="m -188.81525,20.063957 c -0.028,0.179 -0.06,0.362 -0.096,0.55 -1.237,6.351 -5.469,8.545 -10.874,8.545 h -2.752 c -0.661,0 -1.218,0.48 -1.321,1.132 l -1.409,8.936 -0.399,2.533 a 0.704,0.704 0 0 0 0.695,0.814 h 4.881 c 0.578,0 1.069,-0.42 1.16,-0.99 l 0.048,-0.248 0.919,-5.832 0.059,-0.32 c 0.09,-0.572 0.582,-0.992 1.16,-0.992 h 0.73 c 4.729,0 8.431,-1.92 9.513,-7.476 0.452,-2.321 0.218,-4.259 -0.978,-5.622 a 4.667,4.667 0 0 0 -1.336,-1.03 z"
                 id="path8-3" />
              <path
                 inkscape:connector-curvature="0"
                 style="opacity:0.8;fill:#ffffff"
                 d="m -190.10925,19.547957 a 9.757,9.757 0 0 0 -1.203,-0.267 15.284,15.284 0 0 0 -2.426,-0.177 h -7.352 a 1.172,1.172 0 0 0 -1.159,0.992 l -1.564,9.906 -0.045,0.289 a 1.336,1.336 0 0 1 1.321,-1.132 h 2.752 c 5.405,0 9.637,-2.195 10.874,-8.545 0.037,-0.188 0.068,-0.371 0.096,-0.55 a 6.594,6.594 0 0 0 -1.017,-0.429 9.045,9.045 0 0 0 -0.277,-0.087 z"
                 id="path10-5" />
              <path
                 inkscape:connector-curvature="0"
                 style="fill:#ffffff"
                 d="m -202.24925,20.095957 a 1.169,1.169 0 0 1 1.159,-0.991 h 7.352 c 0.871,0 1.684,0.057 2.426,0.177 a 9.757,9.757 0 0 1 1.481,0.353 c 0.365,0.121 0.704,0.264 1.017,0.429 0.368,-2.347 -0.003,-3.945 -1.272,-5.392 -1.399,-1.593 -3.924,-2.275 -7.155,-2.275 h -9.38 c -0.66,0 -1.223,0.48 -1.325,1.133 l -3.907,24.765 a 0.806,0.806 0 0 0 0.795,0.932 h 5.791 l 1.454,-9.225 z"
                 id="path12-6" />
            </g>
            <g
               transform="matrix(0.7518831,0,0,0.7518831,-49.841158,8.6426594)"
               id="g1150">
              <path
                 id="path1033"
                 d="m -211.3625,36.787736 v -0.792634 a 0.47029661,0.47029661 0 0 0 -0.49672,-0.502002 0.48879142,0.48879142 0 0 0 -0.44388,0.22458 0.46369132,0.46369132 0 0 0 -0.41745,-0.22458 0.4174543,0.4174543 0 0 0 -0.3699,0.18759 v -0.155885 h -0.27478 v 1.262931 h 0.27742 V 36.09286 a 0.29591697,0.29591697 0 0 1 0.30913,-0.335549 c 0.18231,0 0.27478,0.118896 0.27478,0.332907 v 0.702803 h 0.27742 V 36.09286 a 0.29723803,0.29723803 0 0 1 0.30913,-0.335549 c 0.18759,0 0.27742,0.118896 0.27742,0.332907 v 0.702803 z m 4.10452,-1.262931 h -0.4518 v -0.383107 h -0.27742 v 0.383107 h -0.251 v 0.251001 h 0.25628 v 0.581266 c 0,0.293274 0.11361,0.467654 0.43859,0.467654 a 0.64467626,0.64467626 0 0 0 0.34348,-0.09776 l -0.0793,-0.235149 a 0.50728623,0.50728623 0 0 1 -0.24308,0.07134 c -0.13211,0 -0.18231,-0.08455 -0.18231,-0.21137 v -0.575981 h 0.44916 z m 2.34356,-0.03171 a 0.37253833,0.37253833 0 0 0 -0.33291,0.184948 V 35.5248 h -0.27214 v 1.262931 h 0.27478 v -0.708087 c 0,-0.208727 0.0898,-0.32498 0.26422,-0.32498 a 0.44783863,0.44783863 0 0 1 0.17173,0.03171 l 0.0846,-0.264212 a 0.58787077,0.58787077 0 0 0 -0.19552,-0.03435 z m -3.54308,0.132106 a 0.9445564,0.9445564 0 0 0 -0.51521,-0.132106 c -0.3197,0 -0.52842,0.153242 -0.52842,0.404243 0,0.206085 0.15324,0.332907 0.43595,0.372539 l 0.1321,0.01849 c 0.1506,0.02114 0.22194,0.06077 0.22194,0.132105 0,0.09776 -0.1004,0.153243 -0.28799,0.153243 a 0.67241847,0.67241847 0 0 1 -0.4201,-0.132106 l -0.1321,0.214012 a 0.91152995,0.91152995 0 0 0 0.54691,0.163811 c 0.36462,0 0.57599,-0.171738 0.57599,-0.41217 0,-0.240433 -0.16646,-0.338191 -0.44124,-0.377823 l -0.1321,-0.0185 c -0.1189,-0.01585 -0.21402,-0.03963 -0.21402,-0.124179 0,-0.08455 0.0898,-0.147959 0.24044,-0.147959 a 0.81377167,0.81377167 0 0 1 0.39631,0.108327 z m 7.35962,-0.132106 a 0.37253833,0.37253833 0 0 0 -0.33291,0.184948 V 35.5248 h -0.27214 v 1.262931 h 0.27478 v -0.708087 c 0,-0.208727 0.0898,-0.32498 0.26421,-0.32498 a 0.44783863,0.44783863 0 0 1 0.17174,0.03171 l 0.0846,-0.264212 a 0.58787077,0.58787077 0 0 0 -0.19552,-0.03435 z m -3.54044,0.660529 a 0.63807097,0.63807097 0 0 0 0.67374,0.660529 0.66052895,0.66052895 0 0 0 0.45444,-0.150601 l -0.1321,-0.221938 a 0.55484432,0.55484432 0 0 1 -0.33027,0.113611 0.40556478,0.40556478 0 0 1 0,-0.808487 0.55484432,0.55484432 0 0 1 0.33027,0.113611 l 0.1321,-0.221938 a 0.66052895,0.66052895 0 0 0 -0.45444,-0.150601 0.63807097,0.63807097 0 0 0 -0.67374,0.660529 z m 2.57342,0 V 35.5248 h -0.27478 v 0.153243 a 0.47954402,0.47954402 0 0 0 -0.39632,-0.184948 0.660529,0.660529 0 0 0 0,1.321058 0.47954402,0.47954402 0 0 0 0.39632,-0.184948 v 0.153242 h 0.27478 z m -1.0225,0 a 0.38178573,0.38178573 0 1 1 0.38311,0.404243 0.37914362,0.37914362 0 0 1 -0.38311,-0.404243 z m -3.31585,-0.660529 a 0.66059376,0.66059376 0 0 0 0.0185,1.321058 0.76753464,0.76753464 0 0 0 0.52446,-0.171738 l -0.1321,-0.203443 a 0.60108134,0.60108134 0 0 1 -0.36726,0.132106 0.35008034,0.35008034 0 0 1 -0.37782,-0.309128 h 0.93795 c 0,-0.03435 0,-0.06869 0,-0.105684 0,-0.396318 -0.24572,-0.660529 -0.59976,-0.660529 z m 0,0.245716 a 0.31309072,0.31309072 0 0 1 0.31969,0.306486 h -0.66053 a 0.32498024,0.32498024 0 0 1 0.33555,-0.306486 z m 6.88403,0.417455 v -1.138752 h -0.26421 v 0.660529 a 0.47954402,0.47954402 0 0 0 -0.39632,-0.184948 0.660529,0.660529 0 0 0 0,1.321058 0.47954402,0.47954402 0 0 0 0.39632,-0.184948 v 0.153242 h 0.26421 z m 0.45841,0.447838 a 0.13210579,0.13210579 0 0 1 0.0502,0.0092 0.13210579,0.13210579 0 0 1 0.041,0.02642 0.13210579,0.13210579 0 0 1 0.0277,0.03963 0.12285838,0.12285838 0 0 1 0,0.09776 0.13210579,0.13210579 0 0 1 -0.0277,0.03963 0.13210579,0.13210579 0 0 1 -0.041,0.02642 0.12417944,0.12417944 0 0 1 -0.0502,0.01057 0.13210579,0.13210579 0 0 1 -0.1189,-0.07662 0.12417944,0.12417944 0 0 1 0,-0.09776 0.13210579,0.13210579 0 0 1 0.0277,-0.03963 0.13210579,0.13210579 0 0 1 0.041,-0.02642 0.13210579,0.13210579 0 0 1 0.0542,-0.0092 z m 0,0.223259 a 0.09379511,0.09379511 0 0 0 0.0383,-0.0079 0.09907934,0.09907934 0 0 0 0.0304,-0.02114 0.09775828,0.09775828 0 0 0 0,-0.132106 0.09775828,0.09775828 0 0 0 -0.0304,-0.02114 0.09511617,0.09511617 0 0 0 -0.0383,-0.0079 0.09907934,0.09907934 0 0 0 -0.0383,0.0079 0.09643723,0.09643723 0 0 0 -0.0317,0.02114 0.09775828,0.09775828 0 0 0 0,0.132106 0.09775828,0.09775828 0 0 0 0.0317,0.02114 0.09775828,0.09775828 0 0 0 0.0423,0.0079 z m 0.008,-0.157206 a 0.05284232,0.05284232 0 0 1 0.0343,0.01057 0.03302645,0.03302645 0 0 1 0.0119,0.02774 0.03170539,0.03170539 0 0 1 -0.009,0.02378 0.04623703,0.04623703 0 0 1 -0.0277,0.01189 l 0.0383,0.04359 h -0.0304 l -0.0357,-0.04359 h -0.0119 v 0.04359 h -0.0251 v -0.116253 z m -0.0291,0.02246 v 0.03171 h 0.0291 a 0.02774222,0.02774222 0 0 0 0.0159,0 0.01321058,0.01321058 0 0 0 0,-0.01189 0.01321058,0.01321058 0 0 0 0,-0.01189 0.02774222,0.02774222 0 0 0 -0.0159,0 z m -1.45316,-0.536349 a 0.38178573,0.38178573 0 1 1 0.3831,0.404243 0.37914362,0.37914362 0 0 1 -0.3831,-0.404243 z m -9.27779,0 v -0.631466 h -0.27478 v 0.153243 a 0.47954402,0.47954402 0 0 0 -0.39632,-0.184948 0.660529,0.660529 0 0 0 0,1.321058 0.47954402,0.47954402 0 0 0 0.39632,-0.184948 v 0.153242 h 0.27478 z m -1.0225,0 a 0.38178573,0.38178573 0 1 1 0.3831,0.404243 0.37914362,0.37914362 0 0 1 -0.38574,-0.404243 z"
                 class="cls-2"
                 inkscape:connector-curvature="0"
                 style="fill:#ffffff;stroke-width:0.13210578" />
              <rect
                 style="fill:#ff5f00;stroke-width:0.13210578"
                 class="cls-3"
                 x="-208.54865"
                 y="25.900898"
                 width="4.1613326"
                 height="7.4785089"
                 id="rect1035" />
              <path
                 style="fill:#eb001b;stroke-width:0.13210578"
                 inkscape:connector-curvature="0"
                 id="_Path_-3"
                 data-name="&lt;Path&gt;"
                 class="cls-4"
                 d="m -208.28444,29.640813 a 4.7478821,4.7478821 0 0 1 1.81645,-3.739915 4.7558084,4.7558084 0 1 0 0,7.478509 4.7478821,4.7478821 0 0 1 -1.81645,-3.738594 z" />
              <path
                 style="fill:#f79e1b;stroke-width:0.13210578"
                 inkscape:connector-curvature="0"
                 class="cls-5"
                 d="m -198.77282,29.640813 a 4.7558084,4.7558084 0 0 1 -7.69517,3.738594 4.7558084,4.7558084 0 0 0 0,-7.478509 4.7558084,4.7558084 0 0 1 7.69517,3.738594 z"
                 id="path1038" />
              <path
                 style="fill:#f79e1b;stroke-width:0.13210578"
                 inkscape:connector-curvature="0"
                 class="cls-5"
                 d="M -199.22727,32.586772 V 32.43353 h 0.0621 v -0.03171 h -0.1572 v 0.03171 h 0.0674 v 0.153242 z m 0.30517,0 v -0.184948 h -0.0476 l -0.0555,0.132106 -0.0555,-0.132106 h -0.0423 v 0.184948 h 0.0343 v -0.138711 l 0.0515,0.120217 h 0.0357 l 0.0515,-0.120217 v 0.140032 z"
                 id="path1040" />
            </g>
            <g
               style="fill:#ffffff"
               id="g4158"
               transform="matrix(0.12319447,0,0,0.12319447,-198.05053,24.431014)">
              <path
                 inkscape:connector-curvature="0"
                 id="polygon9"
                 transform="matrix(7.7731225,0,0,7.7731225,1570.5578,-187.96765)"
                 d="m -180.68945,27.232422 c -2.32327,0 -3.95872,1.238534 -3.96875,3.009766 -0.0193,1.30681 1.17004,2.033017 2.06054,2.46875 0.91019,0.445252 1.22071,0.735932 1.22071,1.132812 -0.009,0.609536 -0.73673,0.890625 -1.41407,0.890625 -0.93926,0 -1.44221,-0.145258 -2.20703,-0.484375 l -0.30859,-0.144531 -0.33008,2.041015 c 0.55177,0.251379 1.56762,0.474598 2.62305,0.484375 2.4685,0 4.07666,-1.219892 4.0957,-3.107421 0.009,-1.035749 -0.61917,-1.828046 -1.97461,-2.476563 -0.82283,-0.416306 -1.32812,-0.697092 -1.32812,-1.123047 0.01,-0.387232 0.42662,-0.785156 1.35547,-0.785156 0.76481,-0.01943 1.3282,0.165642 1.7539,0.349609 l 0.21094,0.0957 0.32031,-1.964843 c -0.46403,-0.184096 -1.19931,-0.386719 -2.10937,-0.386719 z m -18.96485,0.164062 -0.0391,0.185547 c 0.93106,0.238089 1.75062,0.591524 2.47852,1.019531 l 2.09179,7.884766 h 2.48828 l 3.69727,-9.089844 h -2.48828 l -2.30274,6.205078 -0.25195,-1.257812 -0.82422,-4.181641 c -0.13546,-0.581105 -0.5514,-0.746456 -1.06445,-0.765625 z m 11.66602,0 -1.47266,9.09961 h 2.35352 l 1.4707,-9.09961 z m 13.61914,0 c -0.56117,0 -0.9864,0.165363 -1.22852,0.75586 l -3.49414,8.34375 h 2.4668 c 0,0 0.40679,-1.123376 0.49414,-1.365235 h 3.02148 c 0.0675,0.319434 0.2793,1.365235 0.2793,1.365235 h 2.17969 l -1.89844,-9.09961 z m 0.16602,2.458985 0.16406,0.785156 c 0,0 0.44427,2.177912 0.54101,2.632813 h -1.95507 c 0.19374,-0.522699 0.93945,-2.546875 0.93945,-2.546876 -0.01,0.01943 0.19438,-0.532362 0.31055,-0.871093 z"
                 style="fill:#ffffff;stroke-width:0.12864843" />
            </g>
          </g>
          <path
             style="font-style:normal;font-variant:normal;font-weight:300;font-stretch:normal;font-size:40px;line-height:1;font-family:Lato;-inkscape-font-specification:'Lato Light';letter-spacing:0px;word-spacing:0px;fill:#ffffff;fill-opacity:1;stroke:none;stroke-width:0.31184307"
             d="M 41.625 5.8457031 C 41.550167 5.8457031 41.480596 5.8615183 41.414062 5.890625 C 41.347503 5.9197323 41.288148 5.9579192 41.238281 6.0078125 C 41.188415 6.0577072 41.150227 6.1187691 41.121094 6.1894531 C 41.09196 6.2559798 41.076172 6.3275011 41.076172 6.4023438 C 41.076172 6.4771857 41.09196 6.5467546 41.121094 6.6132812 C 41.150227 6.6756512 41.188415 6.7313567 41.238281 6.78125 C 41.288175 6.831144 41.347529 6.871284 41.414062 6.9003906 C 41.480589 6.9294973 41.55016 6.9433594 41.625 6.9433594 C 41.699833 6.9433594 41.771357 6.9294973 41.837891 6.9003906 C 41.904444 6.8712833 41.961852 6.8311433 42.011719 6.78125 C 42.065745 6.7313533 42.107585 6.6756479 42.136719 6.6132812 C 42.169985 6.5467546 42.1875 6.4771857 42.1875 6.4023438 C 42.1875 6.3275011 42.169985 6.2559798 42.136719 6.1894531 C 42.107625 6.1187678 42.065785 6.0577058 42.011719 6.0078125 C 41.961832 5.9579185 41.904424 5.9197317 41.837891 5.890625 C 41.771364 5.8615183 41.69984 5.8457031 41.625 5.8457031 z M 7.8652344 5.9960938 L 7.8652344 14.820312 L 11.089844 14.820312 C 11.71353 14.820312 12.283248 14.719362 12.798828 14.515625 C 13.318568 14.311888 13.764712 14.019246 14.134766 13.636719 C 14.504819 13.254191 14.790401 12.79078 14.994141 12.246094 C 15.197881 11.701408 15.300781 11.088147 15.300781 10.40625 C 15.300781 9.7285107 15.197881 9.1169516 14.994141 8.5722656 C 14.790401 8.0275803 14.504819 7.5641686 14.134766 7.1816406 C 13.764712 6.7991133 13.318568 6.5045186 12.798828 6.3007812 C 12.283248 6.0970439 11.71353 5.9960938 11.089844 5.9960938 L 7.8652344 5.9960938 z M 37.441406 6.4394531 C 37.395653 6.4394531 37.358918 6.4533152 37.333984 6.4824219 C 37.309051 6.5115285 37.29349 6.5446113 37.285156 6.5820312 L 37.134766 8.8027344 L 36.074219 8.8769531 L 36.074219 9.1074219 C 36.074219 9.1531599 36.090007 9.1898971 36.119141 9.2148438 C 36.148247 9.2397904 36.184735 9.2519531 36.230469 9.2519531 L 37.123047 9.2519531 L 37.123047 13.492188 C 37.123047 13.978663 37.239816 14.339423 37.472656 14.572266 C 37.709656 14.805108 38.037085 14.921875 38.457031 14.921875 C 38.718985 14.921875 38.971737 14.869572 39.212891 14.765625 C 39.458211 14.657519 39.658406 14.516429 39.816406 14.341797 L 39.654297 14.078125 C 39.62103 14.036545 39.587954 14.017578 39.554688 14.017578 C 39.525554 14.017578 39.487367 14.040198 39.4375 14.085938 C 39.387607 14.127516 39.323141 14.174462 39.244141 14.228516 C 39.165141 14.278414 39.070997 14.327314 38.962891 14.373047 C 38.854784 14.414627 38.725859 14.433594 38.576172 14.433594 C 38.455599 14.433594 38.344188 14.416326 38.240234 14.378906 C 38.136288 14.341486 38.043844 14.282126 37.964844 14.203125 C 37.889997 14.124125 37.828936 14.024876 37.783203 13.904297 C 37.741603 13.77956 37.720703 13.631411 37.720703 13.460938 L 37.720703 9.2519531 L 41.314453 9.2519531 L 41.314453 14.820312 L 41.912109 14.820312 L 41.912109 8.8085938 L 37.720703 8.8085938 L 37.720703 6.4394531 L 37.441406 6.4394531 z M 8.5078125 6.5136719 L 11.089844 6.5136719 C 11.617904 6.5136719 12.100529 6.6007586 12.537109 6.7753906 C 12.973689 6.9500233 13.348316 7.2044774 13.660156 7.5371094 C 13.972003 7.869742 14.212339 8.2774483 14.382812 8.7597656 C 14.553286 9.242083 14.638672 9.7908793 14.638672 10.40625 C 14.638672 11.025778 14.553286 11.576276 14.382812 12.058594 C 14.212339 12.540911 13.972003 12.948617 13.660156 13.28125 C 13.348316 13.613883 12.973689 13.866384 12.537109 14.041016 C 12.100529 14.215648 11.617904 14.302734 11.089844 14.302734 L 8.5078125 14.302734 L 8.5078125 6.5136719 z M 32.857422 8.5097656 C 32.404215 8.5097656 31.998205 8.5934496 31.640625 8.7597656 C 31.283045 8.9260823 30.941507 9.169824 30.617188 9.4941406 L 30.724609 9.6757812 C 30.745343 9.7090479 30.769695 9.7370258 30.798828 9.7578125 C 30.827935 9.7785992 30.864423 9.7871094 30.910156 9.7871094 C 30.97253 9.7871094 31.051105 9.7472205 31.142578 9.6640625 C 31.234051 9.5809045 31.35252 9.4884619 31.498047 9.3886719 C 31.643574 9.2888825 31.81945 9.198393 32.027344 9.1152344 C 32.239397 9.0320764 32.495549 8.9902344 32.794922 8.9902344 C 33.281395 8.9902344 33.647265 9.1451879 33.892578 9.4570312 C 34.142051 9.7647159 34.265625 10.205506 34.265625 10.779297 L 34.265625 11.427734 C 33.562945 11.444366 32.960145 11.503726 32.457031 11.603516 C 31.958085 11.703306 31.548676 11.835637 31.228516 12.001953 C 30.908362 12.168269 30.673124 12.363363 30.523438 12.587891 C 30.373751 12.812418 30.300781 13.056411 30.300781 13.318359 C 30.300781 13.601097 30.346027 13.843137 30.4375 14.046875 C 30.533133 14.246454 30.656707 14.41212 30.810547 14.541016 C 30.968547 14.669912 31.148076 14.765758 31.347656 14.828125 C 31.547236 14.890492 31.75279 14.921875 31.964844 14.921875 C 32.218477 14.921875 32.452009 14.895596 32.664062 14.845703 C 32.876116 14.799966 33.072913 14.732099 33.255859 14.640625 C 33.438813 14.549152 33.612984 14.435788 33.779297 14.302734 C 33.94977 14.169681 34.120542 14.019832 34.291016 13.853516 L 34.378906 14.646484 C 34.408013 14.762906 34.484642 14.820312 34.609375 14.820312 L 34.845703 14.820312 L 34.845703 10.779297 C 34.845703 10.434191 34.80581 10.12233 34.722656 9.84375 C 34.639496 9.5610127 34.513976 9.3223751 34.347656 9.1269531 C 34.185503 8.9273738 33.979949 8.775823 33.730469 8.671875 C 33.480995 8.5637697 33.190055 8.5097656 32.857422 8.5097656 z M 19.429688 8.515625 C 18.984788 8.515625 18.585842 8.5922518 18.232422 8.7460938 C 17.883155 8.8957791 17.585157 9.1100925 17.339844 9.3886719 C 17.098684 9.6672519 16.91405 10.003436 16.785156 10.398438 C 16.660416 10.789281 16.597656 11.228369 16.597656 11.714844 C 16.597656 12.201319 16.660416 12.640407 16.785156 13.03125 C 16.91405 13.422093 17.098684 13.756576 17.339844 14.035156 C 17.585157 14.313736 17.883155 14.52805 18.232422 14.677734 C 18.585842 14.827419 18.984788 14.902344 19.429688 14.902344 C 19.874581 14.902344 20.271827 14.827419 20.621094 14.677734 C 20.974514 14.52805 21.270559 14.313736 21.511719 14.035156 C 21.752879 13.756576 21.935814 13.422093 22.060547 13.03125 C 22.189447 12.640407 22.253906 12.201319 22.253906 11.714844 C 22.253906 11.228369 22.189447 10.789281 22.060547 10.398438 C 21.935814 10.003436 21.752879 9.6672519 21.511719 9.3886719 C 21.270559 9.1100925 20.974514 8.8957791 20.621094 8.7460938 C 20.271827 8.5922518 19.874581 8.515625 19.429688 8.515625 z M 26.751953 8.515625 C 26.286266 8.515625 25.864448 8.6236331 25.490234 8.8398438 C 25.116021 9.0560551 24.786893 9.3452933 24.5 9.7070312 L 24.443359 8.7714844 C 24.426726 8.6675364 24.365665 8.6152344 24.261719 8.6152344 L 23.931641 8.6152344 L 23.931641 14.820312 L 24.53125 14.820312 L 24.53125 10.15625 C 24.805677 9.790354 25.117537 9.5045186 25.466797 9.3007812 C 25.816064 9.0928859 26.194089 8.9902344 26.601562 8.9902344 C 27.146249 8.9902344 27.552253 9.1556486 27.818359 9.4882812 C 28.084466 9.8167559 28.216797 10.273361 28.216797 10.855469 L 28.216797 14.820312 L 28.814453 14.820312 L 28.814453 10.855469 C 28.814453 10.493731 28.770914 10.167755 28.683594 9.8808594 C 28.59628 9.593964 28.467348 9.3502217 28.296875 9.1464844 C 28.126402 8.9427464 27.910391 8.7858397 27.648438 8.6777344 C 27.390651 8.569629 27.0929 8.515625 26.751953 8.515625 z M 52.589844 8.515625 C 52.14495 8.515625 51.746005 8.5922518 51.392578 8.7460938 C 51.043318 8.8957791 50.74532 9.1100925 50.5 9.3886719 C 50.25884 9.6672519 50.074206 10.003436 49.945312 10.398438 C 49.820579 10.789281 49.757812 11.228369 49.757812 11.714844 C 49.757812 12.201319 49.820579 12.640407 49.945312 13.03125 C 50.074206 13.422093 50.25884 13.756576 50.5 14.035156 C 50.74532 14.313736 51.043318 14.52805 51.392578 14.677734 C 51.746005 14.827419 52.14495 14.902344 52.589844 14.902344 C 53.034744 14.902344 53.43199 14.827419 53.78125 14.677734 C 54.13467 14.52805 54.432668 14.313736 54.673828 14.035156 C 54.914988 13.756576 55.097916 13.422093 55.222656 13.03125 C 55.35155 12.640407 55.416016 12.201319 55.416016 11.714844 C 55.416016 11.228369 55.35155 10.789281 55.222656 10.398438 C 55.097916 10.003436 54.914988 9.6672519 54.673828 9.3886719 C 54.432668 9.1100925 54.13467 8.8957791 53.78125 8.7460938 C 53.43199 8.5922518 53.034744 8.515625 52.589844 8.515625 z M 58.820312 8.515625 C 58.504313 8.515625 58.22043 8.5608698 57.966797 8.6523438 C 57.713164 8.7438177 57.497146 8.8676424 57.318359 9.0214844 C 57.143726 9.175327 57.007743 9.3529033 56.912109 9.5566406 C 56.816476 9.7603786 56.769531 9.9729907 56.769531 10.193359 C 56.769531 10.45115 56.818175 10.667165 56.917969 10.841797 C 57.017755 11.012271 57.15034 11.158718 57.3125 11.279297 C 57.47466 11.399876 57.657595 11.499125 57.861328 11.578125 C 58.069228 11.657126 58.279887 11.730348 58.496094 11.796875 C 58.712307 11.863401 58.92322 11.929567 59.126953 11.996094 C 59.334853 12.06262 59.519481 12.142649 59.681641 12.238281 C 59.843794 12.333913 59.974425 12.45068 60.074219 12.587891 C 60.174005 12.725102 60.224609 12.897573 60.224609 13.105469 C 60.224609 13.292574 60.187867 13.472103 60.117188 13.642578 C 60.050661 13.808894 59.951413 13.953388 59.818359 14.078125 C 59.685306 14.202862 59.519892 14.304064 59.320312 14.378906 C 59.120733 14.449591 58.8889 14.484375 58.626953 14.484375 C 58.348373 14.484375 58.113142 14.451292 57.921875 14.384766 C 57.734768 14.318239 57.578112 14.246717 57.449219 14.171875 C 57.320325 14.092875 57.215719 14.021605 57.136719 13.955078 C 57.061885 13.888551 56.997426 13.853516 56.943359 13.853516 C 56.897653 13.853516 56.861165 13.862273 56.832031 13.878906 C 56.807098 13.89554 56.784472 13.921818 56.763672 13.955078 L 56.625 14.166016 C 56.87448 14.390543 57.158609 14.573475 57.474609 14.714844 C 57.790609 14.852054 58.166936 14.921875 58.603516 14.921875 C 58.952776 14.921875 59.260983 14.871274 59.53125 14.771484 C 59.801517 14.671694 60.027991 14.535708 60.210938 14.365234 C 60.398044 14.19476 60.541085 13.994561 60.636719 13.761719 C 60.732345 13.528876 60.779297 13.276123 60.779297 13.005859 C 60.779297 12.756385 60.728693 12.543773 60.628906 12.369141 C 60.529113 12.194509 60.398481 12.048314 60.236328 11.927734 C 60.078328 11.807155 59.8954 11.705954 59.6875 11.626953 C 59.479607 11.543795 59.266995 11.470824 59.050781 11.404297 C 58.838728 11.337771 58.629768 11.269652 58.421875 11.203125 C 58.213982 11.136598 58.029347 11.058271 57.867188 10.966797 C 57.709188 10.875323 57.580262 10.765614 57.480469 10.636719 C 57.380682 10.507824 57.330078 10.345813 57.330078 10.150391 C 57.330078 9.9923906 57.36486 9.8425412 57.435547 9.7011719 C 57.506227 9.5556452 57.607435 9.4284178 57.736328 9.3203125 C 57.869381 9.2122045 58.026031 9.1268198 58.208984 9.0644531 C 58.396091 8.9979265 58.601645 8.9648438 58.826172 8.9648438 C 59.075645 8.9648438 59.288257 8.9908685 59.462891 9.0449219 C 59.637517 9.0948165 59.783964 9.1541765 59.900391 9.2207031 C 60.020964 9.2830711 60.116813 9.3404779 60.1875 9.3945312 C 60.258187 9.4444246 60.315595 9.4707031 60.361328 9.4707031 C 60.423695 9.4707031 60.47064 9.4410258 60.503906 9.3828125 L 60.628906 9.1777344 C 60.387746 8.953207 60.119432 8.7858397 59.824219 8.6777344 C 59.533165 8.569629 59.198679 8.515625 58.820312 8.515625 z M 43.248047 8.6152344 L 45.867188 14.820312 L 46.390625 14.820312 L 49.009766 8.6152344 L 48.560547 8.6152344 C 48.510634 8.6152344 48.467087 8.6290965 48.429688 8.6582031 C 48.396421 8.6831545 48.370409 8.7198917 48.349609 8.765625 L 46.291016 13.660156 C 46.224469 13.838946 46.172166 14.018476 46.134766 14.197266 C 46.097379 14.018476 46.048728 13.838946 45.986328 13.660156 L 43.933594 8.765625 C 43.921127 8.728205 43.896775 8.6951223 43.859375 8.6660156 C 43.821942 8.6327556 43.773044 8.6152344 43.714844 8.6152344 L 43.248047 8.6152344 z M 19.429688 8.984375 C 19.799741 8.984375 20.122064 9.048839 20.396484 9.1777344 C 20.675064 9.3066297 20.904944 9.4912632 21.087891 9.7324219 C 21.274997 9.9694225 21.414386 10.255007 21.505859 10.591797 C 21.597333 10.928588 21.642578 11.303211 21.642578 11.714844 C 21.642578 12.130635 21.597333 12.50696 21.505859 12.84375 C 21.414386 13.176383 21.274997 13.462218 21.087891 13.699219 C 20.904944 13.93622 20.675064 14.119152 20.396484 14.248047 C 20.122064 14.372784 19.799741 14.433594 19.429688 14.433594 C 19.059634 14.433594 18.733658 14.372784 18.455078 14.248047 C 18.180651 14.119152 17.950779 13.93622 17.763672 13.699219 C 17.580725 13.462218 17.44133 13.176383 17.345703 12.84375 C 17.254223 12.50696 17.208984 12.130635 17.208984 11.714844 C 17.208984 11.303211 17.254223 10.928588 17.345703 10.591797 C 17.44133 10.255007 17.580725 9.9694225 17.763672 9.7324219 C 17.950779 9.4912632 18.180651 9.3066297 18.455078 9.1777344 C 18.733658 9.048839 19.059634 8.984375 19.429688 8.984375 z M 52.589844 8.984375 C 52.959897 8.984375 53.282221 9.048839 53.556641 9.1777344 C 53.835221 9.3066297 54.067047 9.4912632 54.25 9.7324219 C 54.437107 9.9694225 54.576495 10.255007 54.667969 10.591797 C 54.759442 10.928588 54.804688 11.303211 54.804688 11.714844 C 54.804687 12.130635 54.759442 12.50696 54.667969 12.84375 C 54.576495 13.176383 54.437107 13.462218 54.25 13.699219 C 54.067047 13.93622 53.835221 14.119152 53.556641 14.248047 C 53.282221 14.372784 52.959897 14.433594 52.589844 14.433594 C 52.21979 14.433594 51.895767 14.372784 51.617188 14.248047 C 51.342768 14.119152 51.112888 13.93622 50.925781 13.699219 C 50.742835 13.462218 50.603446 13.176383 50.507812 12.84375 C 50.416339 12.50696 50.369141 12.130635 50.369141 11.714844 C 50.369141 11.303211 50.416339 10.928588 50.507812 10.591797 C 50.603446 10.255007 50.742835 9.9694225 50.925781 9.7324219 C 51.112888 9.4912632 51.342768 9.3066297 51.617188 9.1777344 C 51.895767 9.048839 52.21979 8.984375 52.589844 8.984375 z M 34.265625 11.828125 L 34.265625 13.443359 C 34.120098 13.593044 33.973899 13.732433 33.824219 13.861328 C 33.674532 13.990223 33.512524 14.101634 33.337891 14.197266 C 33.167417 14.288739 32.979131 14.361962 32.775391 14.416016 C 32.575817 14.465909 32.356394 14.490234 32.115234 14.490234 C 31.953074 14.490234 31.796171 14.467615 31.646484 14.421875 C 31.496804 14.376138 31.364474 14.306569 31.248047 14.210938 C 31.135787 14.111148 31.043343 13.985622 30.972656 13.835938 C 30.906123 13.682096 30.873047 13.500865 30.873047 13.292969 C 30.873047 13.0726 30.937513 12.877505 31.066406 12.707031 C 31.19946 12.532399 31.403308 12.38255 31.677734 12.257812 C 31.956314 12.133076 32.310021 12.035528 32.738281 11.964844 C 33.166548 11.890003 33.675205 11.844758 34.265625 11.828125 z "
             transform="translate(-242.72699,9.1987003)"
             id="path846" />
        </g>
        <path
           style="font-style:normal;font-variant:normal;font-weight:300;font-stretch:normal;font-size:40px;line-height:1;font-family:Lato;-inkscape-font-specification:'Lato Light';letter-spacing:0px;word-spacing:0px;fill:#ffffff;fill-opacity:1;stroke:none;stroke-width:0.31339395"
           d="M 67.517578 10.837891 L 67.517578 19.957031 L 67.882812 19.957031 C 67.983106 19.957031 68.038248 19.905246 68.050781 19.800781 L 68.087891 19.035156 C 68.313537 19.365265 68.583091 19.615787 68.896484 19.787109 C 69.209878 19.954253 69.588317 20.039062 70.03125 20.039062 C 70.461643 20.039062 70.845401 19.959567 71.179688 19.800781 C 71.513974 19.637816 71.795571 19.409688 72.025391 19.117188 C 72.259391 18.820508 72.437414 18.464461 72.558594 18.050781 C 72.679774 17.632923 72.740234 17.171624 72.740234 16.666016 C 72.740234 16.185478 72.684819 15.756932 72.576172 15.380859 C 72.467532 15.000608 72.308536 14.680948 72.099609 14.421875 C 71.894856 14.162803 71.644336 13.964065 71.347656 13.826172 C 71.050976 13.688279 70.715917 13.619141 70.339844 13.619141 C 69.85931 13.619141 69.435806 13.726345 69.072266 13.939453 C 68.708726 14.148382 68.390747 14.436972 68.119141 14.804688 L 68.119141 10.837891 L 67.517578 10.837891 z M 73.498047 13.720703 L 76.136719 19.724609 L 75.039062 22.162109 L 75.466797 22.162109 C 75.542017 22.162109 75.597166 22.145029 75.634766 22.107422 C 75.676552 22.069815 75.711261 22.021391 75.736328 21.962891 L 79.320312 13.720703 L 78.863281 13.720703 C 78.817308 13.720703 78.775881 13.734425 78.738281 13.763672 C 78.700681 13.788741 78.671257 13.825127 78.650391 13.871094 L 76.576172 18.722656 C 76.551105 18.785335 76.525067 18.849158 76.5 18.916016 C 76.479067 18.978694 76.458367 19.044471 76.4375 19.111328 C 76.420767 19.044472 76.401726 18.978696 76.380859 18.916016 C 76.364126 18.84916 76.343426 18.785336 76.318359 18.722656 L 74.21875 13.871094 C 74.206217 13.833483 74.180178 13.798778 74.142578 13.769531 C 74.104958 13.736105 74.054854 13.720703 73.992188 13.720703 L 73.498047 13.720703 z M 70.169922 14.095703 C 70.788349 14.095703 71.268681 14.313474 71.611328 14.748047 C 71.953975 15.18262 72.125 15.830618 72.125 16.691406 C 72.125 17.134337 72.080215 17.533492 71.988281 17.888672 C 71.896355 18.243851 71.756393 18.54616 71.568359 18.796875 C 71.384499 19.043412 71.15106 19.233473 70.871094 19.367188 C 70.595307 19.500902 70.272284 19.568359 69.900391 19.568359 C 69.532677 19.568359 69.204342 19.497541 68.916016 19.355469 C 68.627696 19.209219 68.361501 18.955062 68.119141 18.595703 L 68.119141 15.306641 C 68.378214 14.926389 68.6738 14.629124 69.003906 14.416016 C 69.33402 14.202908 69.722815 14.095703 70.169922 14.095703 z "
           transform="translate(-242.72699,8.228186)"
           id="path841" />
      </g>
      <g
         transform="translate(-16.54363,-14.889267)"
         id="g875">
        <path
           inkscape:connector-curvature="0"
           style="fill:#253b80"
           d="m -16.316994,79.74016 h -6.839 a 0.95,0.95 0 0 0 -0.939,0.802 l -2.766,17.537 a 0.57,0.57 0 0 0 0.564,0.658 h 3.265 a 0.95,0.95 0 0 0 0.939,-0.803 l 0.746,-4.73 a 0.95,0.95 0 0 1 0.938,-0.803 h 2.165 c 4.505,0 7.105,-2.18 7.784,-6.5 0.306,-1.89 0.013,-3.375 -0.872,-4.415 -0.972,-1.142 -2.696,-1.746 -4.985,-1.746 z m 0.789,6.405 c -0.374,2.454 -2.249,2.454 -4.062,2.454 h -1.032 l 0.724,-4.583 a 0.57,0.57 0 0 1 0.563,-0.481 h 0.473 c 1.235,0 2.4,0 3.002,0.704 0.359,0.42 0.469,1.044 0.332,1.906 z m 19.6540001,-0.079 H 0.85100606 a 0.57,0.57 0 0 0 -0.563,0.481 l -0.145,0.916 -0.229,-0.332 c -0.709,-1.029 -2.28999996,-1.373 -3.86799996,-1.373 -3.619,0 -6.7100001,2.741 -7.3120001,6.586 -0.313,1.918 0.132,3.752 1.22,5.031 0.9980001,1.176 2.4260001,1.666 4.1250001,1.666 2.916,0 4.533,-1.875 4.533,-1.875 l -0.146,0.91 a 0.57,0.57 0 0 0 0.56199996,0.66 H 1.9780061 a 0.95,0.95 0 0 0 0.939,-0.803 l 1.77,-11.209 a 0.568,0.568 0 0 0 -0.561,-0.658 z m -4.56500004,6.374 c -0.316,1.871 -1.80099996,3.127 -3.69499996,3.127 -0.951,0 -1.711,-0.305 -2.199,-0.883 -0.484,-0.574 -0.668,-1.391 -0.514,-2.301 0.295,-1.855 1.805,-3.152 3.67,-3.152 0.93,0 1.686,0.309 2.18399996,0.892 0.499,0.589 0.697,1.411 0.554,2.317 z m 22.00699994,-6.374 h -3.291 a 0.954,0.954 0 0 0 -0.787,0.417 l -4.539,6.686 -1.924,-6.425 a 0.953,0.953 0 0 0 -0.912,-0.678 H 6.8810061 a 0.57,0.57 0 0 0 -0.541,0.754 l 3.625,10.638 -3.408,4.811 a 0.57,0.57 0 0 0 0.465,0.9 h 3.2869999 a 0.949,0.949 0 0 0 0.781,-0.408 l 10.946,-15.8 a 0.57,0.57 0 0 0 -0.468,-0.895 z"
           id="path2-6" />
        <path
           inkscape:connector-curvature="0"
           style="fill:#179bd7"
           d="m 32.464006,79.74016 h -6.84 a 0.95,0.95 0 0 0 -0.938,0.802 l -2.766,17.537 a 0.569,0.569 0 0 0 0.562,0.658 h 3.51 a 0.665,0.665 0 0 0 0.656,-0.562 l 0.785,-4.971 a 0.95,0.95 0 0 1 0.938,-0.803 h 2.164 c 4.506,0 7.105,-2.18 7.785,-6.5 0.307,-1.89 0.012,-3.375 -0.873,-4.415 -0.971,-1.142 -2.694,-1.746 -4.983,-1.746 z m 0.789,6.405 c -0.373,2.454 -2.248,2.454 -4.062,2.454 h -1.031 l 0.725,-4.583 a 0.568,0.568 0 0 1 0.562,-0.481 h 0.473 c 1.234,0 2.4,0 3.002,0.704 0.359,0.42 0.468,1.044 0.331,1.906 z m 19.653,-0.079 h -3.273 a 0.567,0.567 0 0 0 -0.562,0.481 l -0.145,0.916 -0.23,-0.332 c -0.709,-1.029 -2.289,-1.373 -3.867,-1.373 -3.619,0 -6.709,2.741 -7.311,6.586 -0.312,1.918 0.131,3.752 1.219,5.031 1,1.176 2.426,1.666 4.125,1.666 2.916,0 4.533,-1.875 4.533,-1.875 l -0.146,0.91 a 0.57,0.57 0 0 0 0.564,0.66 h 2.949 a 0.95,0.95 0 0 0 0.938,-0.803 l 1.771,-11.209 a 0.571,0.571 0 0 0 -0.565,-0.658 z m -4.565,6.374 c -0.314,1.871 -1.801,3.127 -3.695,3.127 -0.949,0 -1.711,-0.305 -2.199,-0.883 -0.484,-0.574 -0.666,-1.391 -0.514,-2.301 0.297,-1.855 1.805,-3.152 3.67,-3.152 0.93,0 1.686,0.309 2.184,0.892 0.501,0.589 0.699,1.411 0.554,2.317 z m 8.426,-12.219 -2.807,17.858 a 0.569,0.569 0 0 0 0.562,0.658 h 2.822 c 0.469,0 0.867,-0.34 0.939,-0.803 l 2.768,-17.536 a 0.57,0.57 0 0 0 -0.562,-0.659 h -3.16 a 0.571,0.571 0 0 0 -0.562,0.482 z"
           id="path4-7" />
      </g>
    </g>
  </g>
</svg>
