<?xml version="1.0" encoding="UTF-8" standalone="no"?>
<!-- Created with Inkscape (http://www.inkscape.org/) -->

<svg
   xmlns:dc="http://purl.org/dc/elements/1.1/"
   xmlns:cc="http://creativecommons.org/ns#"
   xmlns:rdf="http://www.w3.org/1999/02/22-rdf-syntax-ns#"
   xmlns:svg="http://www.w3.org/2000/svg"
   xmlns="http://www.w3.org/2000/svg"
   xmlns:sodipodi="http://sodipodi.sourceforge.net/DTD/sodipodi-0.dtd"
   xmlns:inkscape="http://www.inkscape.org/namespaces/inkscape"
   width="22.671438mm"
   height="6.614584mm"
   viewBox="0 0 22.671438 6.614584"
   version="1.1"
   id="svg3646"
   inkscape:version="0.92.3 (2405546, 2018-03-11)"
   sodipodi:docname="rgm.svg">
  <defs
     id="defs3640" />
  <sodipodi:namedview
     id="base"
     pagecolor="#ffffff"
     bordercolor="#666666"
     borderopacity="1.0"
     inkscape:pageopacity="0.0"
     inkscape:pageshadow="2"
     inkscape:zoom="11.2"
     inkscape:cx="35.053489"
     inkscape:cy="5.6634562"
     inkscape:document-units="mm"
     inkscape:current-layer="layer1"
     showgrid="false"
     fit-margin-top="0"
     fit-margin-left="0"
     fit-margin-right="0"
     fit-margin-bottom="0"
     inkscape:window-width="1440"
     inkscape:window-height="835"
     inkscape:window-x="0"
     inkscape:window-y="40"
     inkscape:window-maximized="1" />
  <metadata
     id="metadata3643">
    <rdf:RDF>
      <cc:Work
         rdf:about="">
        <dc:format>image/svg+xml</dc:format>
        <dc:type
           rdf:resource="http://purl.org/dc/dcmitype/StillImage" />
        <dc:title></dc:title>
      </cc:Work>
    </rdf:RDF>
  </metadata>
  <g
     inkscape:label="Layer 1"
     inkscape:groupmode="layer"
     id="layer1"
     transform="translate(332.38441,-228.99687)">
    <g
       transform="matrix(0.02737916,0,0,0.02737916,-279.68587,314.45363)"
       id="g18719-2-3"
       inkscape:export-xdpi="90"
       inkscape:export-ydpi="90">
      <g
         inkscape:export-ydpi="90"
         inkscape:export-xdpi="90"
         id="g18069-6-6-7"
         transform="translate(-112.39715,590.23959)">
        <path
           inkscape:connector-curvature="0"
           style="color:#000000;font-style:normal;font-variant:normal;font-weight:normal;font-stretch:normal;font-size:medium;line-height:normal;font-family:sans-serif;font-variant-ligatures:normal;font-variant-position:normal;font-variant-caps:normal;font-variant-numeric:normal;font-variant-alternates:normal;font-feature-settings:normal;text-indent:0;text-align:start;text-decoration:none;text-decoration-line:none;text-decoration-style:solid;text-decoration-color:#000000;letter-spacing:normal;word-spacing:normal;text-transform:none;writing-mode:lr-tb;direction:ltr;text-orientation:mixed;dominant-baseline:auto;baseline-shift:baseline;text-anchor:start;white-space:normal;shape-padding:0;clip-rule:nonzero;display:inline;overflow:visible;visibility:visible;opacity:1;isolation:auto;mix-blend-mode:normal;color-interpolation:sRGB;color-interpolation-filters:linearRGB;solid-color:#000000;solid-opacity:1;vector-effect:none;fill:#585858;fill-opacity:1;fill-rule:nonzero;stroke:none;stroke-width:0.68300003;stroke-linecap:square;stroke-linejoin:miter;stroke-miterlimit:4;stroke-dasharray:none;stroke-dashoffset:0;stroke-opacity:1;paint-order:markers fill stroke;color-rendering:auto;image-rendering:auto;shape-rendering:auto;text-rendering:auto;enable-background:accumulate"
           d="m -1791.4712,-3690.6774 -0.1028,99.9562 c 0,0.015 0,0.029 0,0.044 -0.078,78.6704 75.4355,96.7453 83.3696,100.0001 0.01,0 0.049,-0.016 0.059,-0.02 7.7687,-3.1171 83.4188,-21.3474 83.2646,-99.9799 0,-0.015 0,-0.029 0,-0.044 l 0.1639,-99.9561 h -83.4296 z m 83.3273,2.4391 h 81.3945 l -0.1592,97.5181 c 0,0.015 0,0.028 0,0.043 h -81.2343 v 97.5413 c -0.01,0 -0.048,0.016 -0.058,0.02 -7.7406,-3.1754 -81.4132,-20.8093 -81.3366,-97.5609 h 81.3945 z m 32.7959,9.5943 c -3.1485,0.077 -6.744,2.253 -5.2106,5.3108 -11.0764,5.908 -12.8022,15.1897 -11.1579,25.1297 2.1594,13.0546 10.1317,27.2448 10.3735,36.4231 0.6048,2.8716 -0.337,5.4518 -1.7658,6.7195 -0.5415,0.4805 -1.3334,0.8926 -2.1812,0.9891 -0.848,0.097 -1.7817,-0.1737 -2.3777,-1.0506 -0.7088,-1.0429 -0.5304,-2.2421 0.1406,-2.9926 0.671,-0.7505 1.8419,-1.0673 2.9683,-0.4997 l -0.3256,0.6465 c -0.8582,-0.4325 -1.6337,-0.1871 -2.1022,0.3369 -0.4684,0.524 -0.6205,1.3088 -0.082,2.1017 0.4463,0.6566 1.0373,0.813 1.6966,0.7379 0.6591,-0.075 1.3563,-0.4319 1.7828,-0.8103 1.1549,-1.0246 2.0595,-3.3183 1.5637,-5.8999 -4.6037,-3.3001 -12.6842,0.5398 -9.8325,7.4203 1.114,2.6877 5.6903,5.76 11.5756,2.2009 2.0361,-1.2314 3.3757,-3.401 4.439,-4.331 1.1865,-1.0379 4.5367,-0.9343 5.8844,-3.9404 1.4598,0.1803 3.1505,-0.079 3.9083,-1.3446 l 22.8606,-37.6592 c 1.8634,-3.0698 -0.1673,-6.2274 -1.6103,-8.37 -4.5074,-5.9741 -12.9299,-3.5704 -19.004,-6.1635 -3.5401,-1.5113 -6.6152,-6.901 -7.5633,-12.562 -0.3627,-1.729 -2.0916,-2.4387 -3.9807,-2.3926 z m -72.3698,0.9059 c 2.9098,0.052 5.7487,1.0623 7.3691,2.8489 2.2562,2.3853 3.094,6.3817 2.3849,11.7967 -0.419,3.481 -0.3872,4.996 0.3219,5.8663 1.7405,2.2885 4.9642,2.5465 6.9303,0.5803 1.3215,-1.2892 1.7083,-3.2878 1.1281,-5.2539 -0.1289,-0.4835 -0.2578,-0.9344 -0.2578,-0.9343 -0.065,-0.2581 1.1925,0.1285 2.7719,0.9343 4.7059,2.3851 6.1565,3.8358 6.8011,6.8011 0.5291,2.7291 0.1426,4.8539 -0.8242,5.9227 0.3745,-0.2229 0.5018,-0.2257 0.5018,-0.024 0,0.7413 -1.5146,4.6737 -2.6428,6.9944 -1.3537,2.7719 -2.3528,4.0289 -3.7387,4.6736 -0.9992,0.4512 -1.1929,0.4509 -1.6764,-0.033 -0.548,-0.5157 -0.5159,-1.7719 0.1932,-4.8017 0.3224,-1.386 0.6451,-3.1594 0.7095,-3.9652 0.064,-1.3859 0.1287,-1.4506 0.6445,-1.7084 0.068,-0.034 0.1532,-0.091 0.2449,-0.1597 -0.1653,0.075 -0.3427,0.1393 -0.5354,0.1923 -1.4826,0.3545 -2.0947,-0.1933 -2.2236,-2.095 -0.1289,-1.386 -0.2583,-1.3214 -0.4517,0.3225 -0.075,0.647 -0.2097,1.0075 -0.4738,1.4045 l 0.023,-0.019 0.6444,0.387 c 0.3868,0.1934 0.8702,0.3866 1.1281,0.3866 0.5157,0 0.5157,0.064 0.5157,1.1927 0,2.9653 -1.9018,7.5098 -3.6101,8.509 -0.7413,0.5157 -1.5147,0.516 -2.0304,-0.1287 -0.5157,-0.4512 -0.4512,-1.1282 0,-2.8365 0.4835,-1.7083 0.9348,-4.2541 0.9348,-5.1888 0,-0.548 0.064,-0.7421 0.5799,-0.9999 0.1286,-0.039 0.2957,-0.1401 0.4676,-0.2569 -0.1424,0.028 -0.3044,0.048 -0.4997,0.064 -0.8703,0.064 -0.9989,0.065 -1.5146,-0.4511 -0.4513,-0.3868 -0.6451,-0.7734 -0.7095,-1.5147 -0.129,-1.0636 -0.5158,-1.1282 -0.5158,-0.065 -0.012,0.5498 -0.1638,1.0336 -0.4072,1.4387 l 0.2139,-0.2139 0.5158,0.5157 c 0.2256,0.2578 0.6118,0.5158 0.8697,0.5803 0.3223,0.064 0.3872,0.1935 0.4517,0.9348 0.1933,2.7075 -0.9995,6.2532 -2.3854,7.059 -0.548,0.3868 -1.2564,0.3862 -1.5787,0.096 -0.3224,-0.1935 -0.3224,-0.9345 0,-4.5445 l 0.2573,-2.7719 0.6816,-0.6816 c -1.2473,0.7594 -2.9719,0.5436 -3.5502,-1.0914 -0.2578,-0.8058 -0.2577,-0.7411 -0.1932,1.5151 0.1289,2.5141 -0.1935,5.0926 -0.9349,8.8315 -0.709,3.1588 -0.9028,5.415 -0.6449,7.4456 0.2256,2.1273 1.1928,5.0606 2.3854,7.3169 0.9025,1.6438 3.6098,5.35 6.4461,8.6377 2.0953,2.4818 3.0942,3.8681 3.7388,5.0606 1.0637,2.1596 0.6775,4.4799 -0.7085,4.4799 -0.2901,0 -0.7415,-0.1284 -0.9994,-0.2574 -0.6124,-0.4512 -3.0942,-3.9327 -6.9298,-9.7989 -1.9339,-3.0298 -3.6424,-5.608 -3.7714,-5.6725 -0.5157,-0.5157 1.5795,3.0298 4.4804,7.7034 0.967,1.5149 1.3861,2.4819 1.7084,3.5455 0.9992,3.8679 -10e-5,7.0912 -2.2241,6.6399 -0.7736,-0.1289 -1.1604,-1.1287 -1.9017,-4.7387 -0.548,-2.643 -1.9342,-8.0893 -2.3854,-9.1529 -0.2579,-0.6447 -0.2579,-0.065 0,0.7405 0.6124,2.0629 1.3219,5.9952 1.3219,7.2523 0,2.7075 -0.7737,5.0602 -1.9663,5.995 -0.7091,0.5157 -1.128,0.452 -1.5792,-0.1282 -0.4513,-0.5802 -0.4516,-1.451 -0.1938,-5.1899 0.1613,-3.0298 0,-6.4459 -0.5799,-8.0253 -0.3867,-1.0637 -0.3869,-1.128 -0.065,-1.5792 0.6769,-0.9348 0.6123,-0.9346 -0.3224,-0.1933 -0.5157,0.4512 -1.1282,1.2889 -1.4506,1.7079 -0.3223,0.419 -0.5798,0.8058 -0.5798,0.8702 -0.032,0 -0.3548,-0.1933 -0.7415,-0.4511 -0.3868,-0.2579 -0.935,-0.5159 -1.2573,-0.5803 -0.5801,-0.129 -0.5798,-0.1289 -0.5798,-1.386 0,-1.4504 -0.5155,-3.4166 -1.2568,-4.6736 -0.3223,-0.4513 -1.0643,-1.4828 -1.709,-2.2242 -1.7082,-1.9661 -2.1594,-3.0296 -2.0949,-4.8669 0.064,-1.1925 0.1937,-1.5794 0.6449,-2.3207 1.4504,-2.3208 5.4155,-2.9009 7.4461,-1.1281 0.3223,0.3223 0.8698,0.999 1.1921,1.5792 0.6447,1.0636 0.7734,1.0636 0.3866,0 -0.1289,-0.3868 -0.6123,-1.0634 -1.0635,-1.5146 -1.9662,-1.9984 -4.4483,-2.3212 -6.7045,-0.8708 l -0.8697,0.5809 -0.8057,-0.7096 c -1.6438,-1.3215 -2.8685,-3.2231 -3.7388,-5.8663 -0.2578,-0.838 -0.3224,-1.5792 -0.3224,-3.4809 0,-2.2562 0.1931,-3.5135 0.9989,-5.673 0.064,-0.1612 -0.1286,0.065 -0.4512,0.5803 -0.8379,1.4504 -1.9661,1.902 -3.2876,1.3219 -0.6769,-0.2579 -0.7414,-0.4195 -1.1927,-2.5146 -0.1289,-0.7091 -0.1933,-0.7086 -0.1933,-0.2574 -0.064,0.6769 -0.6124,1.9342 -1.1281,2.3854 -0.4834,0.5158 -1.7403,0.5154 -2.4494,0.064 -0.8058,-0.5802 -1.0635,-1.1283 -1.3214,-3.159 -0.1934,-1.5149 -0.2586,-1.7724 -0.3876,-1.2567 -0.064,0.3868 -0.1286,1.0635 -0.1286,1.5792 0,0.838 -0.065,0.9991 -0.645,1.5792 -0.5157,0.5157 -0.7408,0.6444 -1.3854,0.6444 -1.0959,0 -1.7729,-0.4507 -2.2242,-1.3854 -0.3868,-0.7091 -0.4516,-1.1929 -0.4516,-3.159 0,-2.2562 0,-2.2563 -0.2574,-1.4506 -0.2578,0.5802 -0.3223,1.451 -0.2578,3.0304 0.064,2.1273 0.065,2.2557 -0.3866,2.5781 -0.5157,0.4512 -1.2253,0.4512 -2.16,0 -0.9992,-0.4513 -1.1279,-0.709 -1.5147,-2.095 -0.5802,-2.1595 -0.065,-5.544 1.0635,-7.5101 0.6446,-1.1281 2.2886,-2.643 3.6101,-3.2877 1.1926,-0.5479 2.9649,-0.9989 4.931,-1.2567 1.1281,-0.129 1.1929,-0.064 1.064,0.2578 -0.1289,0.1934 -0.3222,0.9347 -0.4511,1.6439 -0.2579,1.1281 -0.2579,1.3861 0,2.3853 0.4835,1.8695 1.7406,3.0936 3.9646,3.8349 0.6124,0.2579 1.7722,0.4518 2.5136,0.5163 1.257,0.064 1.709,2e-4 4.5454,-0.6444 0.2901,-0.065 0.6116,0.5156 2.3844,4.3511 1.1281,2.3852 2.3208,4.7698 2.7078,5.2855 0.838,1.0637 1.966,1.6444 3.2231,1.6444 h 0.8707 l -0.4511,-0.5163 c -0.4513,-0.5157 -0.4517,-0.6445 -0.4517,-2.9652 0,-1.5149 0.1291,-3.1587 0.3225,-4.1579 0.5801,-2.7075 0.6445,-5.673 0.1932,-7.5747 l -0.3865,-1.6433 0.8056,-0.9994 c 1.0315,-1.2893 1.3216,-1.9661 1.9017,-3.7388 0.5157,-1.6439 0.4509,-2.9655 -0.1937,-4.2225 -0.548,-1.0637 -1.321,-1.644 -2.5136,-1.7084 -1.1281,-0.1289 -1.9989,0.2583 -2.5146,1.1286 -0.5479,0.8703 -0.4829,1.6113 0.2584,3.7708 0.9992,2.772 0.8703,3.9647 -0.5157,5.4152 -1.7083,1.805 -5.9307,1.5147 -7.7034,-0.5803 -0.8703,-1.0315 -1.0642,-2.1594 -0.8708,-4.8669 0.129,-1.1926 0.1938,-2.9653 0.1938,-3.9 0,-1.5149 -0.065,-1.8375 -0.5803,-2.9012 l -0.5803,-1.1927 0.9348,-1.1281 c 0.4835,-0.6124 0.9996,-1.128 1.064,-1.128 0.064,0 0.3218,0.6446 0.5152,1.3859 0.2579,0.7736 0.4513,1.5149 0.5157,1.6438 0.064,0.1934 0.1292,0.1935 0.3871,-0.1932 0.1934,-0.2579 1.0313,-1.1603 1.8371,-1.9663 1.1926,-1.2248 1.7087,-1.6441 2.7079,-2.0309 1.2792,-0.5137 2.6903,-0.7784 4.1031,-0.8155 0.1942,-0.01 0.3884,-0.01 0.5823,0 z m 19.8629,5.5831 c 1.105,0 2.2685,0.1709 3.3321,0.5214 2.5141,0.838 3.9646,1.7084 5.6084,3.3523 2.1274,2.1595 3.5453,4.7379 4.2866,7.8966 0.419,1.9662 0.2581,6.4461 -0.3865,8.9602 -1.0314,3.9001 -2.8041,7.7998 -6.7686,14.504 -1.6438,2.8042 -3.4167,5.9952 -3.868,7.0911 -0.9347,1.7727 -1.064,1.9666 -1.064,1.3865 0,-0.9348 0.8705,-5.0922 1.5152,-6.9939 0.3223,-0.9348 1.128,-3.0298 1.837,-4.6737 3.1265,-7.4455 3.7709,-9.5084 3.7709,-13.0539 0,-2.353 -0.064,-2.4828 -0.6444,-3.7399 -1.0959,-2.2562 -3.0293,-3.8999 -6.5748,-5.4792 -3.0943,-1.386 -3.7393,-1.6758 -4.6095,-2.3849 -1.934,-1.5149 -2.321,-4.3513 -0.7416,-6.0596 0.7856,-0.8662 2.4655,-1.3296 4.3072,-1.327 z m -40.7262,0.5705 c 1.2335,-0.014 1.625,0.12 2.189,0.402 2.1595,1.1926 3.1586,3.8352 2.095,5.8658 -0.5479,1.0637 -1.9343,1.9345 -3.8359,2.3213 -0.7414,0.1289 -1.9341,0.4509 -2.5787,0.5798 -3.3521,0.7736 -6.5748,3.5457 -7.445,6.3821 -1.7083,5.6728 1.192,12.1838 7.9607,17.5343 1.4505,1.1603 5.4151,3.8676 7.5102,5.0602 0.7091,0.419 0.9674,0.741 1.9022,2.6427 0.6124,1.1926 1.1923,2.4503 1.2567,2.837 0.129,0.7736 0,0.8377 -0.5482,0.322 -0.1934,-0.1934 -1.45,-1.1602 -2.7714,-2.095 -8.2192,-5.7695 -13.1188,-9.7986 -15.3428,-12.6995 -1.1603,-1.4504 -2.9651,-4.5445 -3.4163,-5.7371 -2.7075,-7.3811 -1.5794,-14.3108 3.2877,-19.1135 1.9016,-1.8695 3.5136,-3.0295 5.7376,-3.7709 1.1603,-0.4512 1.6435,-0.5162 3.4163,-0.5162 0.2135,-0.01 0.4067,-0.013 0.5829,-0.015 z m 91.7882,4.3791 c 0.8978,1.3355 1.7525,2.489 2.5993,3.4964 v 47.8694 c -5.0954,-10.0397 -10.794,-21.403 -11.0375,-32.3184 -0.2195,-9.8347 2.2058,-14.3298 8.4511,-19.0268 z m -80.6354,1.712 c -0.1556,0.029 -0.2011,0.5576 -0.1648,1.6273 0,1.5793 0.065,1.7731 0.4516,2.0955 0.7091,0.5479 0.9667,0.4509 0.7411,-0.3871 -0.1289,-0.7735 0.258,-0.9024 0.5803,-0.1933 0.1934,0.5802 0.3869,0.6446 0.5803,0.1933 0.3868,-0.9025 -0.1289,-1.7725 -0.8702,-1.7725 -0.2256,0 -0.4837,-0.1614 -0.7416,-0.7415 -0.2679,-0.5641 -0.4557,-0.8441 -0.5767,-0.8217 z m 83.9226,2.5704 c 0.479,0.5265 0.9589,1.0083 1.4458,1.4505 v 48.6984 l -0.3183,0.5229 c -0.3646,-0.7273 -0.7503,-1.4843 -1.1275,-2.2283 z m 2.1342,2.0474 c 0.4705,0.3865 0.9507,0.7394 1.4454,1.0645 v 43.5343 l -1.4454,2.373 z m -77.9746,0.2491 c 0.1974,-0.016 0.359,0.1446 0.5204,0.4992 0.9024,1.6761 1.1605,5.9953 0.5803,9.8309 -0.2901,2.2885 -0.3547,2.4822 -0.4837,2.1921 -0.4512,-0.6124 -3.4812,-9.7019 -3.4168,-10.0242 0.065,-0.1611 0.4188,-0.6129 0.8056,-0.8707 0.3868,-0.3223 0.935,-0.7407 1.2573,-1.063 0.3062,-0.3545 0.5395,-0.5482 0.7369,-0.5643 z m 80.1083,1.2402 c 0.4831,0.2875 0.9643,0.5519 1.4433,0.7865 v 38.824 l -1.4433,2.3694 z m -87.5952,0.8206 v 0 c 0.5043,0.019 1.1902,0.2041 1.5286,0.5002 0.2257,0.1612 1.1922,2.3206 2.3203,5.3506 2.0629,5.3505 3.1589,7.7037 4.0292,8.7028 0.3223,0.2901 0.5803,0.6771 0.5803,0.7416 0,0.2256 -0.6771,0.129 -1.5151,-0.3545 -0.4513,-0.2579 -1.1279,-0.8057 -1.5146,-1.3214 -0.6769,-0.9025 -5.3508,-10.7338 -5.931,-12.4421 -0.1933,-0.6124 -0.193,-0.9346 -0.064,-1.0635 0.065,-0.064 0.1951,-0.1011 0.3633,-0.1121 0.063,0 0.131,0 0.2031,0 z m 3.3543,0.2124 c 0.1659,0.01 0.3014,0.096 0.4626,0.2569 0.2901,0.2901 1.6113,3.8358 3.7708,10.0888 0.3867,1.1925 0.5159,1.7727 0.4837,2.7719 l -0.064,1.1281 -0.3866,-0.5803 c -0.5157,-0.7414 -1.0639,-2.031 -3.159,-7.3815 -1.0314,-2.5141 -1.8377,-4.8988 -1.9022,-5.3501 -0.064,-0.6768 -0.064,-0.7413 0.4517,-0.8702 0.1329,-0.048 0.2436,-0.07 0.3431,-0.064 z m 86.3741,0.075 c 0.4844,0.2149 0.9654,0.4032 1.4439,0.5731 v 34.4258 l -1.4439,2.3704 z m 2.1342,0.8046 c 0.4852,0.1537 0.9664,0.289 1.4434,0.4062 v 30.2855 l -1.4434,2.3693 z m 2.1317,0.5664 c 0.4868,0.1049 0.9693,0.1955 1.4454,0.2728 v 26.3498 l -1.4454,2.373 z m 2.1332,0.3767 c 0.4905,0.069 0.9693,0.1239 1.4459,0.1757 v 22.566 l -1.4459,2.3741 z m 2.1342,0.2491 c 0.4907,0.048 0.9725,0.094 1.4454,0.1374 v 18.8526 l -1.4454,2.3735 z m 2.1332,0.2051 c 0.4907,0.047 0.9763,0.096 1.4439,0.155 v 15.1309 l -1.4439,2.3699 z m 2.1337,0.2501 c 0.497,0.075 0.9783,0.1651 1.4439,0.2755 v 11.2566 l -1.4439,2.3704 z m 2.1338,0.4605 c 0.5028,0.15 0.9859,0.3301 1.4438,0.5545 v 7.0145 l -1.4438,2.3704 z m -72.5604,0.7152 c -0.073,0.017 -0.1545,0.5905 -0.2109,1.7751 -0.087,1.4494 -0.2604,2.4858 -0.5726,3.2313 l 0.3793,0.3788 c 1.0143,1.0424 1.9055,1.2231 3.1254,0.6278 -0.9415,0.1655 -1.8952,-0.2249 -2.2877,-0.9818 -0.1289,-0.2256 -0.2573,-1.3869 -0.2573,-2.4505 0,-1.7043 -0.082,-2.6026 -0.1762,-2.5807 z m 74.6941,0.2263 c 0.7893,0.4942 1.5,1.1438 2.1151,2.0226 v 6e-4 l -2.1151,3.4716 z m -123.0788,6.1733 c 0.039,0 0.068,0.017 0.084,0.049 0.064,0.1289 0.4832,0.4516 0.9989,0.7095 0.4835,0.1611 0.935,0.5476 0.9994,0.741 0.064,0.1934 0.7735,1.3862 1.5793,2.6433 0.8702,1.3859 1.5153,2.5785 1.5797,3.0298 0.1934,1.0314 -0.1616,1.7725 -0.8707,2.0303 -0.7092,0.2579 -0.6444,0.2582 -1.5147,-0.2253 -1.7727,-0.9025 -6.0594,-6.0594 -6.5107,-7.8967 -0.1289,-0.5157 -0.1288,-0.5165 0.3225,-0.3875 0.2578,0.1289 0.8056,0.1943 1.3213,0.1943 0.6447,0 0.9342,-0.065 1.3855,-0.5163 0.2901,-0.2417 0.508,-0.3744 0.6258,-0.3715 z m 4.5429,0.027 c 0.017,0 0.033,3e-4 0.048,0 0.072,0.017 0.1264,0.093 0.1989,0.2135 0.4513,0.7091 1.2893,1.3213 2.1596,1.5792 0.4835,0.064 0.9346,0.2579 1.0635,0.2579 0.1289,0 0.3874,0.4191 0.5808,0.9348 0.1934,0.4835 0.6762,1.5145 1.063,2.3203 0.7736,1.4504 0.967,2.4498 0.5158,2.9011 -0.3224,0.2578 -1.3856,0.2576 -2.3203,0.032 -1.3215,-0.4835 -3.3523,-2.9005 -4.7382,-5.6725 -0.5802,-1.1281 -0.58,-1.5146 -0.1287,-1.5146 0.1289,0 0.548,-0.2585 0.9348,-0.5809 0.3349,-0.3173 0.5054,-0.4609 0.6232,-0.4733 z m 5.2105,0.5706 0.5798,0.6449 c 0.3223,0.2901 0.8062,0.676 1.064,0.7405 0.548,0.1289 1.6761,0.065 2.2562,-0.1933 0.3868,-0.1289 0.3868,-0.064 0.2579,0.5158 -0.064,0.3545 -0.258,1.4506 -0.3225,2.3853 -0.1289,1.2249 -0.2578,1.8371 -0.5157,2.095 -0.3223,0.3868 -0.9992,0.4515 -1.6438,0.1292 -0.5479,-0.1612 -1.8695,-2.4496 -2.3208,-3.9 l -0.387,-1.1281 0.5162,-0.6444 z m 19.28,0.2118 v 0 c -0.055,0 -0.1105,0 -0.1654,0 -0.2026,0.012 -0.4011,0.063 -0.5855,0.1581 -0.284,0.1239 -0.5327,0.4101 -0.7829,0.7684 -0.2517,0.3607 -0.496,0.7976 -0.7116,1.2206 -0.346,0.6791 -0.5055,1.087 -0.5994,1.3157 -0.067,0.1467 -0.2451,0.4567 -0.2449,0.4568 -0.076,0.2016 0.226,0.3158 0.3022,0.1143 0,0 0.023,-0.041 0.024,-0.042 0.033,-0.019 0.059,-0.05 0.071,-0.086 0,0 0.1255,-0.2713 0.1499,-0.3307 0.096,-0.2066 0.1171,-0.3098 0.3281,-0.6119 0.3693,-0.5286 0.8864,-1.0131 1.4919,-0.9849 0,0 0,0 0.01,0 0.3369,0 0.5069,0.061 0.5711,0.1142 0.064,0.053 0.073,0.1067 0.059,0.2217 -0.013,0.1149 -0.063,0.2642 -0.098,0.4185 -0.035,0.1544 -0.064,0.3348 0.043,0.4951 0.1169,0.1753 0.3267,0.2168 0.5472,0.2139 0.2205,0 0.4713,-0.06 0.707,-0.1782 0.2356,-0.1179 0.4569,-0.2987 0.6041,-0.5473 0.1464,-0.2473 0.2125,-0.5631 0.1431,-0.9255 -0.1835,-1.075 -1.0329,-1.7531 -1.8619,-1.7916 z m 4.2173,0.8196 0.6444,0.2579 c 0.3223,0.1289 0.8056,0.2573 1.0635,0.2573 0.5157,0 0.5157,-0.1284 0.2579,2.5146 -0.2579,2.5786 -0.4839,3.3199 -1.0641,3.9 -0.6768,0.6447 -1.5141,0.902 -1.6753,0.5152 -0.064,-0.097 -10e-5,-1.1925 0.1933,-2.2562 0.1934,-1.0959 0.3867,-2.7393 0.4511,-3.6096 z m -10.4417,4.7052 v 5e-4 c -0.01,-3e-4 -0.01,-3e-4 -0.016,0 -0.055,0.01 -0.1038,0.038 -0.1287,0.088 0,0 -0.5864,1.1362 -0.9467,2.3482 -0.085,0.2582 -0.2087,0.369 -0.3597,0.4356 -0.1524,0.067 -0.3463,0.082 -0.5447,0.086 -0.1983,0 -0.3998,-0.01 -0.5855,0.076 -0.093,0.042 -0.1792,0.1161 -0.2304,0.2191 -0.051,0.103 -0.069,0.223 -0.059,0.3664 0.037,0.5751 0.467,1.0151 0.9704,1.2227 0.5035,0.2075 1.1101,0.1971 1.5229,-0.1783 0.2331,-0.2109 0.3327,-0.583 0.4119,-1.0351 0.079,-0.4521 0.1197,-0.9846 0.138,-1.4986 0.037,-1.028 -0.014,-1.9777 -0.014,-1.9777 0,-0.084 -0.074,-0.1509 -0.1582,-0.1524 z m 2.5151,0.6764 c -0.097,0 -0.174,0.082 -0.1633,0.1788 0.1911,1.7526 -0.041,2.6704 -0.3664,3.238 -0.3255,0.5677 -0.764,0.7952 -1.0542,1.1943 v 0 c -0.1534,0.2204 -0.1838,0.4725 -0.1003,0.6806 0.083,0.2079 0.2651,0.3666 0.4925,0.464 0.4547,0.1949 1.114,0.1572 1.7347,-0.2739 v 0 c 0.3501,-0.2601 0.4578,-0.7423 0.4688,-1.2894 0.011,-0.547 -0.083,-1.1791 -0.2114,-1.7823 -0.2525,-1.1865 -0.6322,-2.2278 -0.6449,-2.2629 -2e-4,0 -0.01,-0.038 -0.01,-0.038 -0.022,-0.063 -0.081,-0.1055 -0.1473,-0.1075 z m -11.8608,0.2289 c 0.1786,0 0.2504,0.3462 0.3834,1.2547 0.1612,1.1604 0,1.7085 -0.5798,1.9663 -0.2578,0.129 -0.5805,0.2576 -0.6449,0.2253 -0.5157,0 -1.8371,-0.7409 -2.095,-1.1921 -0.3223,-0.4192 -0.3223,-0.4835 0,-0.8703 0.1934,-0.1611 0.3866,-0.5481 0.3866,-0.7415 0,-0.3224 0.064,-0.3868 0.4511,-0.2579 0.6446,0.2579 1.3862,0.129 1.773,-0.1933 0.141,-0.1209 0.2444,-0.1918 0.3256,-0.1912 z m -7.5138,0.4171 1.1281,0.709 c 0.6447,0.3545 1.386,0.7411 1.6439,0.8056 0.7091,0.1934 3.1589,2.0627 3.1589,2.4495 0,0.097 -0.129,0.4833 -0.3224,0.8056 -0.129,0.2901 -0.3224,0.935 -0.4191,1.4185 l -0.1282,0.8056 -2.2242,-1.3213 c -3.8355,-2.3529 -5.2865,-3.4809 -4.4162,-3.4809 0.6446,0 1.1926,-0.5802 1.3859,-1.386 z m 19.4335,0.4661 c 0.01,0.2288 0,0.4437 -0.01,0.6392 0,-0.2063 0.01,-0.4224 0.01,-0.6392 z m 18.1172,0.3069 c 0.064,0 0.1287,0.7741 0.1287,1.6444 0,1.3859 -0.1283,1.9655 -0.7085,3.4804 -1.3215,3.61 -1.5157,4.9321 -1.5157,11.0562 0,2.9653 -0.064,5.4795 -0.1286,5.6084 -0.4835,0.8058 -1.6118,-0.1289 -2.4821,-1.9017 -0.8702,-1.9017 -1.0635,-3.0942 -1.0635,-6.3174 0,-3.4166 0.4509,-5.9957 1.4501,-9.0899 0.4834,-1.6438 0.6131,-1.8371 0.9999,-1.8371 0.8058,0 1.6437,-0.5157 2.4495,-1.386 0.3545,-0.4834 0.741,-0.9345 0.741,-1.0635 0,-0.1289 0.065,-0.1938 0.1292,-0.1938 z m -9.0253,0.4512 c 0.064,0 0.1936,0.2585 0.3225,0.5808 0.1934,0.4513 0.1294,0.9988 -0.2574,2.836 -0.7735,3.61 -0.9351,4.2221 -1.5797,4.8023 -0.5802,0.4835 -1.0637,0.6132 -1.386,0.3876 -0.3545,-0.3223 0,-4.9322 0.5152,-6.6404 0.2901,-1.0315 0.2259,-0.9671 2.3854,-1.9663 z m 3.7558,0.1447 v 5e-4 c 0.015,0 0.028,0 0.039,0 0.055,0.015 0.073,0.097 0.073,0.2418 0,0.129 0.1937,0.4826 0.3871,0.9338 0.5157,0.8703 0.5156,0.9353 -0.065,2.7725 -0.5802,1.9017 -1.1282,4.7382 -1.4505,7.768 -0.129,1.257 -0.3869,2.5781 -0.5158,2.836 -0.1934,0.3868 -0.3865,0.5803 -0.6444,0.5803 -1.4504,0 -1.9663,-1.4507 -1.9663,-5.4152 0,-2.7074 0.3222,-4.8663 1.0635,-7.3804 0.2579,-0.8703 0.3227,-0.9347 1.064,-1.1281 0.4513,-0.1289 1.0637,-0.4516 1.386,-0.7095 0.3351,-0.3173 0.5253,-0.4804 0.6289,-0.4997 z m 10.3617,0.1684 c 0.014,0 0.025,1e-4 0.033,0.01 0.064,0.064 -0.1287,0.6131 -0.3866,1.1933 -1.7083,4.0934 -2.9656,10.6685 -2.6432,13.6983 0.4512,4.0613 1.5791,6.5102 4.5444,9.7979 1.1927,1.2571 1.5155,1.9988 1.1932,2.5146 -0.1289,0.1934 -0.5163,0.3224 -1.1932,0.3224 -1.1926,0.064 -2.9646,-0.8703 -4.8018,-2.5786 -2.6107,-2.4496 -3.4814,-5.0608 -3.4814,-10.4113 0,-4.7381 0.6446,-8.4772 1.9017,-11.1202 l 0.5798,-1.1922 h 0.8707 c 0.8705,0 1.9017,-0.6448 2.772,-1.7084 0.282,-0.282 0.5149,-0.5145 0.6118,-0.5251 z m -34.2682,1.51 c 0.046,-0.01 0.086,-0.01 0.1183,0 0.037,0.01 0.064,0.022 0.081,0.046 0,0.064 0.4195,0.6447 0.8708,1.386 0.4512,0.6769 1.3215,1.8053 1.9017,2.45 l 1.0635,1.1281 -0.4517,0.9989 c -1.1926,2.4496 -0.8053,4.1578 1.6444,7.1876 0.3867,0.4191 0.6442,0.9351 0.5798,1.0641 0,0.1289 -0.4828,0.451 -1.063,0.6444 -1.386,0.5157 -4.8677,0.6447 -6.6404,0.4191 -0.3224,-0.129 -0.3866,-0.2579 -0.3866,-1.386 0,-1.257 0,-1.3215 0.645,-1.6438 0.3867,-0.1612 0.8702,-0.5485 1.1281,-0.8708 0.709,-0.8058 0.5155,-1.3856 -0.9349,-4.2865 -0.9993,-2.0306 -1.1927,-2.5465 -1.1927,-3.3523 0,-1.257 0.4515,-2.3207 1.2573,-3.0298 0.4442,-0.3948 1.0584,-0.7143 1.3798,-0.7555 z m -10.2624,6.796 c 0.5545,0.015 0.7604,0.148 1.1472,0.5348 0.3223,0.2257 0.5798,0.6132 0.5798,0.7421 0,0.6124 0.5798,1.3208 2.2236,2.7068 1.4505,1.2571 1.9662,1.5151 2.772,1.7084 l 0.9994,0.1933 -0.065,1.1281 -0.064,1.1281 -1.4506,0.3225 c -1.5793,0.3223 -2.0309,0.5804 -2.9657,2.0308 -0.3223,0.5158 -0.8699,1.0636 -1.2567,1.3214 -0.3868,0.2579 -0.9351,0.7417 -1.3219,1.064 -0.3546,0.3224 -0.8059,0.644 -0.9348,0.7085 -0.1934,0.064 0,0.1936 0.4516,0.3225 0.5157,0.1289 0.6447,0.2576 0.4511,0.3865 -0.5156,0.3223 -1.7724,0.1933 -2.3848,-0.3224 -1.2571,-0.8058 -0.9991,-2.0948 0.5803,-2.9006 0.7091,-0.3224 1.3212,-0.8704 1.7725,-1.4506 l 0.709,-0.8697 -0.6449,0.1287 c -0.8058,0.1934 -0.9984,0.2582 -0.7405,0.4516 0.3868,0.2579 -0.3877,1.0634 -1.3224,1.5147 -0.4835,0.1933 -0.9992,0.5154 -1.1281,0.6444 -0.4513,0.6446 -0.7731,-0.4194 -0.2574,-1.0641 0.1934,-0.1933 0.4832,-0.3219 0.9989,-0.3219 0.3546,0 0.8707,-0.1291 1.064,-0.3225 0.3224,-0.2578 0.3224,-0.2577 0,-0.1932 -0.1933,0.064 -0.7414,0.1292 -1.1926,0.1292 -0.7092,0 -0.9349,0.064 -1.4506,0.6444 -0.2901,0.2902 -0.741,0.6767 -0.9989,0.8056 -0.3223,0.1289 -0.4517,0.3867 -0.4517,0.709 0,0.5802 -0.1933,0.6453 -0.709,0.065 -0.5801,-0.6124 -0.709,-1.1287 -0.4511,-2.3213 0.2256,-1.3215 0.7409,-1.7079 2.3203,-1.7079 0.7413,0 1.5802,-0.1934 2.4505,-0.5157 1.4826,-0.548 1.6752,-0.8057 0.7405,-0.8057 -0.3868,0 -1.2885,-0.1289 -2.0299,-0.2578 -0.7735,-0.1934 -1.6443,-0.2578 -1.9022,-0.1933 -0.3545,0.064 -0.5479,-2e-4 -0.8702,-0.3225 -0.3223,-0.3223 -0.3865,-0.387 -0.3865,-0.1292 0,0.3546 -0.2901,0.6123 -0.8703,0.8057 -0.3868,0.1289 -0.4511,0.065 -0.4511,-0.4512 0,-0.7413 0.4191,-1.8052 0.9348,-2.3853 0.6447,-0.6124 1.5787,-0.4831 2.9647,0.4516 0.3223,0.2579 1.0641,0.5159 1.5798,0.5803 l 0.9348,0.1292 -1.064,-0.3875 c -0.9347,-0.3546 -1.0631,-0.4188 -0.8698,-0.7411 0.064,-0.1934 0.2575,-0.3867 0.322,-0.4511 0.2901,-0.2579 1.8047,0.2899 2.3849,0.8056 0.9024,0.7414 0.9351,0.6124 0.1937,-0.2578 -0.3223,-0.4191 -0.8061,-0.7412 -1.064,-0.8057 -0.9347,-0.1289 -1.2566,-0.2581 -1.45,-0.6449 -0.129,-0.3546 -0.1289,-0.483 0.2578,-0.8697 l 0.4507,-0.4517 -0.3866,0.1292 c -0.2578,0.1289 -0.8701,0.258 -1.3213,0.3225 l -0.8057,0.1287 0.4517,-0.5163 c 0.7413,-0.7413 1.4501,-1.063 2.836,-1.063 0.2822,-0.016 0.5056,-0.025 0.6904,-0.02 z m -3.1926,6.4818 c 0.3183,0.016 0.7134,0.113 1.2774,0.3064 0.7736,0.1934 0.9669,0.3222 0.709,0.4511 -0.3223,0.1612 -2.5141,0.3548 -2.9331,0.2259 -0.3868,-0.1612 -0.3221,-0.5483 0.1292,-0.8062 0.2578,-0.1289 0.4992,-0.1934 0.8175,-0.1772 z m 19.7233,1.7347 c 0.5666,-0.029 0.7483,0.2553 1.1834,1.2465 0.3224,0.8702 0.387,0.9349 0.065,1.5151 -0.6446,1.2571 -2.2887,3.2556 -3.1589,3.836 -0.9992,0.6768 -1.7408,0.7406 -2.1275,0.2894 -0.2579,-0.3868 0.1291,-1.7077 1.5151,-4.6086 l 0.8702,-1.9016 0.9349,-0.2584 c 0.2981,-0.064 0.5294,-0.1088 0.7183,-0.1184 z m -2.4344,0.5127 c 0.052,0 0.088,0.01 0.1044,0.025 0.1289,0.097 -1.2891,2.8367 -2.0304,3.8359 -0.9992,1.386 -2.8368,2.8364 -4.3517,3.5455 -2.0306,0.9347 -4.0932,0.8701 -3.932,-0.065 0,-0.258 0.2896,-0.7412 0.9343,-1.3213 2.1273,-2.0307 3.6428,-3.6099 4.223,-4.6091 l 0.5798,-1.064 h 1.4505 c 0.8058,0 1.805,-0.064 2.2562,-0.1932 0.3143,-0.097 0.6103,-0.157 0.7659,-0.154 z m 4.9811,6.2301 c 0.2155,0.01 0.4857,0.1041 0.8604,0.2733 1.1281,0.5157 1.1931,0.9348 0.2584,2.772 -0.8381,1.7083 -0.9033,2.2886 -0.3876,3.6101 0.3868,1.0636 0.4515,1.6765 0.1292,2.2567 -0.129,0.1934 -0.2574,1.16 -0.2574,2.2236 -0.064,1.9017 -0.065,1.9016 0.8697,1.8371 0.3223,-0.064 0.3229,-2e-4 0.2584,0.3866 -0.1934,0.5479 -0.7419,1.0637 -1.1932,0.9348 -0.1612,-0.065 -0.5474,-10e-5 -0.8697,0.1933 -0.7736,0.3868 -0.9675,0.3872 -1.5477,-0.2574 -0.4513,-0.419 -0.4513,-1.0637 0,-2.5786 0.1934,-0.5158 0.1936,-1.128 0.1292,-1.5793 l -0.1292,-0.709 -0.4506,0.709 c -0.2579,0.3546 -0.7413,0.8056 -1.1281,0.9989 -0.548,0.3224 -0.6771,0.4194 -0.7416,1.0641 -0.064,0.5479 -0.1934,0.8058 -0.5157,0.9348 -0.4513,0.1611 -0.5802,0.5476 -0.2579,0.741 0.129,0.064 0.1933,0.2575 0.1933,0.322 0,0.2578 -0.6121,0.1935 -1.2568,-0.1933 -0.419,-0.2578 -0.6122,-0.5154 -0.8056,-1.2568 -0.2579,-1.1603 -0.1291,-1.4828 0.8056,-2.2241 0.5418,-0.4214 0.9208,-0.8302 1.1767,-1.3043 -0.1974,0.298 -0.5427,0.6838 -0.8547,0.9177 -0.3224,0.1612 -0.7412,0.6119 -1.0635,0.8697 -0.3224,0.2579 -0.5801,0.5163 -0.6124,0.4197 0,0 -0.1938,-0.1939 -0.4517,-0.4517 -0.3867,-0.419 -0.3864,-0.4185 -0.064,-0.8697 0.1935,-0.2578 0.6127,-0.5164 0.9995,-0.5809 0.3867,0 0.9347,-0.2577 1.3859,-0.4511 0.3103,-0.1692 0.6449,-0.2892 0.7669,-0.2734 0.017,0 0.031,0.01 0.039,0.016 0.012,0.012 0.016,0.031 0.016,0.053 0.074,-0.188 0.1329,-0.3863 0.1773,-0.601 l 0.1292,-0.6449 -0.6444,0.5803 c -0.4513,0.3545 -0.9348,0.6127 -1.6439,0.8061 -0.7091,0.1612 -1.1928,0.3548 -1.5151,0.7416 -0.2901,0.3868 -0.6771,0.5798 -0.9994,0.5798 -0.6124,0 -0.8702,0.1294 -1.0635,0.7095 -0.1292,0.5158 -0.3869,0.5154 -0.645,0.064 -0.2578,-0.4512 -0.1927,-1.386 0.065,-1.6438 0.129,-0.1289 0.2577,-0.5481 0.1933,-0.9348 -0.064,-0.548 -10e-5,-0.7417 0.4511,-1.0641 0.3868,-0.3223 0.6447,-0.3218 1.6439,-0.2573 1.0314,0.064 1.3539,-3e-4 2.2241,-0.3871 0.5802,-0.2901 1.1922,-0.6123 1.4501,-0.8702 l 0.4511,-0.3865 h -1.1927 c -0.6447,0 -1.3211,-0.1294 -1.45,-0.1938 -0.1934,-0.129 -0.3871,-0.064 -0.645,0.1938 -0.5157,0.4512 -1.2567,0.387 -1.5146,-0.1287 -0.1934,-0.3223 -0.2578,-0.3226 -0.4511,-0.1292 -0.097,0.1289 -0.4194,0.2579 -0.8062,0.2579 -0.3545,0 -0.8056,0.064 -1.0635,0.1286 -0.3868,0.129 -0.4514,0.1288 -0.3224,-0.3224 0.1933,-0.6447 0.6447,-1.0634 1.4505,-1.5147 0.419,-0.1611 0.8701,-0.4837 1.0635,-0.7415 0.419,-0.5157 1.5793,-0.5156 2.5141,0.065 0.7091,0.4512 0.7735,0.4511 2.1595,0.1932 2.1918,-0.3545 2.9657,-0.8702 3.836,-2.514 0.282,-0.5641 0.4883,-0.8011 0.8474,-0.7891 z m -6.996,5.7045 c 0.274,0 0.5724,0.016 0.8625,0.048 l 0.9348,0.1933 -0.8707,0.4516 c -1.4827,0.6447 -3.4166,0.7091 -3.2877,0 0,-0.1934 0.2579,-0.3865 0.5157,-0.3865 0.2579,-0.064 0.7413,-0.1939 1.1281,-0.2584 0.1934,-0.032 0.4434,-0.048 0.7173,-0.048 z m 5.0844,4.561 v 0.7416 c 0,0.4512 -0.1285,1.0632 -0.3219,1.5146 -0.3223,0.838 -0.3223,0.8378 -0.8702,0.6444 -0.6447,-0.2579 -0.5806,-1.1279 0.064,-1.5146 0.2256,-0.097 0.6127,-0.4834 0.8061,-0.8057 z m 74.7299,21.3233 h 2.2391 v 3.2344 h 3.4024 v -3.2344 h 2.2469 v 3.2344 h 3.3543 v -3.2344 h 2.2469 v 3.2344 h 3.4023 v -3.2344 h 2.2392 v 5.1402 h -19.1311 z m -97.3166,0.8764 0.032,0.076 c -0.6284,0.066 -1.2006,0.2352 -1.633,0.4764 l -0.2165,0.1214 0.049,0.244 c 0.1302,0.6501 0.3673,1.0322 0.6971,1.3048 0,0 0,0 0,0 0.4172,0.3977 0.9061,0.5681 1.758,1.3534 0.4917,0.4655 1.0941,1.1256 1.8397,2.1151 1.0472,1.3899 2.0992,2.4751 3.0469,3.3089 0.438,0.3899 0.8327,0.6905 1.2169,0.9782 l -0.055,0.1173 c 0,0 0.054,0.032 0.096,0.056 l -0.01,0.017 c 0,0 2.0842,1.2665 4.7734,3.0825 -0.3828,-0.1219 -0.7005,-0.2396 -1.1601,-0.3617 -1.6965,-0.4509 -3.8433,-0.8563 -5.9144,-0.8418 h -0.4703 l 0.025,0.078 c -1.2142,0.048 -2.4175,0.181 -3.4452,0.6346 -1.6368,0.7226 -2.4969,1.352 -2.9611,1.8283 -0.2321,0.2382 -0.366,0.4392 -0.4413,0.5938 -0.075,0.1546 -0.094,0.3049 -0.094,0.3049 v 0.049 l 0.01,0.047 c 0,0 0.043,0.1525 0.1406,0.2733 0.095,0.1181 0.2513,0.2457 0.4826,0.3535 0.5075,0.28 1.4435,0.4733 3.3864,0.2284 1.6527,-0.2083 4.1121,-0.2511 6.4864,-0.4335 2.3045,-0.1771 4.4974,-0.486 5.9278,-1.2754 1.2161,0.872 2.3677,1.6884 3.6504,2.7481 -0.01,0 -0.019,0 -0.027,-0.01 -0.4783,-0.094 -0.8378,-0.1627 -1.1172,-0.1484 -0.3916,0.02 -0.9878,0.1529 -1.5446,0.2853 -0.5369,0.1276 -0.987,0.2496 -1.0961,0.279 -0.6877,-0.3329 -1.5732,-0.2596 -2.3652,0.2114 -0.5537,0.3293 -0.9715,0.7789 -1.201,1.2692 -0.2295,0.4902 -0.2673,1.0483 0,1.5043 0.137,0.2283 0.3448,0.4061 0.5896,0.5271 0.7033,0.3954 1.6564,0.2707 2.4805,-0.2186 v 0 c 0.7931,-0.4725 1.2515,-1.2202 1.2831,-1.9766 0.3416,-0.095 0.7795,-0.2173 1.2206,-0.3204 0.2279,-0.053 0.7712,-0.032 1.248,0.029 0.1067,0.014 0.1299,0.023 0.229,0.039 -0.1481,0.1066 -0.097,0.059 -0.3478,0.248 -0.4763,0.3587 -1.0756,0.9577 -1.5627,1.4573 -0.3609,-0.058 -0.7331,-0.089 -1.0837,0.08 -0.4529,0.2189 -0.8728,0.5915 -1.1953,1.078 -0.3555,0.537 -0.5358,1.1228 -0.5296,1.664 0.01,0.5411 0.2119,1.0609 0.6542,1.3539 v 0 0 c 0.065,0.042 0.1338,0.076 0.2051,0.106 0.3165,0.1559 0.6715,0.046 1.0175,-0.032 -1.2941,0.6456 -2.4993,1.4537 -3.4276,2.5353 -1.3926,1.6223 -2.0364,2.7612 -2.3338,3.5212 -0.1487,0.38 -0.2103,0.6654 -0.2325,0.8656 -0.022,0.2002 0,0.3535 0,0.3535 l 0.01,0.039 0.017,0.037 c 0,0 0.089,0.1633 0.246,0.2698 0.1556,0.1053 0.3934,0.1874 0.7111,0.1896 0.6332,0.032 1.6118,-0.2357 3.3103,-1.3342 1.5213,-0.984 3.8312,-2.1331 6.057,-3.4004 2.0601,-1.1727 3.981,-2.4551 5.2462,-3.8576 0.7181,1.1412 1.5159,2.6839 2.3844,4.4555 -0.5365,-0.01 -1.1227,-0.021 -1.7989,-0.016 -0.4471,0 -0.8793,0.014 -1.2417,0.034 -0.3625,0.019 -0.6373,0.037 -0.8538,0.099 -0.3944,0.1125 -0.9769,0.3882 -1.5291,0.6604 -0.494,0.2436 -0.8749,0.4473 -1.0624,0.5468 -0.01,0 -0.019,-0.01 -0.029,-0.01 v 0 c -0.8295,-0.2171 -1.7897,0.1522 -2.5311,0.8609 -0.507,0.4848 -0.8401,1.0656 -0.9633,1.6392 -0.1232,0.5736 -0.028,1.166 0.3654,1.5777 0.2984,0.31 0.7278,0.4643 1.1875,0.463 0.7282,0.017 1.4895,-0.3344 2.0976,-0.9157 0.7339,-0.703 1.0422,-1.6189 0.879,-2.4278 0.3432,-0.1868 0.7916,-0.4318 1.2459,-0.6547 0.25,-0.1227 0.8913,-0.2355 1.4474,-0.2868 0.1516,-0.014 0.1664,-0.01 0.3008,-0.017 -0.1451,0.1627 -0.1,0.096 -0.3886,0.4393 -0.4034,0.4802 -0.873,1.2333 -1.2635,1.8732 -0.9396,0.01 -1.7929,0.7827 -2.1993,1.865 v 0 c -0.2458,0.657 -0.293,1.3223 -0.1546,1.8924 0.1386,0.57 0.4826,1.0645 1.016,1.264 0.2727,0.1011 0.5728,0.1124 0.8651,0.045 0.8343,-0.1703 1.5321,-0.9151 1.8888,-1.8681 0.3245,-0.8675 0.2621,-1.7531 -0.1292,-2.4195 0.2318,-0.491 0.6116,-1.1773 1.3265,-2.0215 0.7541,-0.8906 1.6856,-0.9917 2.3611,-0.9535 1.0851,2.2558 2.3046,4.7916 3.6463,7.3774 -1.9816,-0.3786 -5.0986,-0.7127 -7.9293,0.039 h 0.042 l -0.088,0.011 v 0 0 0 0 0 c -0.1011,0.027 -0.2025,0.055 -0.3028,0.086 -0.073,0.022 -0.1443,0.045 -0.2129,0.067 -0.05,0.016 -0.1025,0.034 -0.1581,0.053 -0.7871,0.2685 -1.5295,0.6318 -2.1797,1.1224 -1.4708,1.1097 -2.2055,1.9738 -2.5782,2.5864 -0.1863,0.3063 -0.2808,0.5511 -0.3281,0.7286 -0.047,0.1777 -0.045,0.3241 -0.045,0.3241 v 0.039 l 0.012,0.038 c 0,0 0.057,0.1595 0.1798,0.2864 0.1229,0.1268 0.3223,0.2566 0.6114,0.3343 0.5781,0.1553 1.5059,0.1265 3.1228,-0.4243 1.4211,-0.4841 3.5142,-0.9347 5.5877,-1.4898 1.9427,-0.52 3.8271,-1.1483 5.225,-2.0118 1.4012,2.5838 2.9855,5.1244 4.7047,7.4921 -2.93,-1.2853 -7.8618,-2.9136 -11.912,-1.5059 -2.5597,0.8897 -3.6894,1.7084 -4.2013,2.2423 0,0 0,0 0,0 0,0 0,0 0,0 -0.1673,0.1691 -0.2751,0.3138 -0.3421,0.4217 -0.068,0.109 -0.1033,0.2088 -0.1033,0.2088 l -0.014,0.043 v 0.044 c 0,0 0,0.07 0.013,0.1312 0.012,0.062 0.038,0.1389 0.083,0.2228 0.09,0.1678 0.26,0.3577 0.5467,0.5172 0.5736,0.3189 1.5992,0.551 3.5978,0.4512 1.8391,-0.092 4.4543,0.061 7.0605,0.08 2.5075,0.018 4.9751,-0.106 6.8435,-0.7089 0.215,0.2611 0.4315,0.5199 0.6527,0.7736 0.058,0.066 0.123,0.1359 0.1834,0.203 -0.5099,0.09 -1.0567,0.1839 -1.7208,0.3184 -0.4493,0.091 -0.8855,0.1865 -1.25,0.2775 -0.3646,0.091 -0.6396,0.1643 -0.8455,0.2692 -0.3656,0.1863 -0.8852,0.5699 -1.3751,0.9436 -0.4751,0.3624 -0.8827,0.6922 -1.0139,0.7989 -0.8268,-0.032 -1.6786,0.436 -2.2593,1.2594 -0.2956,0.4194 -0.4995,0.8887 -0.5844,1.3617 0,0 0,0 0,0 -0.1605,0.7945 0.031,1.5615 0.6036,1.9663 0.4653,0.3281 1.0665,0.3319 1.6153,0.125 0.549,-0.2068 1.0722,-0.62 1.4764,-1.1932 0.3559,-0.5064 0.5775,-1.0827 0.6191,-1.6464 0.034,-0.3469 -0.079,-0.6465 -0.1912,-0.9415 0.2987,-0.2473 0.6784,-0.5597 1.0702,-0.8573 0.2219,-0.1685 0.8237,-0.4015 1.3576,-0.5587 0.1489,-0.044 0.168,-0.041 0.3007,-0.076 -0.1018,0.1746 -0.081,0.1233 -0.2635,0.4527 -0.315,0.5696 -0.6518,1.4419 -0.9162,2.1606 -0.3875,0.098 -0.772,0.2382 -1.0485,0.5663 -0.3508,0.4163 -0.6032,0.9706 -0.7075,1.5958 v 0 c -0.029,0.1737 -0.045,0.349 -0.049,0.5235 0,0 0,0 0,0 -0.025,0.6086 0.1,1.1673 0.353,1.6113 0.2533,0.4444 0.6529,0.7814 1.1451,0.8635 0.5617,0.093 1.1051,-0.1632 1.5095,-0.5881 0.4043,-0.4249 0.6954,-1.0269 0.8103,-1.7188 0.057,-0.3417 0.064,-0.6878 0.024,-1.0211 -0.055,-0.5464 -0.3142,-0.9716 -0.6191,-1.3379 0.1344,-0.5282 0.381,-1.2826 0.9178,-2.2443 0.6781,-1.2149 1.835,-1.4077 2.4846,-1.4356 1.888,1.8467 4.3972,3.8931 6.9396,5.8689 -2.8271,-0.1527 -7.4608,0.06 -10.5472,2.6392 -1.552,1.2972 -2.3396,2.2544 -2.746,2.9098 -0.2032,0.3278 -0.3104,0.5806 -0.3669,0.7618 -0.057,0.1811 -0.063,0.3281 -0.063,0.3281 v 0.041 c 0,0 0,0.022 0,0.022 v 0.055 l 0.014,0.053 c 0,0 0.056,0.1728 0.1855,0.2987 0.1297,0.1259 0.3394,0.2418 0.6346,0.2873 0.5904,0.091 1.5255,-0.05 3.1993,-0.801 1.5296,-0.686 3.7776,-1.4159 5.9882,-2.2598 2.1111,-0.8059 4.1523,-1.7241 5.5878,-2.8494 0.8572,0.6452 1.6904,1.2573 2.5135,1.8552 -2.1859,0.2465 -5.3816,0.9336 -7.246,3.1016 -0.9825,1.1424 -1.4417,1.951 -1.6563,2.4981 -0.1073,0.2735 -0.1527,0.4827 -0.1695,0.633 -0.017,0.1503 0,0.2775 0,0.2775 l 0.01,0.041 0.01,0.022 c 10e-5,0 0,0.01 0,0.01 l 0.01,0.057 0.025,0.051 c 0,0 0.078,0.1437 0.2047,0.2305 0.1268,0.087 0.3176,0.1528 0.5591,0.1545 0.483,0 1.1795,-0.2138 2.3373,-0.9612 1.0073,-0.6501 2.5205,-1.409 4.0117,-2.2458 1.3954,-0.7831 2.7134,-1.6478 3.6757,-2.5864 1.6894,1.199 3.224,2.2507 4.3269,2.9827 0.5762,0.3824 1.0429,0.6855 1.3761,0.8925 0.1667,0.1035 0.2984,0.1822 0.3985,0.2382 0.05,0.028 0.092,0.051 0.1328,0.07 0.02,0.01 0.04,0.017 0.071,0.027 0.015,0.01 0.032,0.011 0.062,0.016 0.015,0 0.033,0 0.057,0 0.012,0 0.044,0 0.045,0 0,-1e-4 0.058,-0.014 0.058,-0.014 l 0.031,-0.01 0.032,-0.017 c 1.4184,-0.7742 2.5654,-1.7779 2.8086,-3.1466 l 0.045,-0.2537 -0.096,-0.047 0.01,-0.047 -0.2264,-0.1069 c 0,0 -3.2956,-1.6038 -7.3303,-3.9807 1.0772,-1.0495 2.0956,-2.4683 3.0216,-4.0039 1.0117,-1.6777 1.9355,-3.3888 2.7187,-4.5232 0.8894,-1.2883 1.1553,-2.0674 1.1678,-2.6019 0.01,-0.2673 -0.059,-0.4742 -0.1483,-0.6134 -0.089,-0.1392 -0.2346,-0.2263 -0.2346,-0.2263 l -0.047,-0.023 h -0.01 l -0.039,-0.027 -0.061,-0.014 c 0,0 -0.1351,-0.027 -0.3023,-0.014 -0.1671,0.014 -0.4012,0.057 -0.7131,0.168 -0.6239,0.2225 -1.5578,0.7149 -2.8908,1.7911 -2.9341,2.3684 -3.7501,6.9049 -3.9352,9.2129 -0.7152,-0.44 -1.4441,-0.8991 -2.1874,-1.385 2.1587,-2.9849 3.7121,-8.0702 5.0601,-10.8417 0.8023,-1.6495 0.9713,-2.5789 0.8987,-3.1719 -0.036,-0.2965 -0.1438,-0.5108 -0.2657,-0.6444 -0.1031,-0.1132 -0.208,-0.1483 -0.248,-0.1643 l 0.02,0.01 c -0.025,-0.015 -0.031,-0.017 -0.049,-0.025 0,0 -0.016,-0.01 -0.016,-0.01 h -0.012 c 0,0 -0.019,-0.01 -0.019,-0.01 l -0.055,-0.021 h -0.061 c 0,0 -0.1474,0 -0.3302,0.053 -0.1828,0.051 -0.4377,0.1487 -0.7716,0.3416 -0.6677,0.3858 -1.6493,1.1457 -2.9941,2.6567 -2.6896,3.0219 -3.0541,7.7383 -2.9843,10.5621 -2.4837,-1.7188 -4.9775,-3.6232 -7.1112,-5.6756 0.1141,-0.6682 0.4202,-1.5491 1.4568,-2.0862 0.9664,-0.5007 1.701,-0.7105 2.2324,-0.8299 0.5689,0.5425 1.4562,0.7737 2.3792,0.6506 0.6953,-0.093 1.3047,-0.3669 1.742,-0.7581 0.4373,-0.3911 0.7105,-0.9258 0.6346,-1.4903 -0.063,-0.4611 -0.3561,-0.8627 -0.7773,-1.1364 -0.5748,-0.3955 -1.357,-0.539 -2.1481,-0.4335 -0.6282,0.085 -1.1906,0.3185 -1.6175,0.6563 -0.3371,0.2666 -0.4896,0.648 -0.5994,1.033 -0.7261,0.2417 -1.6071,0.5489 -2.186,0.8459 -0.3677,0.1886 -0.3026,0.1642 -0.4878,0.2656 0.04,-0.1334 0.04,-0.16 0.089,-0.309 0.1723,-0.5213 0.4201,-1.1018 0.5938,-1.3162 0.3192,-0.3943 0.6587,-0.7785 0.9183,-1.0723 0.7543,0.3414 1.7184,0.2447 2.5704,-0.3163 0.5854,-0.3861 1.0163,-0.8975 1.2402,-1.4397 0.2239,-0.5421 0.2389,-1.1415 -0.074,-1.6169 v 0 0 c -0.1585,-0.2388 -0.3894,-0.4207 -0.6599,-0.5389 -0.775,-0.3637 -1.7832,-0.1765 -2.6386,0.3865 -0.841,0.5545 -1.3364,1.3917 -1.3302,2.219 -0.1107,0.1278 -0.4533,0.5262 -0.8304,0.9901 -0.3885,0.4779 -0.7885,0.9861 -0.986,1.3456 -0.1018,0.1854 -0.1766,0.4259 -0.2698,0.7483 -0.093,0.3225 -0.1925,0.7111 -0.2909,1.1209 -0.1421,0.5921 -0.2561,1.1396 -0.3689,1.6681 -0.2188,-0.2338 -0.4435,-0.468 -0.6486,-0.7033 -0.1333,-0.1529 -0.2642,-0.3087 -0.3948,-0.4646 1.1997,-1.9644 1.9778,-4.7628 2.5921,-7.645 0.6362,-2.9851 1.1095,-6.0204 1.6774,-8.1189 0.6018,-2.2242 0.5882,-3.401 0.3674,-4.0897 -0.1104,-0.3443 -0.2844,-0.5665 -0.4511,-0.6914 -0.1668,-0.125 -0.3633,-0.1545 -0.3633,-0.1545 h -0.041 l -0.041,0.01 c 0,0 -0.1629,0.032 -0.3705,0.1349 -0.2072,0.1029 -0.4962,0.2833 -0.8599,0.5974 -0.7272,0.622 -1.7661,1.7857 -3.0856,3.9925 -2.5196,4.2138 -2.0166,9.9401 -1.2966,13.455 -1.5762,-2.2124 -2.9467,-4.4919 -4.1485,-6.8125 0.3402,-0.3249 0.6745,-0.6718 0.9942,-1.0743 0.047,-0.059 0.089,-0.1184 0.1302,-0.1716 0.1432,-0.1859 0.2851,-0.3762 0.4258,-0.5762 0.031,-0.045 0.063,-0.089 0.092,-0.1313 0.1469,-0.2124 0.2926,-0.4301 0.4372,-0.6562 v 0 c 0.02,-0.032 0.038,-0.062 0.055,-0.088 0.1501,-0.2368 0.2985,-0.4789 0.4455,-0.7266 l 0.01,-0.01 0.022,-0.038 c 1.6575,-2.8042 3.1021,-6.1773 4.3186,-8.2088 0.9997,-1.6692 1.2583,-2.6505 1.232,-3.2892 -0.013,-0.3193 -0.1069,-0.5529 -0.2186,-0.7048 -0.1117,-0.1519 -0.2754,-0.2347 -0.2754,-0.2347 l -0.037,-0.017 -0.041,-0.01 c 0,0 -0.1521,-0.019 -0.3514,0.01 -0.1994,0.029 -0.4812,0.1 -0.8558,0.2615 -0.7493,0.3235 -1.8679,1.0075 -3.4411,2.4551 -3.1658,2.9129 -3.9155,7.9189 -4.0727,10.9787 -1.4399,-2.922 -2.7896,-5.8523 -4.3356,-8.6233 0.079,-0.6712 0.3539,-1.6903 1.494,-2.281 0.9829,-0.5092 1.7372,-0.7273 2.2675,-0.8438 0.5623,0.5299 1.4121,0.7891 2.3301,0.6661 1.1452,-0.1547 2.1258,-0.7976 2.342,-1.7229 0,-0.01 0,-0.01 0,-0.014 v 0 0 c 0.01,-0.039 0.015,-0.076 0.021,-0.1153 0.023,-0.1388 0.028,-0.2814 0.01,-0.4201 v 0 c -0.076,-0.5644 -0.4791,-1.0079 -1.0041,-1.2697 -0.5249,-0.2619 -1.1858,-0.3646 -1.881,-0.2713 -0.6298,0.085 -1.193,0.3192 -1.6211,0.6578 -0.3386,0.2678 -0.4932,0.6504 -0.603,1.0372 -0.7278,0.2423 -1.6117,0.55 -2.1916,0.8474 -0.3824,0.1963 -0.3134,0.1703 -0.5018,0.2739 0.039,-0.1311 0.038,-0.1502 0.086,-0.2971 0.1731,-0.5274 0.4249,-1.1203 0.5995,-1.3358 0.3182,-0.393 0.6575,-0.7752 0.9162,-1.0682 0.7521,0.3393 1.7133,0.242 2.5621,-0.3168 0.8636,-0.57 1.438,-1.4342 1.3968,-2.2965 -0.01,-0.288 -0.083,-0.5665 -0.2362,-0.801 -0.3133,-0.4757 -0.8706,-0.7011 -1.4573,-0.709 -0.5866,-0.01 -1.2265,0.188 -1.8122,0.5742 -0.8435,0.5563 -1.339,1.3952 -1.3322,2.2247 -0.1109,0.128 -0.4537,0.5268 -0.8321,0.9921 -0.3896,0.4793 -0.792,0.9894 -0.99,1.3498 -0.093,0.1697 -0.1625,0.3842 -0.2466,0.6677 -0.084,0.2835 -0.172,0.6246 -0.2614,0.9901 -0.1145,0.4675 -0.2123,0.9285 -0.3147,1.3968 -0.5196,-0.8342 -1.0411,-1.6666 -1.6247,-2.4608 l -0.01,-0.01 -0.01,-0.016 -0.01,-0.01 c -0.231,-0.3138 -0.4661,-0.6267 -0.7111,-0.9353 v -0.01 l -0.01,-0.01 c 0,0 0,-0.01 0,-0.01 v 0 c 0,0.01 -0.012,-0.014 -0.014,-0.017 -0.1532,-0.1929 -0.3123,-0.3797 -0.4708,-0.5643 v 0 c -0.036,-0.042 -0.071,-0.082 -0.107,-0.123 1.4464,-1.243 2.7913,-3.1649 4.0313,-5.2012 1.3127,-2.1555 2.5113,-4.3853 3.5269,-5.8534 0.8492,-1.2276 1.1154,-1.9349 1.0315,-2.4924 -0.018,-0.2329 -0.1051,-0.443 -0.246,-0.5798 -0.1461,-0.1419 -0.3202,-0.2077 -0.4707,-0.2382 -0.16,-0.033 -0.1943,-0.01 -0.2987,0 -0.017,-0.024 -0.01,-0.029 -0.027,-0.053 -0.1354,-0.1474 -0.3839,-0.2657 -0.6935,-0.2558 -0.6192,0.02 -1.5167,0.4184 -3.1838,1.7616 -1.9626,1.5813 -3.1832,4.0234 -3.9393,6.3748 -0.6679,2.0772 -0.8709,3.8848 -0.9705,5.207 -0.01,-0.01 -0.013,-0.011 -0.02,-0.017 -0.6383,-0.6366 -1.3147,-1.2354 -2.0076,-1.8102 0.7086,-1.483 1.0581,-3.5923 1.2867,-5.7935 0.2405,-2.3151 0.362,-4.6823 0.6155,-6.289 0.2833,-1.7958 0.1645,-2.7436 -0.061,-3.2949 -0.102,-0.289 -0.2347,-0.4829 -0.3633,-0.6015 -0.065,-0.06 -0.1291,-0.1016 -0.1819,-0.1287 -0.053,-0.027 -0.1189,-0.045 -0.1189,-0.045 l -0.045,-0.012 h -0.047 c 0,0 -0.1539,0.015 -0.3126,0.086 -0.1586,0.071 -0.3649,0.1984 -0.6134,0.4258 -0.4969,0.4547 -1.1614,1.3077 -1.9451,2.9435 -0.956,1.9952 -0.9896,4.581 -0.711,6.9412 0.2357,1.9974 0.7021,3.5458 1.08,4.7211 -1.7616,-1.3121 -3.5801,-2.4995 -5.2793,-3.4277 -0.2979,-0.3585 -0.9448,-1.2936 -0.4625,-2.4923 0.347,-0.8625 0.7061,-1.409 0.9803,-1.7756 0.6653,0.016 1.3529,-0.2885 1.8749,-0.8749 0.7096,-0.7989 0.9834,-1.8631 0.4785,-2.5999 -0.067,-0.1177 -0.1479,-0.2259 -0.2481,-0.3162 v 0 c -0.3769,-0.3358 -0.9049,-0.3984 -1.4004,-0.2734 -0.4956,0.1251 -0.9856,0.4319 -1.3886,0.8847 -0.3648,0.4108 -0.6033,0.8814 -0.6935,1.3477 -0.069,0.3564 0.052,0.6856 0.1876,1 -0.3337,0.5583 -0.7293,1.2396 -0.9395,1.7559 -0.096,0.2372 -0.065,0.1734 -0.1229,0.3241 -0.029,-0.068 -0.044,-0.089 -0.072,-0.1602 -0.1616,-0.4018 -0.2983,-0.8593 -0.3044,-1.0646 -0.012,-0.4182 -0.01,-0.8365 0,-1.1678 0.6773,-0.2184 1.2399,-0.8105 1.4764,-1.6387 0.2207,-0.7762 0.1507,-1.578 -0.2558,-2.1425 -0.1868,-0.2993 -0.4574,-0.5277 -0.7829,-0.6212 -0.4853,-0.1382 -0.9874,0.033 -1.3792,0.3612 -0.3918,0.3281 -0.699,0.8162 -0.8651,1.3989 v 0 c -0.2378,0.8376 -0.1433,1.7079 0.3457,2.2676 0,0 0,0 0,0 0.01,0.011 0.02,0.02 0.03,0.031 -2e-4,0.1528 0,0.5014 0.01,0.9689 0.014,0.5287 0.034,1.0902 0.1112,1.4511 0.036,0.1677 0.1099,0.3409 0.2108,0.5663 0.1012,0.2261 0.2308,0.4889 0.3731,0.7695 0.1301,0.2566 0.2646,0.4987 0.4046,0.7617 -0.777,-0.374 -1.5627,-0.7544 -2.1874,-1.0232 -0.2345,-1.1421 -1.1012,-3.5467 -3.2758,-6.4492 -0.4363,-0.5824 -0.8601,-1.0855 -1.2733,-1.5198 -1.7153,-1.8353 -3.2531,-2.4889 -4.5233,-2.5255 z m 22.578,37.6891 c 0.015,0 0.03,-0.01 0.045,-0.011 h -0.01 z m 74.9096,-32.7716 h 18.789 l -1.4975,3.0448 h -15.7919 z m -23.5469,1.0702 h 2.2392 v 3.2344 h 3.4023 v -3.2344 h 2.2464 v 3.2344 h 3.3528 v -3.2344 h 2.2464 v 3.2344 h 3.4044 v -3.2344 h 2.2391 v 5.1408 h -19.1306 z m 46.7558,0 h 2.2392 v 3.2344 h 3.4023 v -3.2344 h 2.2469 v 3.2344 h 3.3523 v -3.2344 h 2.2469 v 3.2344 h 3.4044 v -3.2344 h 2.2392 v 5.1408 h -19.1312 z m -21.6855,2.6283 h 15.7438 v 2.8603 h -15.7438 z m -24.8997,3.1662 h 18.789 l -1.4991,3.0443 h -15.7924 z m 46.7563,0 h 18.7885 l -1.4991,3.0443 h -15.7918 z m -21.8566,0.3478 h 7.6125 v 0.1064 c -0.6974,0.091 -1.18,0.5129 -1.4893,0.9328 -0.1499,0.2033 -0.2313,0.389 -0.2765,0.494 l -0.035,0.079 v 5.1304 h -5.8115 z m 8.1654,0 h 7.5784 v 6.7427 h -5.8126 v -5.1082 l -0.041,-0.085 c -0.073,-0.153 -0.2042,-0.3757 -0.3989,-0.6026 -0.3416,-0.3979 -0.8012,-0.7385 -1.3261,-0.8325 z m -31.5433,3.3502 h 15.7438 v 2.8608 h -15.7438 z m 46.7564,0 h 15.7437 v 2.8608 h -15.7437 z m -46.7564,3.5145 h 7.613 v 0.1075 c -0.6974,0.091 -1.18,0.5118 -1.4893,0.9317 -0.1498,0.2033 -0.2313,0.3895 -0.2765,0.4945 l -0.035,0.079 v 5.1299 h -5.812 z m 8.1665,0 h 7.5773 v 6.7427 h -5.8121 v -5.1077 l -0.041,-0.085 c -0.073,-0.153 -0.2037,-0.3757 -0.3984,-0.6026 -0.3416,-0.3978 -0.8009,-0.7383 -1.3255,-0.8325 z m 38.5899,0 h 7.6124 v 0.1075 c -0.6974,0.091 -1.1795,0.5118 -1.4888,0.9317 -0.1498,0.2033 -0.2317,0.3895 -0.277,0.4945 l -0.035,0.079 v 5.1299 h -5.812 z m 8.1658,0 h 7.5779 v 6.7427 h -5.8126 v -5.1077 l -0.041,-0.085 c -0.073,-0.153 -0.2042,-0.3757 -0.3989,-0.6026 -0.3415,-0.3978 -0.8009,-0.7383 -1.3255,-0.8325 z m -31.5443,0.5323 h 3.3745 v 5.4503 h -3.3745 z m 3.928,0 h 1.8841 v 3.3155 h 4.1191 v -3.3155 h 1.9017 v 6.7835 h -1.293 v -1.3332 h -4.4131 v 1.3332 h -2.1994 z m 8.4583,0 h 3.3575 v 5.4503 h -2.4898 v 1.3332 h -0.8677 z m -92.214,0.098 c 0.2586,0 0.4965,0.05 0.7096,0.1049 0.2204,0.2099 0.4378,0.4201 0.6521,0.6331 0.031,0.031 0.065,0.067 0.1039,0.1054 0.2324,0.2326 0.4613,0.4655 0.6852,0.7013 v 0 0 c 0.012,0.013 0.023,0.024 0.035,0.037 v 0 c 0.5012,0.5291 0.9825,1.0672 1.4335,1.6118 0.015,0.018 0.032,0.044 0.047,0.062 -1.2093,0.012 -3.0589,0.1194 -5.2891,0.7147 -0.9263,0.2473 -1.8555,0.6502 -2.7735,1.0526 0.346,-0.2219 0.6952,-0.4571 0.9514,-0.8438 0.4642,-0.7016 0.5888,-1.4973 0.385,-2.1756 0.3048,-0.3859 0.7781,-0.9112 1.5798,-1.51 0.4123,-0.308 0.8281,-0.4448 1.2149,-0.4842 0.091,-0.01 0.1789,-0.013 0.2651,-0.011 z m 72.8773,6.0338 h 2.4804 v 3.1605 h 4.1465 v -3.1605 h 3.0479 v 3.1605 h 4.0861 v -3.1605 h 3.0484 v 3.1605 h 4.0819 v -3.1605 h 3.0484 v 3.1605 h 4.1465 v -3.1605 h 1.5627 v 7.1417 h -29.6452 z m -16.4275,0.7327 h 3.3745 v 6.7831 h -3.3745 z m 3.9285,0 h 1.8841 v 3.3161 h 4.1191 v -3.3161 h 1.9017 v 6.7831 h -7.9049 z m 8.4584,0 h 3.3569 v 6.7831 h -3.3569 z m 34.3695,0 h 3.3744 v 6.7831 h -3.3744 z m 3.9279,0 h 1.8841 v 3.3161 h 4.1191 v -3.3161 h 1.9017 v 6.7831 h -7.9049 z m 8.4584,0 h 3.3574 v 6.7831 h -3.3574 z m -32.3583,0.5726 h 2.7208 v 1.1736 h -2.7208 z m 7.1329,0 h 2.7146 v 1.1736 h -2.7151 z m -17.4898,6.8172 h 29.6452 v 2.5538 h -29.6452 z m -16.4275,0.048 h 7.613 v 2.1792 c -0.6974,0.091 -1.18,0.5124 -1.4893,0.9322 -0.1498,0.2033 -0.2313,0.3896 -0.2765,0.4946 l -0.035,0.079 v 3.0783 h -5.812 z m 8.1665,0 h 7.5773 v 6.7629 h -5.8121 v -3.0561 l -0.041,-0.084 c -0.073,-0.1529 -0.2037,-0.3757 -0.3984,-0.6025 -0.3416,-0.3978 -0.8009,-0.7384 -1.3255,-0.8325 z m 38.5899,0 h 7.6124 v 2.1792 c -0.6975,0.091 -1.1795,0.5124 -1.4888,0.9322 -0.1498,0.2033 -0.2317,0.3896 -0.277,0.4946 l -0.035,0.079 v 3.0783 h -5.812 z m 8.1658,0 h 7.5779 v 2.172 c -0.7819,1.5737 -1.6007,3.1043 -2.4552,4.5909 h -3.3574 v -3.0561 l -0.041,-0.084 c -0.073,-0.1529 -0.2042,-0.3757 -0.3989,-0.6025 -0.3415,-0.3978 -0.8009,-0.7384 -1.3255,-0.8325 z m 7.92,1.479 v 0.01 c -0.043,0.089 -0.089,0.1757 -0.1323,0.2646 0.044,-0.091 0.088,-0.1816 0.1323,-0.2724 z m -46.4147,2.0082 h 5.1872 v 6.2352 c -0.3644,0.01 -0.7269,0.069 -1.0965,0.1809 h -4.0907 z m 6.0177,0 h 8.3896 v 6.4161 h -7.7266 c -0.1374,-0.038 -0.2749,-0.073 -0.4046,-0.1034 -0.091,-0.011 -0.1736,-0.022 -0.2584,-0.032 z m 9.2196,0 h 8.3896 v 6.2554 c -0.1563,0.015 -0.3168,0.035 -0.493,0.057 -0.1297,0.03 -0.2672,0.065 -0.4046,0.1034 h -7.492 z m 9.2196,0 h 5.1883 v 6.4161 h -4.3259 c -0.2905,-0.088 -0.5765,-0.1428 -0.8624,-0.1669 z m -40.8844,3.9294 h 3.3745 v 6.6611 h -3.3745 z m 3.9285,0 h 1.8841 v 5.3687 h 4.1191 v -5.3687 h 1.9017 v 6.6611 h -7.9049 z m 8.4584,0 h 3.3569 v 6.0079 c -0.2118,0.2092 -0.4222,0.4218 -0.6517,0.6532 h -2.7052 z m 34.3695,0 h 3.3744 v 6.6611 h -2.9579 c -0.1407,-0.1419 -0.2802,-0.2844 -0.4165,-0.4201 z m 3.9279,0 h 1.8841 v 5.3687 h 3.6763 c -0.3,0.4348 -0.6022,0.8659 -0.908,1.2924 h -4.6524 z m 6.0032,0 h 1.9017 v 1.7875 c -0.6186,0.9986 -1.2532,1.9765 -1.9017,2.9347 z m 2.4552,0 h 0.5219 c -0.1728,0.2946 -0.3465,0.5879 -0.5219,0.879 z m -42.7152,3.4675 h 2.1936 c -0.6583,0.4654 -1.3736,1.0801 -2.1833,1.8619 l -0.01,0.01 z m 8.5679,0 h 1.2382 v 0.5659 c -0.2466,-0.052 -0.463,-0.087 -0.6145,-0.087 h -0.2258 c -0.043,-0.1427 -0.2009,-0.3125 -0.3979,-0.4785 z m 2.0681,0 h 8.3721 v 0.7142 c -0.3948,0.1102 -0.8493,0.2515 -1.4015,0.4408 -1.6423,0.5225 -1.9764,0.7087 -2.0138,1.1193 -0.037,0.4106 -0.041,0.4122 0.8552,0.039 0.4899,-0.2144 1.5093,-0.1281 2.5601,0.095 v 0.1623 h -0.2047 -0.4506 c -0.3359,0 -0.3731,0.076 -0.3731,0.2253 0,0.204 0.1602,0.2576 1.0284,0.3777 v 3.2836 h -8.3721 v -3.3172 c 0.6608,-0.098 0.7943,-0.1597 0.7943,-0.3441 0,-0.1492 -0.037,-0.2253 -0.3731,-0.2253 h -0.4212 v -0.2114 c 0.9657,-0.1861 1.8725,-0.2438 2.326,-0.045 0.8958,0.3731 0.8925,0.3717 0.8552,-0.039 -0.037,-0.4106 -0.3715,-0.5973 -2.0138,-1.1198 -0.4477,-0.1535 -0.8236,-0.2716 -1.1674,-0.3731 z m 9.2025,0 h 1.0036 c -0.197,0.1659 -0.3551,0.3358 -0.3979,0.4785 h -0.2258 c -0.1037,0 -0.2318,0.014 -0.3799,0.038 z m 7.3779,0 h 2.4288 v 2.1017 c -0.076,-0.074 -0.1821,-0.1792 -0.2455,-0.2398 -0.8097,-0.7818 -1.525,-1.3965 -2.1833,-1.8619 z m -17.4103,2.5466 v 0.023 h -0.094 c 0.031,-0.01 0.062,-0.015 0.094,-0.023 z m 0,0.6997 v 3.2102 h -3.235 c -0.3828,-0.32 -0.802,-0.5996 -1.2588,-0.8237 0.5972,-0.5226 1.3013,-1.3807 1.9358,-2.2392 0.1866,0.075 0.8594,0.076 1.158,0.039 0.2463,-0.062 0.828,-0.1242 1.4,-0.1861 z m 10.0324,0.026 c 0.4879,0.053 0.9535,0.1067 1.1653,0.1597 0.2986,0.037 0.9715,0.036 1.1581,-0.039 0.6345,0.8585 1.3386,1.7166 1.9358,2.2392 -0.4568,0.2241 -0.876,0.5038 -1.2588,0.8237 h -3.0004 z m -36.266,0.5746 h 14.4519 c -0.5769,0.5982 -1.0653,1.1287 -1.1163,1.2645 -1.2227,0.3361 -2.3049,0.9077 -3.2613,1.6372 h -11.5367 l 1.4624,-2.8283 z m 47.8131,0 h 7.0492 c -0.7229,0.9893 -1.4601,1.957 -2.2117,2.9017 h -0.4718 c -0.954,-0.7275 -2.0298,-1.3019 -3.2494,-1.6372 -0.051,-0.1358 -0.5394,-0.6663 -1.1163,-1.2645 z m -49.6135,3.5559 h 9.4134 v 1.8779 c -1.0801,1.4453 -1.9096,3.0752 -2.5363,4.64 h -6.9598 v -6.3577 z m 9.9669,0 h 1.1337 c -0.4026,0.3691 -0.7801,0.7659 -1.1337,1.1844 z m 15.7923,0.034 h 6.876 v 3.1104 c -2.2367,0.088 -4.4053,1.2268 -5.5805,3.3052 h -0.3922 c 0.015,-0.026 0.036,-0.055 0.05,-0.081 0.5226,-1.0078 0.7463,-2.2078 0.5596,-3.1409 -0.2492,-1.1421 -0.7643,-2.2597 -1.5125,-3.1941 z m 7.706,0 h 6.6414 c -0.7482,0.9344 -1.2634,2.052 -1.5125,3.1941 -0.1867,0.9331 0.037,2.1331 0.5596,3.1409 0.014,0.026 0.035,0.054 0.05,0.081 h -0.2527 c -1.314,-2.0451 -3.3906,-3.1265 -5.4854,-3.2881 z m -33.5479,7.1375 h 5.2576 v 5.8173 c 0,0.015 -0.01,0.045 -0.01,0.058 -0.4133,0.2449 -0.8433,0.5183 -1.2754,0.8056 h -3.977 z m 5.8116,0 h 0.8966 c -0.3854,1.0404 -0.6756,2.0219 -0.8966,2.8898 z m 41.7302,0 v 0 c -0.1594,0.1595 -0.3199,0.316 -0.48,0.4739 0.1596,-0.1576 0.3194,-0.3148 0.4785,-0.4739 z m -21.5056,0.259 h 0.6496 c -0.02,0.054 -0.043,0.1048 -0.062,0.1596 l -0.022,0.069 v 0.074 5.9081 h -6.4084 v -3.4706 c 1.9177,-0.1988 2.5215,-0.3263 3.5377,-0.817 0.6939,-0.3084 1.6131,-1.1122 2.3048,-1.9238 z m 13.5299,0 h 0.4289 c 0.6918,0.8116 1.6109,1.6155 2.3048,1.9238 0.756,0.365 1.2678,0.5274 2.2639,0.6688 -1.3698,1.259 -2.758,2.465 -4.1584,3.6194 h -0.741 v -6.0017 l -0.038,-0.086 c -0.019,-0.043 -0.041,-0.082 -0.06,-0.124 z m -20.0541,2.8153 v 3.607 h -4.3661 c 0.8425,-0.3684 1.8313,-1.0218 2.576,-1.7389 1.2318,-0.9705 1.5317,-1.27 1.5317,-1.5312 0,-0.112 -0.041,-0.2253 -0.078,-0.2253 -0.084,-0.017 -0.1763,-0.031 -0.264,-0.047 0.2065,-0.025 0.4018,-0.044 0.6005,-0.065 z m -6.0115,3.3998 c 0.088,0.015 0.1299,0.1082 0.1855,0.2072 h -0.3762 c 0.065,-0.07 0.126,-0.1375 0.1907,-0.2072 z m -13.5005,0.8609 h 3.0267 c -1.177,0.8352 -2.2854,1.7151 -3.0267,2.3952 z m 12.7078,0 h 6.8042 v 3.5455 c -0.1488,-0.03 -0.3227,-0.057 -0.5229,-0.077 -0.1867,-0.037 -0.3324,-0.077 -0.4817,-0.077 -0.4105,0 -0.6377,0.1167 -0.6377,0.3033 0,0.075 0.1506,0.1072 0.4119,0.07 0.224,0 0.7074,0 1.0806,0.078 0.051,0.011 0.1,0.018 0.1498,0.026 v 0.7023 c -0.4678,0.064 -0.6694,0.013 -1.1524,-0.168 -0.3732,-0.1493 -0.5659,-0.1865 -0.7152,-0.1865 -0.1119,0 -0.1478,0.1084 -0.1478,0.295 0,0.224 0.7445,0.5645 1.4537,0.6765 0.1305,0 0.3369,-0.011 0.5617,-0.036 v 1.5302 h -9.4624 v -3.5316 c 0.3176,-0.3811 0.6364,-0.7833 0.9554,-1.2123 0.3508,-0.4587 1.0082,-1.1838 1.7028,-1.9379 z m 7.4858,0.1168 h 3.3042 v 6.565 h -3.3042 v -1.6516 c 0.5914,-0.1471 0.8533,-0.1409 1.2992,-0.03 0.5971,0.1493 0.7443,0.075 0.5204,-0.1865 -0.2653,-0.2985 -1.0039,-0.4224 -1.8196,-0.3421 z m 4.1347,0 h 2.2732 v 6.565 h -2.2732 z m -9.1793,0.1416 c -0.3359,0 -0.2256,0.4817 0.3343,1.6014 0.3359,0.6719 0.7448,1.5723 0.894,1.9828 0.2987,0.7838 0.4105,0.9653 0.5597,0.816 0.1495,-0.1866 0.036,-0.6668 -0.4124,-1.7492 -0.7092,-1.6423 -1.2263,-2.651 -1.3756,-2.651 z m -12.408,0.8552 c -0.7048,0.5682 -1.3401,1.2707 -1.9276,2.2082 -0.5225,0.7465 -0.3703,1.9026 -0.109,2.4251 0.037,0.037 0.031,0.033 0.031,0.07 0.1823,0.3755 0.4692,0.6566 0.8227,0.8646 h -1.5581 v -3.6985 c 0.644,-0.4895 1.7402,-1.2382 2.741,-1.8697 z m 6.7551,2.6779 v 2.8903 h -3.4701 c 1.0679,-0.5461 2.252,-1.531 3.4701,-2.8903 z m 6.5081,0.9839 c -0.075,0 -0.185,0 -0.3343,0.039 -1.3063,0.2239 -2.1694,0.6312 -2.1694,1.0418 0,0.2985 0.037,0.2957 0.7467,-0.078 0.3359,-0.1493 0.7491,-0.2956 1.0103,-0.2956 0.5226,0 0.894,-0.1835 0.894,-0.4821 0,-0.1493 -0.035,-0.2253 -0.1473,-0.2253 z"
           id="path7390-41-4-8-5" />
        <path
           inkscape:connector-curvature="0"
           id="path18550-1-3"
           transform="matrix(0.26458333,0,0,0.26458333,112.39715,-590.23959)"
           d="m -6114.8418,-11664.984 c -24.6619,0 -44.5284,7.765 -59.5996,23.293 -15.0713,15.528 -22.6074,35.165 -22.6074,58.914 0,23.748 7.3837,43.462 22.1504,59.142 14.7668,15.68 34.0249,23.522 57.7734,23.522 13.7013,0 25.4995,-2.664 35.3945,-7.992 5.4806,-2.893 10.8085,-7.233 15.9844,-13.018 1.218,-1.218 1.8262,-2.358 1.8262,-3.424 0,-1.065 -0.5319,-2.132 -1.5977,-3.197 -1.0656,-1.218 -2.9688,-0.989 -5.709,0.685 -0.3046,0.153 -1.8282,1.142 -4.5683,2.969 -2.7402,1.827 -5.0229,3.196 -6.8496,4.11 -1.6746,0.761 -5.0232,2.13 -10.0469,4.109 -4.8716,1.827 -12.2551,2.74 -22.1504,2.74 -17.2026,0 -31.5886,-7.687 -43.1582,-23.062 -11.4177,-15.376 -17.127,-32.883 -17.127,-52.522 0,-19.638 5.4042,-35.775 16.2129,-48.41 10.9609,-12.635 25.6519,-18.953 44.0723,-18.953 10.1997,0 19.0288,2.893 26.4883,8.678 7.4595,5.784 12.5587,13.776 15.2988,23.976 0.7612,3.045 2.4374,4.567 5.0254,4.567 1.0658,0 1.903,-0.456 2.5117,-1.37 0.7612,-1.065 1.1406,-2.131 1.1406,-3.197 v -26.031 c 0,-3.349 -5.2517,-6.776 -15.7558,-10.277 -10.3521,-3.502 -21.9213,-5.252 -34.709,-5.252 z m 152.4043,0 c -2.8923,0 -4.6429,0.913 -5.252,2.74 l -58.6875,144.547 c -2.2835,5.48 -6.6982,8.602 -13.2441,9.363 l -4.3379,0.457 c -1.6746,0 -2.5117,1.064 -2.5117,3.195 0,1.98 1.0659,2.969 3.1973,2.969 l 20.7793,-0.912 19.8671,0.912 c 2.2836,0 3.4258,-1.064 3.4258,-3.195 0,-1.675 -0.9895,-2.665 -2.9687,-2.969 l -5.0254,-0.457 c -2.1312,-0.152 -3.8054,-0.913 -5.0235,-2.283 -1.2177,-1.522 -1.8261,-2.817 -1.8261,-3.883 0,-1.218 0.1526,-2.284 0.457,-3.197 l 13.4727,-34.938 c 0.609,-1.522 1.8275,-2.283 3.6543,-2.283 h 59.1425 c 1.979,0 3.1975,0.761 3.6543,2.283 l 13.4727,34.938 c 0.4566,0.913 0.6836,1.979 0.6836,3.197 0,1.218 -0.6847,2.513 -2.0547,3.883 -1.218,1.371 -2.816,2.132 -4.7949,2.283 l -5.252,0.457 c -1.827,0.152 -2.7402,1.293 -2.7402,3.424 0,1.827 1.0659,2.74 3.1973,2.74 l 23.5195,-0.912 26.2598,0.912 c 2.1311,0 3.1972,-1.14 3.1972,-3.424 0,-0.609 -0.227,-1.219 -0.6836,-1.828 -0.4568,-0.609 -0.9906,-0.912 -1.5996,-0.912 l -4.7949,-0.457 c -6.6983,-0.609 -11.0367,-3.731 -13.0156,-9.363 l -58.459,-144.547 c -0.7612,-1.827 -2.6642,-2.74 -5.709,-2.74 z m 518.2676,0 c -23.901,0 -43.2354,7.841 -58.002,23.521 -14.7668,15.528 -22.1504,35.242 -22.1504,59.143 0,23.748 7.3836,43.386 22.1504,58.914 14.7666,15.528 33.9486,23.293 57.5449,23.293 23.7488,0 43.0069,-7.765 57.7735,-23.293 14.919,-15.68 22.3769,-35.547 22.3769,-59.6 0,-24.053 -7.3055,-43.69 -21.9199,-58.914 -14.4625,-15.376 -33.7205,-23.064 -57.7734,-23.064 z m -994.0508,1.599 c -2.1314,0 -3.1973,1.064 -3.1973,3.196 0,1.674 0.8372,2.664 2.5118,2.968 l 6.623,0.686 c 7.0027,0.609 10.5039,3.654 10.5039,9.135 v 129.703 c 0,5.785 -3.1215,8.906 -9.3633,9.363 l -6.6211,0.457 c -1.8267,0.152 -2.7402,1.293 -2.7402,3.424 0.3044,1.827 1.4466,2.74 3.4258,2.74 l 25.3457,-0.912 28.5449,0.912 c 2.1311,0 3.1973,-0.989 3.1973,-2.969 0,-2.131 -0.8372,-3.195 -2.5118,-3.195 l -9.5918,-0.457 c -2.8925,-0.152 -5.3276,-1.066 -7.3066,-2.74 -1.9792,-1.675 -2.9687,-3.883 -2.9687,-6.623 v -58 c 0,-1.827 1.1422,-2.742 3.4257,-2.742 h 16.4414 0.2266 c 3.6538,0 7.0023,2.36 10.0469,7.08 l 38.5918,64.166 c 1.9789,3.044 4.7191,4.568 8.2207,4.568 3.6535,0 12.7879,0.303 27.4023,0.912 2.2836,0 3.4258,-1.064 3.4258,-3.195 0,-1.675 -0.9898,-2.665 -2.9687,-2.969 l -4.1114,-0.457 c -6.8507,-0.913 -11.8736,-4.035 -15.0703,-9.363 l -34.4824,-54.805 c -1.8268,-2.892 -4.3382,-4.872 -7.5352,-5.937 l 0.2266,-0.456 c 11.2655,-0.304 21.4655,-4.415 30.5996,-12.332 9.2863,-8.068 13.9297,-18.192 13.9297,-30.371 0,-12.331 -4.7195,-22.226 -14.1582,-29.685 -9.2863,-7.459 -21.2371,-11.19 -35.8516,-11.19 h -42.6972 z m 159.3711,0 c -2.1314,0 -3.1973,1.064 -3.1973,3.196 0,1.674 0.8372,2.664 2.5117,2.968 l 6.6231,0.686 c 7.0027,0.609 10.5039,3.654 10.5039,9.135 v 129.703 c 0,5.48 -3.1218,8.602 -9.3633,9.363 l -3.8828,0.457 c -1.6746,0.304 -2.5117,1.445 -2.5117,3.424 0,1.827 1.0658,2.74 3.1972,2.74 l 22.6075,-0.912 25.8047,0.912 c 0.7609,0 1.4456,-0.303 2.0546,-0.912 0.7612,-0.609 1.1407,-1.37 1.1407,-2.283 0,-1.979 -0.9135,-2.969 -2.7403,-2.969 l -6.6211,-0.457 c -2.8926,-0.304 -5.3296,-1.218 -7.3085,-2.74 -1.9793,-1.675 -2.9688,-3.883 -2.9688,-6.623 v -129.703 c 0,-5.024 3.0452,-8.069 9.1348,-9.135 l 3.8828,-0.686 c 1.9789,-0.152 2.9687,-1.292 2.9687,-3.424 0,-1.826 -1.1422,-2.74 -3.4258,-2.74 l -22.6074,0.912 z m 416.5664,0 c -2.1312,0 -3.1953,1.064 -3.1953,3.196 0,1.674 0.8371,2.664 2.5117,2.968 l 6.6211,0.686 c 7.0027,0.609 10.5039,3.654 10.5039,9.135 v 129.703 c 0,5.785 -3.1198,8.906 -9.3613,9.363 l -6.6231,0.457 c -1.8267,0.152 -2.7402,1.293 -2.7402,3.424 0.3046,1.827 1.4468,2.74 3.4258,2.74 l 25.3476,-0.912 28.543,0.912 c 2.1311,0 3.1973,-0.989 3.1973,-2.969 0,-2.131 -0.8372,-3.195 -2.5118,-3.195 l -9.5917,-0.457 c -2.8926,-0.152 -5.3277,-1.066 -7.3067,-2.74 -1.979,-1.675 -2.9687,-3.883 -2.9687,-6.623 v -58 c 0,-1.827 1.1424,-2.742 3.4257,-2.742 h 16.4414 0.2305 c 3.6536,0 7.0021,2.36 10.0469,7.08 l 38.5918,64.166 c 1.9792,3.044 4.7193,4.568 8.2207,4.568 3.6535,0 12.7877,0.303 27.4023,0.912 2.2834,0 3.4258,-1.064 3.4258,-3.195 0,-1.675 -0.9898,-2.665 -2.9687,-2.969 l -4.1114,-0.457 c -6.8505,-0.913 -11.8733,-4.035 -15.0703,-9.363 l -34.4824,-54.805 c -1.8268,-2.892 -4.3382,-4.872 -7.5352,-5.937 l 0.2305,-0.456 c 11.2653,-0.304 21.4655,-4.415 30.5996,-12.332 9.2863,-8.068 13.9297,-18.192 13.9297,-30.371 0,-12.331 -4.7197,-22.226 -14.1582,-29.685 -9.2863,-7.459 -21.2369,-11.19 -35.8516,-11.19 h -42.705 z m 159.377,0 c -2.1315,0 -3.1973,1.064 -3.1973,3.196 0,1.674 0.8391,2.664 2.5137,2.968 l 6.621,0.686 c 7.0028,0.609 10.504,3.654 10.504,9.135 v 129.931 c 0,2.74 -0.9898,4.949 -2.9688,6.623 -1.9792,1.523 -4.4906,2.436 -7.5352,2.741 l -6.621,0.457 c -1.6746,0 -2.5137,1.064 -2.5137,3.195 0,1.979 1.0658,2.969 3.1973,2.969 l 28.5449,-1.141 h 39.2773 c 23.292,0 42.3974,-7.918 57.3164,-23.75 15.0713,-15.985 22.6055,-35.622 22.6055,-58.914 0,-23.292 -7.2309,-41.942 -21.6934,-55.947 -14.4622,-14.158 -33.8709,-21.237 -58.2285,-21.237 h -39.2773 z m 258.2792,8.905 c 10.3522,0 19.41,2.284 27.1739,6.851 7.7639,4.567 13.8526,10.732 18.2676,18.496 8.8294,15.071 13.2441,32.655 13.2441,52.75 0,20.095 -5.0991,36.079 -15.2988,47.953 -10.0475,11.875 -24.1301,17.813 -42.2461,17.813 -10.1997,0 -19.2578,-2.361 -27.1739,-7.08 -7.9163,-4.872 -14.0813,-11.266 -18.496,-19.182 -9.1342,-15.985 -13.7012,-34.1 -13.7012,-54.348 0,-19.486 5.0247,-34.861 15.0722,-46.127 10.1997,-11.417 24.5856,-17.126 43.1582,-17.126 z m -948.6113,2.285 h 21.4649 c 10.6562,0 19.4853,2.891 26.4882,8.675 7.0028,5.633 10.5059,13.245 10.5059,22.836 0,9.591 -3.5775,17.354 -10.7324,23.291 -7.003,5.785 -15.7577,8.678 -26.2617,8.678 h -28.0879 c -1.6746,0 -2.5117,-0.99 -2.5117,-2.969 v -51.378 c 0,-6.09 3.0451,-9.133 9.1347,-9.133 z m 575.9453,0 h 21.4649 c 10.6565,0 19.4855,2.891 26.4883,8.675 7.0027,5.633 10.5039,13.245 10.5039,22.836 0,9.591 -3.5776,17.354 -10.7325,23.291 -7.0027,5.785 -15.7554,8.678 -26.2597,8.678 h -28.0879 c -1.6746,0 -2.5117,-0.99 -2.5117,-2.969 v -51.378 c 0,-6.09 3.0454,-9.133 9.1347,-9.133 z m 161.4278,0.226 h 20.5527 c 10.0475,0 18.9529,2.132 26.7168,6.395 7.7639,4.262 13.9289,10.048 18.4961,17.355 9.1341,14.31 13.7012,31.055 13.7012,50.237 0,19.181 -5.2516,34.786 -15.7559,46.812 -10.5041,12.027 -24.5106,18.039 -42.0176,18.039 h -21.6933 c -3.3492,0 -6.0896,-0.913 -8.2207,-2.74 -1.979,-1.979 -2.9688,-4.567 -2.9688,-7.764 v -117.601 c 0,-3.502 0.9898,-6.166 2.9688,-7.993 2.1311,-1.826 4.8715,-2.74 8.2207,-2.74 z m -311.1387,13.93 27.1738,69.877 c 0.609,1.827 0.075,2.74 -1.5996,2.74 h -50.9219 c -1.6745,0 -2.283,-0.761 -1.8261,-2.283 z m -390.6113,191.131 c -24.8144,0 -44.9859,7.841 -60.5137,23.521 -15.5281,15.528 -23.291,35.166 -23.291,58.914 0,23.597 7.3835,43.236 22.1504,58.916 14.7666,15.681 34.0227,23.52 57.7715,23.52 14.0054,0 26.1849,-2.817 36.5371,-8.449 3.3491,-1.827 5.6318,-2.741 6.8496,-2.741 5.6327,0 9.6677,2.741 12.1035,8.221 1.0656,1.979 2.4348,2.969 4.1094,2.969 2.5879,0 3.7301,-1.369 3.4257,-4.109 l -1.3691,-12.79 v -44.072 c 0,-5.024 3.0435,-8.067 9.1328,-9.133 l 3.8828,-0.685 c 1.8268,-0.152 2.7403,-1.295 2.7403,-3.426 0,-1.827 -1.0662,-2.74 -3.1973,-2.74 l -22.6074,0.914 -31.0547,-0.914 c -1.979,0 -2.9688,1.066 -2.9688,3.197 0,1.979 0.8372,2.969 2.5118,2.969 l 12.33,0.685 c 6.8508,0.305 10.2774,3.348 10.2774,9.133 v 28.317 c 0,5.176 -3.9587,10.124 -11.875,14.843 -7.7639,4.567 -17.3538,6.85 -28.7715,6.85 -11.2653,0 -21.6182,-3.806 -31.0566,-11.418 -9.2863,-7.764 -16.4411,-17.583 -21.4649,-29.457 -5.0237,-11.875 -7.5351,-24.207 -7.5351,-36.994 0,-19.486 5.5568,-35.546 16.6699,-48.182 11.2652,-12.635 26.3356,-18.953 45.2129,-18.953 10.1997,0 19.0287,2.893 26.4882,8.678 7.4596,5.784 12.5607,13.776 15.3008,23.976 0.7612,3.045 2.4355,4.567 5.0235,4.567 1.0655,0 1.9027,-0.456 2.5117,-1.369 0.7612,-1.066 1.1406,-2.132 1.1406,-3.198 v -26.031 c 0,-3.349 -5.2515,-6.776 -15.7558,-10.277 -10.3519,-3.502 -21.9214,-5.252 -34.709,-5.252 z m 178.0195,0 c -23.9007,0 -43.2351,7.841 -58.002,23.521 -14.7668,15.528 -22.1503,35.242 -22.1503,59.143 0,23.749 7.3835,43.386 22.1503,58.914 14.7669,15.528 33.9486,23.293 57.545,23.293 23.7485,0 43.0065,-7.765 57.7734,-23.293 14.9191,-15.68 22.3789,-35.547 22.3789,-59.6 0,-24.053 -7.3072,-43.69 -21.9219,-58.914 -14.4622,-15.375 -33.7202,-23.064 -57.7734,-23.064 z m 762.0703,0 c -2.8926,0 -4.6432,0.913 -5.2519,2.74 l -58.6856,144.547 c -2.2836,5.48 -6.698,8.602 -13.2441,9.363 l -4.3399,0.457 c -1.6746,0 -2.5117,1.066 -2.5117,3.197 0,1.98 1.0659,2.969 3.1973,2.969 l 20.7793,-0.914 19.8672,0.914 c 2.2835,0 3.4257,-1.066 3.4257,-3.197 0,-1.675 -0.9895,-2.664 -2.9687,-2.969 l -5.0234,-0.457 c -2.1312,-0.152 -3.8055,-0.913 -5.0235,-2.283 -1.2178,-1.522 -1.8281,-2.817 -1.8281,-3.883 0,-1.218 0.1526,-2.284 0.457,-3.197 l 13.4727,-34.938 c 0.609,-1.522 1.8275,-2.283 3.6543,-2.283 h 59.1426 c 1.9789,0 3.1974,0.761 3.6542,2.283 l 13.4727,34.938 c 0.4566,0.913 0.6855,1.979 0.6855,3.197 0,1.218 -0.6864,2.513 -2.0566,3.883 -1.2178,1.371 -2.816,2.132 -4.7949,2.283 l -5.252,0.457 c -1.8267,0.152 -2.7402,1.293 -2.7402,3.424 0,1.827 1.0659,2.742 3.1973,2.742 l 23.5195,-0.914 26.2617,0.914 c 2.1314,0 3.1953,-1.142 3.1953,-3.426 0,-0.609 -0.2267,-1.219 -0.6836,-1.828 -0.4565,-0.608 -0.9906,-0.912 -1.5996,-0.912 l -4.7949,-0.457 c -6.6983,-0.609 -11.0367,-3.73 -13.0156,-9.363 l -58.459,-144.547 c -0.761,-1.827 -2.6642,-2.74 -5.709,-2.74 z m 1137.6914,0 c -13.0923,0 -24.5088,3.73 -34.2519,11.189 -9.5907,7.308 -14.3868,17.279 -14.3868,29.914 0,12.484 5.6332,22.836 16.8985,31.057 5.0237,3.653 10.5803,7.078 16.6699,10.275 6.0893,3.045 12.1783,6.014 18.2676,8.907 6.0893,2.892 11.6462,5.861 16.6699,8.906 11.2655,6.851 16.8984,15.298 16.8984,25.346 0,9.133 -3.5772,16.29 -10.7324,21.466 -7.0027,5.176 -16.2131,7.764 -27.6308,7.764 -11.4175,0 -20.3229,-2.816 -26.7168,-8.449 -6.2415,-5.785 -11.3426,-14.54 -15.3008,-26.262 -0.7612,-2.892 -2.1304,-4.338 -4.1094,-4.338 -2.4358,0 -3.6543,1.598 -3.6543,4.795 v 26.717 c 0,4.415 4.8724,8.45 14.6152,12.103 9.8954,3.654 22.4543,5.481 37.6778,5.481 15.3759,0 28.3926,-3.73 39.0488,-11.19 10.8087,-7.459 16.2129,-18.344 16.2129,-32.654 0,-8.83 -2.9691,-16.669 -8.9063,-23.519 -5.9371,-6.851 -13.1682,-12.408 -21.6933,-16.67 -8.3729,-4.415 -16.8226,-8.603 -25.3477,-12.561 -8.3729,-4.11 -15.5277,-8.754 -21.4648,-13.93 -5.9371,-5.328 -8.9063,-11.569 -8.9063,-18.724 0,-7.307 2.9692,-13.396 8.9063,-18.268 5.9371,-4.871 14.0054,-7.306 24.2051,-7.306 10.3518,0 18.1167,2.359 23.2929,7.078 5.176,4.719 9.3617,11.95 12.5586,21.693 1.0656,3.045 2.6638,4.567 4.7949,4.567 2.2836,0 3.4258,-1.522 3.4258,-4.567 v -23.062 c 0,-3.959 -4.567,-7.536 -13.7011,-10.733 -9.1342,-3.349 -20.2479,-5.025 -33.3399,-5.025 z m -1794.7051,1.599 c -2.1314,0 -3.1953,1.067 -3.1953,3.198 0,1.674 0.8372,2.664 2.5117,2.968 l 6.6211,0.684 c 7.0027,0.609 10.5039,3.654 10.5039,9.135 v 86.088 c 0,17.964 5.8619,32.654 17.584,44.072 11.7221,11.418 26.5657,17.127 44.5293,17.127 17.9639,0 32.6529,-5.481 44.0703,-16.442 11.5699,-11.113 17.3555,-26.033 17.3555,-44.757 v -86.088 c 0,-5.329 3.501,-8.374 10.5039,-9.135 l 6.6231,-0.684 c 1.6745,-0.304 2.5117,-1.37 2.5117,-3.197 0,-1.827 -1.0659,-2.74 -3.1973,-2.74 l -22.1504,0.685 -17.8105,-0.685 c -2.2836,0 -3.4258,0.913 -3.4258,2.74 0,1.827 0.9898,2.893 2.9687,3.197 l 3.8809,0.684 c 6.0896,1.066 9.1348,4.111 9.1348,9.135 v 86.316 c 0,13.854 -4.3381,24.815 -13.0157,32.883 -8.5251,8.069 -19.7912,12.104 -33.7968,12.104 -13.8533,0 -25.0413,-3.959 -33.5664,-11.875 -8.5254,-7.917 -12.7891,-18.954 -12.7891,-33.112 v -86.316 c 0,-5.024 3.0452,-8.069 9.1348,-9.135 l 3.8828,-0.684 c 1.9789,-0.152 2.9668,-1.294 2.9668,-3.425 0,-1.827 -1.1403,-2.741 -3.4239,-2.741 l -22.6074,0.914 z m 175.6621,0 c -2.1314,0 -3.1972,1.143 -3.1972,3.426 0,0.609 0.2287,1.217 0.6855,1.826 0.4568,0.609 0.9889,0.914 1.5977,0.914 l 4.7969,0.455 c 6.3939,0.457 10.7322,3.579 13.0156,9.364 l 56.1738,144.547 c 0.7612,1.826 2.5118,2.74 5.252,2.74 2.8926,0 4.6429,-0.914 5.2519,-2.74 l 56.4043,-144.547 c 1.9792,-5.481 6.3936,-8.602 13.2442,-9.364 l 4.3378,-0.455 c 1.6746,0 2.5118,-0.989 2.5118,-2.968 0,-2.131 -1.0662,-3.198 -3.1973,-3.198 l -20.7793,0.914 -19.8672,-0.914 c -2.2836,0 -3.4238,1.067 -3.4238,3.198 0,1.674 0.9878,2.664 2.9668,2.968 l 5.0254,0.455 c 2.8926,0.153 4.8719,1.219 5.9375,3.198 1.2177,1.827 1.3684,3.882 0.4551,6.166 l -44.9844,119.656 -43.8438,-119.656 c -0.7612,-2.132 -0.6085,-4.187 0.4571,-6.166 1.2177,-1.98 3.121,-3.046 5.7089,-3.198 l 5.252,-0.455 c 1.8268,-0.152 2.7402,-1.294 2.7402,-3.425 0,-1.827 -1.0658,-2.741 -3.1972,-2.741 l -25.3477,0.914 z m 176.0899,0 c -2.1314,0 -3.1973,1.067 -3.1973,3.198 0,1.979 0.8372,2.968 2.5117,2.968 l 6.6231,0.684 c 7.0027,0.609 10.5039,3.654 10.5039,9.135 v 129.703 c 0,2.74 -0.9898,4.948 -2.9688,6.623 -1.9792,1.522 -4.4906,2.436 -7.5351,2.74 l -6.6231,0.457 c -1.6745,0 -2.5117,1.066 -2.5117,3.197 0,1.98 1.0659,2.969 3.1973,2.969 l 25.8027,-0.914 h 85.6328 c 2.7402,0 5.0229,-0.837 6.8496,-2.512 1.979,-1.826 3.1212,-4.035 3.4258,-6.623 l 3.6543,-23.748 c 0.1522,-1.065 -0.1528,-1.979 -0.914,-2.74 -0.609,-0.913 -1.8276,-1.371 -3.6543,-1.371 -1.6746,0 -2.8912,1.219 -3.6524,3.654 -2.2836,7.46 -6.3185,13.169 -12.1035,17.127 -5.6325,3.806 -12.4059,5.709 -20.3223,5.709 h -37.6796 c -3.3492,0 -6.0896,-0.913 -8.2208,-2.74 -1.9792,-1.979 -2.9687,-4.567 -2.9687,-7.764 v -52.978 c 0,-2.132 0.9152,-3.197 2.7422,-3.197 h 42.7012 c 4.8713,0 7.9911,3.958 9.3613,11.875 l 0.6855,4.109 c 0.3044,1.827 1.3705,2.74 3.1973,2.74 1.979,-0.304 2.9688,-1.445 2.9688,-3.424 l -0.9141,-18.498 0.9141,-19.41 c -10e-5,-2.131 -0.9135,-3.195 -2.7403,-3.195 -1.8268,0 -2.9692,0.913 -3.4258,2.74 l -0.9121,2.967 c -0.7612,2.436 -1.3713,4.112 -1.8281,5.025 -0.3044,0.914 -1.0654,1.903 -2.2832,2.969 -1.218,1.066 -2.8923,1.598 -5.0234,1.598 h -42.4747 c -1.9792,0 -2.9687,-0.99 -2.9687,-2.969 v -47.953 c 0,-3.349 0.9895,-5.939 2.9687,-7.766 2.1312,-1.979 4.8716,-2.967 8.2208,-2.967 h 35.8515 c 8.0683,0 14.386,1.522 18.9531,4.567 4.567,3.044 7.9938,8.22 10.2774,15.527 0.7612,2.436 2.3591,3.654 4.7949,3.654 2.588,0 3.7302,-1.371 3.4258,-4.111 l -3.1973,-21.008 c -0.3044,-2.588 -1.3705,-4.72 -3.1972,-6.394 -1.8271,-1.827 -4.1858,-2.739 -7.0782,-2.739 h -81.0664 z m 153.1289,0 c -2.1312,0 -3.1973,1.067 -3.1973,3.198 0,1.674 0.8372,2.664 2.5117,2.968 l 6.6231,0.684 c 7.0027,0.609 10.5039,3.654 10.5039,9.135 v 129.703 c 0,5.48 -3.1218,8.602 -9.3633,9.363 l -3.8808,0.457 c -1.6746,0.305 -2.5118,1.445 -2.5118,3.424 0,1.827 1.0642,2.742 3.1954,2.742 l 22.6074,-0.914 25.8047,0.914 c 0.7612,0 1.4459,-0.305 2.0547,-0.914 0.7611,-0.609 1.1406,-1.37 1.1406,-2.283 0,-1.979 -0.9135,-2.969 -2.7403,-2.969 l -6.621,-0.457 c -2.8926,-0.304 -5.3277,-1.218 -7.3067,-2.74 -1.979,-1.675 -2.9687,-3.883 -2.9687,-6.623 v -129.703 c 0,-5.024 3.0434,-8.069 9.1328,-9.135 l 3.8828,-0.684 c 1.9789,-0.152 2.9687,-1.294 2.9687,-3.425 0,-1.827 -1.1424,-2.741 -3.4257,-2.741 l -22.6075,0.914 z m 571.4844,0 c -2.1314,0 -3.1973,1.067 -3.1973,3.198 0,1.979 0.8371,2.968 2.5117,2.968 l 6.6231,0.684 c 7.0027,0.609 10.5039,3.654 10.5039,9.135 v 129.703 c 0,2.74 -0.9898,4.948 -2.9688,6.623 -1.9792,1.522 -4.4906,2.436 -7.5351,2.74 l -6.6231,0.457 c -1.6746,0 -2.5117,1.066 -2.5117,3.197 0,1.98 1.0659,2.969 3.1973,2.969 l 25.8047,-0.914 h 85.6308 c 2.7402,0 5.0248,-0.837 6.8516,-2.512 1.9789,-1.826 3.1192,-4.035 3.4238,-6.623 l 3.6543,-23.748 c 0.1522,-1.065 -0.1529,-1.979 -0.9141,-2.74 -0.609,-0.913 -1.8255,-1.371 -3.6523,-1.371 -1.6746,0 -2.8931,1.219 -3.6543,3.654 -2.2836,7.46 -6.3169,13.169 -12.1016,17.127 -5.6327,3.806 -12.4078,5.709 -20.3242,5.709 h -37.6777 c -3.3492,0 -6.0896,-0.913 -8.2207,-2.74 -1.9792,-1.979 -2.9688,-4.567 -2.9688,-7.764 v -52.978 c 0,-2.132 0.9132,-3.197 2.7403,-3.197 h 42.7011 c 4.8713,0 7.9931,3.958 9.3633,11.875 l 0.6856,4.109 c 0.3043,1.827 1.3685,2.74 3.1953,2.74 1.9792,-0.304 2.9687,-1.445 2.9687,-3.424 l -0.9121,-18.498 0.9121,-19.41 c 0,-2.131 -0.9132,-3.195 -2.7402,-3.195 -1.8268,0 -2.9673,0.913 -3.4238,2.74 l -0.9141,2.967 c -0.7612,2.436 -1.3693,4.112 -1.8262,5.025 -0.3043,0.914 -1.0654,1.903 -2.2832,2.969 -1.218,1.066 -2.8942,1.598 -5.0254,1.598 h -42.4726 c -1.9792,0 -2.9688,-0.99 -2.9688,-2.969 v -47.953 c 0,-3.349 0.9896,-5.939 2.9688,-7.766 2.1311,-1.979 4.8715,-2.967 8.2207,-2.967 h 35.8516 c 8.0685,0 14.3861,1.522 18.9531,4.567 4.5669,3.044 7.9918,8.22 10.2754,15.527 0.7612,2.436 2.3591,3.654 4.7949,3.654 2.588,0 3.7301,-1.371 3.4258,-4.111 l -3.1973,-21.008 c -0.3044,-2.588 -1.3705,-4.72 -3.1973,-6.394 -1.827,-1.827 -4.1857,-2.739 -7.0781,-2.739 h -81.0644 z m 335.248,0 c -2.1314,0 -3.1972,1.067 -3.1972,3.198 0,1.674 0.839,2.664 2.5136,2.968 l 6.6211,0.684 c 7.0027,0.609 10.5039,3.654 10.5039,9.135 v 129.931 c 0,2.741 -0.9898,4.949 -2.9687,6.623 -1.9792,1.523 -4.4906,2.436 -7.5352,2.741 l -6.6211,0.457 c -1.6746,0 -2.5136,1.064 -2.5136,3.195 0,1.979 1.0658,2.969 3.1972,2.969 l 28.5449,-1.141 h 39.2774 c 23.292,0 42.3956,-7.915 57.3144,-23.748 15.0713,-15.985 22.6075,-35.624 22.6075,-58.916 0,-23.292 -7.2312,-41.94 -21.6934,-55.945 -14.4622,-14.158 -33.871,-21.237 -58.2285,-21.237 h -39.2774 z m 177.2129,0 c -2.1311,0 -3.1953,1.067 -3.1953,3.198 0,1.979 0.8371,2.968 2.5117,2.968 l 6.6211,0.684 c 7.0027,0.609 10.5039,3.654 10.5039,9.135 v 129.703 c 0,2.74 -0.9878,4.948 -2.9668,6.623 -1.9789,1.522 -4.4923,2.436 -7.5371,2.74 l -6.6211,0.457 c -1.6746,0 -2.5117,1.066 -2.5117,3.197 0,1.98 1.0642,2.969 3.1953,2.969 l 25.8047,-0.914 h 85.6328 c 2.7402,0 5.0228,-0.837 6.8496,-2.512 1.9792,-1.826 3.1214,-4.035 3.4258,-6.623 l 3.6543,-23.748 c 0.1522,-1.065 -0.1529,-1.979 -0.9141,-2.74 -0.6087,-0.913 -1.8272,-1.371 -3.6543,-1.371 -1.6745,0 -2.8914,1.219 -3.6523,3.654 -2.2836,7.46 -6.3186,13.169 -12.1035,17.127 -5.6328,3.806 -12.4081,5.709 -20.3242,5.709 h -37.6778 c -3.3491,0 -6.0893,-0.913 -8.2207,-2.74 -1.9789,-1.979 -2.9687,-4.567 -2.9687,-7.764 v -52.978 c 0,-2.132 0.9134,-3.197 2.7402,-3.197 h 42.7031 c 4.8716,0 7.9914,3.958 9.3614,11.875 l 0.6855,4.109 c 0.3044,1.827 1.3702,2.74 3.1973,2.74 1.9789,-0.304 2.9687,-1.445 2.9687,-3.424 l -0.914,-18.498 0.914,-19.41 c 0,-2.131 -0.9134,-3.195 -2.7402,-3.195 -1.8268,0 -2.969,0.913 -3.4258,2.74 l -0.9141,2.967 c -0.7612,2.436 -1.3696,4.112 -1.8261,5.025 -0.3047,0.914 -1.0655,1.903 -2.2832,2.969 -1.2178,1.066 -2.8921,1.598 -5.0235,1.598 h -42.4746 c -1.9789,0 -2.9687,-0.99 -2.9687,-2.969 v -47.953 c 0,-3.349 0.9898,-5.939 2.9687,-7.766 2.1314,-1.979 4.8716,-2.967 8.2207,-2.967 h 35.8516 c 8.0685,0 14.3862,1.522 18.9531,4.567 4.5672,3.044 7.9918,8.22 10.2754,15.527 0.7609,2.436 2.3611,3.654 4.7969,3.654 2.5879,0 3.7282,-1.371 3.4238,-4.111 l -3.1953,-21.008 c -0.3046,-2.588 -1.3705,-4.72 -3.1973,-6.394 -1.8267,-1.827 -4.1875,-2.739 -7.0801,-2.739 h -81.0644 z m -734.5918,0.229 c -2.2836,0 -3.4258,0.99 -3.4258,2.969 0,1.827 0.9135,2.891 2.7403,3.195 l 4.1113,0.457 c 6.2405,0.761 9.2859,3.806 9.1348,9.135 l -2.7403,129.703 c 0,5.328 -3.5029,8.373 -10.5058,9.135 l -6.6211,0.685 c -1.6746,0.305 -2.5117,1.371 -2.5117,3.197 0,1.827 1.0658,2.741 3.1972,2.741 l 22.1485,-0.686 18.7265,0.686 c 2.2836,0 3.4238,-0.914 3.4238,-2.741 0,-1.826 -0.9895,-2.892 -2.9687,-3.197 l -3.8809,-0.685 c -6.0893,-1.066 -9.1347,-4.111 -9.1347,-9.135 l 1.3711,-104.356 c 0,-1.522 0.4557,-2.285 1.3691,-2.285 0.4578,0 0.7629,0.229 0.9141,0.686 l 62.3398,120.57 c 0.6088,1.37 1.4459,2.055 2.5117,2.055 1.0656,0 1.9791,-0.685 2.7403,-2.055 l 62.1113,-124.223 c 0.1522,-0.456 0.4572,-0.685 0.9141,-0.685 0.9133,0 1.3691,0.761 1.3691,2.283 l 1.8281,108.01 c 0,5.48 -3.1981,8.602 -9.5918,9.363 l -3.8808,0.457 c -1.6746,0.305 -2.5118,1.445 -2.5118,3.424 0,1.827 1.0642,2.742 3.1954,2.742 l 22.6074,-0.914 25.8047,0.914 c 0.7612,0 1.4459,-0.305 2.0547,-0.914 0.7612,-0.609 1.1406,-1.37 1.1406,-2.283 0,-1.979 -0.9135,-2.969 -2.7403,-2.969 l -6.621,-0.457 c -2.8926,-0.304 -5.3277,-1.218 -7.3067,-2.74 -1.8268,-1.675 -2.7402,-3.883 -2.7402,-6.623 l -2.7403,-129.703 c 0,-5.633 2.9672,-8.678 8.9043,-9.135 l 4.1114,-0.457 c 1.8267,-0.304 2.7402,-1.368 2.7402,-3.195 0,-1.979 -1.2185,-2.969 -3.6543,-2.969 l -20.3223,0.685 c -5.3281,0.305 -8.6786,1.827 -10.0488,4.567 l -63.0254,127.877 -64.623,-127.877 c -1.3702,-2.893 -4.6424,-4.415 -9.8184,-4.567 z m 379.1426,0 c -2.2833,0 -3.4258,0.99 -3.4258,2.969 0,1.827 0.9135,2.891 2.7402,3.195 l 4.1114,0.457 c 6.0893,0.761 9.1328,3.806 9.1328,9.135 v 129.703 c 0,5.328 -3.5012,8.373 -10.5039,9.135 l -6.6211,0.685 c -1.6746,0.305 -2.5137,1.371 -2.5137,3.197 0,1.827 1.0661,2.741 3.1973,2.741 l 22.1504,-0.686 17.8125,0.686 c 2.2836,0 3.4238,-0.914 3.4238,-2.741 0,-1.826 -0.9895,-2.892 -2.9688,-3.197 l -3.8808,-0.685 c -6.0893,-1.066 -9.1348,-4.111 -9.1348,-9.135 v -109.152 c 0,-1.523 0.3051,-2.284 0.9141,-2.284 0.609,0 1.0647,0.153 1.3691,0.457 l 96.1367,123.082 c 2.7405,3.654 6.0127,5.481 9.8184,5.481 h 2.9688 c 1.6745,0 2.5136,-0.914 2.5136,-2.74 v -144.547 c 0,-5.024 3.0435,-8.069 9.1328,-9.135 l 3.8829,-0.684 c 1.9789,-0.304 2.9687,-1.37 2.9687,-3.197 0,-1.827 -1.1424,-2.74 -3.4258,-2.74 l -17.8125,0.685 -22.1484,-0.685 c -2.1314,0 -3.1973,0.913 -3.1973,2.74 0,1.827 0.8372,2.893 2.5117,3.197 l 6.6211,0.684 c 6.8505,0.761 10.2774,3.806 10.2774,9.135 v 110.75 c 0,0.913 -0.3051,1.371 -0.9141,1.371 -0.609,0 -1.1411,-0.229 -1.5976,-0.686 l -95.2247,-122.168 c -2.2835,-2.741 -5.6321,-4.186 -10.0468,-4.338 z m -1338.8906,8.678 c 10.3518,0 19.4099,2.282 27.1738,6.849 7.7642,4.567 13.8548,10.732 18.2695,18.496 8.8295,15.072 13.2442,32.655 13.2442,52.75 0,20.095 -5.1011,36.079 -15.3008,47.953 -10.0475,11.875 -24.1284,17.813 -42.2442,17.813 -10.1999,0 -19.2577,-2.361 -27.1738,-7.08 -7.9161,-4.872 -14.083,-11.266 -18.498,-19.182 -9.1341,-15.985 -13.7012,-34.1 -13.7012,-54.347 0,-19.486 5.0248,-34.862 15.0723,-46.127 10.1999,-11.418 24.5856,-17.125 43.1582,-17.125 z m 1564.1679,2.511 h 20.5528 c 10.0475,0 18.9529,2.13 26.7168,6.393 7.7639,4.263 13.9289,10.048 18.4961,17.355 9.1341,14.31 13.7011,31.055 13.7011,50.237 0,19.181 -5.2515,34.786 -15.7558,46.812 -10.5043,12.027 -24.5108,18.041 -42.0176,18.041 h -21.6934 c -3.3491,0 -6.0895,-0.913 -8.2207,-2.74 -1.9792,-1.979 -2.9687,-4.567 -2.9687,-7.764 v -117.601 c 0,-3.502 0.9895,-6.166 2.9687,-7.992 2.1312,-1.827 4.8716,-2.741 8.2207,-2.741 z m -806.207,13.928 27.1738,69.877 c 0.609,1.827 0.077,2.74 -1.5976,2.74 h -50.9239 c -1.6745,0 -2.2829,-0.761 -1.8261,-2.283 z m 113.4023,60.285 c -1.8267,0 -2.7402,0.837 -2.7402,2.512 v 10.734 c 0,1.675 0.9135,2.512 2.7402,2.512 h 45.9004 c 1.8268,0 2.7403,-0.837 2.7403,-2.512 v -10.734 c 0,-1.675 -0.9135,-2.512 -2.7403,-2.512 z m 462.1739,153.285 -32.0528,77.934 h 8.1465 l 7.8262,-19.832 h 32.0527 l 7.8242,19.832 h 8.1485 z m -859.1836,0.215 -17.0449,77.719 h 7.7187 l 11.2559,-51.885 21.9746,56.172 21.8691,-56.172 11.3633,51.885 h 7.6113 l -16.9375,-77.719 -23.9062,62.389 z m -300.9199,0.213 v 77.506 h 7.5039 v -53.707 l 40.9492,58.209 v -77.398 h -7.5039 v 53.599 z m -121.2774,3.432 c -5.1454,0 -10.0759,1.07 -14.5781,3 -4.5026,1.93 -8.4681,4.61 -11.8984,7.933 -3.4303,3.431 -6.1116,7.397 -8.0411,11.899 -1.9298,4.609 -2.8945,9.434 -2.8945,14.58 0,5.145 0.9647,10.076 2.8945,14.578 1.9295,4.61 4.6108,8.576 8.0411,12.006 3.4303,3.43 7.3958,6.111 11.8984,8.041 4.5022,1.929 9.4327,2.894 14.5781,2.894 5.1455,0 9.9706,-0.965 14.5801,-2.894 4.5025,-1.93 8.4681,-4.611 11.8984,-8.041 3.4303,-3.43 6.1096,-7.396 8.0391,-12.006 1.9298,-4.502 3.0019,-9.433 3.0019,-14.578 0,-5.146 -1.0721,-9.971 -3.0019,-14.58 -1.9295,-4.502 -4.6088,-8.468 -8.0391,-11.899 -3.4303,-3.323 -7.3959,-6.003 -11.8984,-7.933 -4.6095,-1.93 -9.4346,-3 -14.5801,-3 z m 290.8457,0 c -5.1454,0 -10.0775,1.07 -14.5801,3 -4.5021,1.93 -8.4681,4.61 -11.8984,7.933 -3.4307,3.431 -6.1112,7.397 -8.041,11.899 -1.9295,4.609 -2.8945,9.434 -2.8945,14.58 0,5.145 0.965,10.076 2.8945,14.578 1.9298,4.61 4.6103,8.576 8.041,12.006 3.4303,3.43 7.3963,6.111 11.8984,8.041 4.5026,1.929 9.4347,2.894 14.5801,2.894 5.1455,0 9.9686,-0.965 14.5781,-2.894 4.5026,-1.93 8.4682,-4.611 11.8985,-8.041 3.4303,-3.43 6.1115,-7.396 8.041,-12.006 1.9294,-4.502 3.002,-9.433 3.002,-14.578 0,-5.146 -1.0726,-9.971 -3.002,-14.58 -1.9295,-4.502 -4.6107,-8.468 -8.041,-11.899 -3.4303,-3.323 -7.3959,-6.003 -11.8985,-7.933 -4.6095,-1.93 -9.4326,-3 -14.5781,-3 z m 392.6387,0.107 c -6.432,0 -12.1132,1.714 -16.8301,5.145 -4.8238,3.43 -7.2891,8.469 -7.289,15.33 0,9.326 7.5038,15.757 22.2968,19.187 9.4337,2.251 15.8646,4.717 19.2949,7.504 2.3585,1.93 3.5391,4.395 3.5391,7.397 0,3.001 -0.6435,5.468 -1.9297,7.183 -3.216,4.503 -9.0052,6.752 -17.1523,6.752 -11.3628,0 -17.794,-3.858 -19.1875,-11.576 h -8.791 c 2.5727,12.328 11.8989,18.438 27.9785,18.438 7.1822,0 13.1859,-1.501 18.0097,-4.717 5.7888,-3.752 8.7891,-9.326 8.7891,-16.615 0,-6.003 -2.3574,-10.613 -7.0742,-13.829 -3.323,-2.358 -8.6836,-4.504 -16.0801,-6.433 -7.5039,-1.93 -12.327,-3.536 -14.5781,-4.715 -4.9312,-2.466 -7.3964,-5.896 -7.2891,-10.398 0,-2.359 0.4281,-4.396 1.5,-5.897 2.7874,-4.18 7.7181,-6.324 14.793,-6.324 9.9693,0 15.6515,3.216 17.1523,9.433 h 8.1465 c -2.6797,-10.505 -11.1486,-15.865 -25.2988,-15.865 z m 351.7148,0 c -4.7168,0 -8.5758,1.5 -11.3632,4.502 -2.8944,3.001 -4.2872,6.753 -4.2872,11.256 0,4.502 2.5733,9.755 7.7188,15.65 -2.1438,1.609 -4.2893,3.109 -6.2188,4.61 -6.9679,5.038 -10.3964,11.149 -10.3964,18.117 0,6.11 1.9283,11.147 6.0019,15.221 1.9295,1.929 4.1812,3.324 6.7539,4.396 2.5727,1.072 5.5732,1.5 8.8965,1.5 3.4303,0 7.1829,-1.287 11.5781,-4.074 2.2511,-1.286 5.0386,-3.752 8.6836,-7.397 l 7.9317,10.399 9.8632,-0.215 -12.5429,-16.4 c 5.3583,-6.43 8.5735,-10.504 9.6465,-12.006 l -6.1094,-4.074 -4.0723,5.146 -4.1816,5.145 -15.0078,-19.188 c 1.2861,-1.072 2.7882,-2.145 4.289,-3.432 5.5745,-4.609 8.3614,-9.326 8.3614,-14.042 0,-4.396 -1.5007,-8.04 -4.502,-10.934 -2.8944,-2.787 -6.5408,-4.18 -11.043,-4.18 z m 721.959,0 c -6.4316,0 -12.1136,1.714 -16.8301,5.145 -4.8241,3.43 -7.289,8.469 -7.289,15.33 0,9.326 7.5034,15.757 22.2969,19.187 9.4333,2.251 15.8665,4.717 19.2968,7.504 2.3585,1.93 3.5371,4.395 3.5371,7.397 0,3.001 -0.6431,5.468 -1.9296,7.183 -3.216,4.503 -9.0056,6.752 -17.1524,6.752 -11.3631,0 -17.794,-3.858 -19.1875,-11.576 h -8.791 c 2.5727,12.328 11.8985,18.438 27.9785,18.438 7.1822,0 13.186,-1.501 18.0098,-4.717 5.7887,-3.752 8.791,-9.326 8.791,-16.615 0,-6.003 -2.3593,-10.613 -7.0762,-13.829 -3.3229,-2.358 -8.6835,-4.504 -16.0801,-6.433 -7.5038,-1.93 -12.327,-3.536 -14.5781,-4.715 -4.9311,-2.466 -7.3964,-5.896 -7.289,-10.398 0,-2.359 0.4277,-4.396 1.5,-5.897 2.787,-4.18 7.718,-6.324 14.7929,-6.324 9.9697,0 15.6515,3.216 17.1524,9.433 h 8.1464 c -2.68,-10.505 -11.1486,-15.865 -25.2988,-15.865 z m -1907.2109,0.106 c -10.184,0 -18.7591,3.752 -25.834,11.148 -3.3233,3.43 -5.8963,7.505 -7.7188,12.008 -1.9294,4.502 -2.7871,9.325 -2.7871,14.363 0,10.291 3.4306,18.974 10.5059,26.264 7.0749,7.504 15.65,11.148 25.834,11.148 7.3965,0 14.1499,-2.143 20.4746,-6.431 6.1104,-4.288 10.5059,-9.863 13.293,-16.938 h -8.2539 c -2.5728,4.717 -6.1108,8.576 -10.6133,11.363 -4.5022,2.895 -9.5407,4.29 -14.9004,4.29 -8.0398,0 -14.9003,-2.896 -20.582,-8.899 -5.5741,-5.682 -8.254,-12.65 -8.254,-20.797 0,-8.147 2.6799,-15.113 8.254,-20.902 2.5727,-2.68 5.6814,-4.824 9.2187,-6.432 3.4307,-1.608 6.8607,-2.467 10.291,-2.467 3.323,0 6.2183,0.43 8.791,1.18 7.8255,2.359 13.7213,7.075 17.6875,14.258 h 8.2539 c -2.787,-6.861 -7.1826,-12.435 -13.2929,-16.723 -6.2174,-4.288 -12.9707,-6.433 -20.3672,-6.433 z m 938.1074,0.752 v 6.966 h 17.6875 v 65.928 h 7.5039 v -65.928 h 17.6875 v -6.966 h -17.6875 -7.5039 z m 728.6934,0 v 6.966 h 17.6875 v 65.928 h 7.5039 v -65.928 h 17.6875 v -6.966 h -17.6875 -7.5039 z m 344.9804,0 v 6.966 h 17.6875 v 65.928 h 7.5039 v -65.928 h 17.6875 v -6.966 h -17.6875 -7.5039 z m -2175.2519,0.213 v 72.896 h 43.3086 v -6.969 h -35.8047 v -25.941 h 34.7324 v -7.076 h -34.7324 v -25.942 h 35.8047 v -6.968 z m 880.4883,0 v 72.896 h 7.5039 v -72.896 z m 826.3789,0 v 72.896 h 7.5039 v -28.838 h 8.6836 l 21.4394,28.838 h 10.0762 l -22.5117,-28.838 c 5.6814,-0.321 10.5064,-2.357 14.4726,-6.109 4.5022,-4.181 6.8594,-9.541 6.8594,-15.973 0,-6.217 -2.3572,-11.577 -6.8594,-15.758 -4.3952,-4.073 -9.8629,-6.218 -16.2949,-6.218 z m 247.2949,0 v 72.896 h 7.5039 v -72.896 z m -606.3438,5.57 c 0.2642,-0.01 0.5289,-0.01 0.7969,0 2.1441,0.106 4.1818,0.858 6.0039,2.359 1.7152,1.501 2.6797,3.644 2.6797,6.217 0,2.68 -1.1786,5.145 -3.4297,7.396 -1.0719,1.072 -2.145,1.93 -3.3242,2.788 -1.1788,0.857 -2.2504,1.609 -3.3223,2.359 -0.8575,-0.858 -1.6072,-1.822 -2.4648,-2.68 -3.216,-3.323 -4.7168,-6.432 -4.7168,-9.648 0,-3.109 0.8572,-5.361 2.6797,-6.862 1.5007,-1.219 3.2482,-1.863 5.0976,-1.933 z m -1034.2949,0.756 c 8.2541,0 15.3309,3 21.2266,8.789 5.7887,5.896 8.789,12.972 8.789,21.119 0,8.361 -3.0003,15.436 -8.789,21.225 -5.8957,5.896 -12.9725,8.791 -21.2266,8.791 -8.2541,0 -15.3284,-2.895 -21.1172,-8.791 -5.8957,-5.789 -8.791,-12.864 -8.791,-21.225 0,-8.147 2.8953,-15.223 8.791,-21.119 5.7888,-5.789 12.8631,-8.789 21.1172,-8.789 z m 290.8457,0 c 8.2541,0 15.3289,3 21.2246,8.789 5.7888,5.896 8.791,12.972 8.791,21.119 0,8.361 -3.0022,15.436 -8.791,21.225 -5.8957,5.896 -12.9705,8.791 -21.2246,8.791 -8.2545,0 -15.3304,-2.895 -21.1191,-8.791 -5.8961,-5.789 -8.791,-12.864 -8.791,-21.225 0,-8.147 2.8949,-15.223 8.791,-21.119 5.7887,-5.789 12.8646,-8.789 21.1191,-8.789 z m 1110.002,0.857 h 16.9375 c 4.3948,0 7.9312,1.393 10.6113,4.18 2.5727,2.787 3.9668,6.218 3.9668,10.506 0,4.288 -1.3927,7.826 -4.1797,10.72 -2.7874,2.894 -6.2179,4.287 -10.3984,4.287 h -16.9375 z m -119.4668,5.36 13.1855,33.552 h -26.4785 z m -249.5039,23.369 15.9726,20.474 c -1.0718,1.072 -2.2505,2.251 -3.5371,3.43 -4.7165,4.502 -9.1134,6.646 -12.9726,6.646 -3.6446,0 -6.859,-1.392 -9.4317,-4.287 -2.5727,-2.787 -3.8594,-6.003 -3.8594,-9.648 0,-3.001 1.7144,-6.216 5.252,-9.754 1.6078,-1.608 4.3956,-3.86 8.5762,-6.861 z"
           style="font-style:normal;font-variant:normal;font-weight:normal;font-stretch:normal;font-size:medium;line-height:1.25;font-family:Lustria;-inkscape-font-specification:Lustria;letter-spacing:1.43271899px;word-spacing:0px;fill:#585858;fill-opacity:1;stroke:none;stroke-width:5.70880461" />
        <g
           id="flowRoot1831-8-54-5-4-9-8-32-7-4-5-9-0-5"
           style="font-style:normal;font-weight:normal;font-size:40px;line-height:1.25;font-family:sans-serif;letter-spacing:0px;word-spacing:0px;fill:none;fill-opacity:1;stroke:none"
           transform="matrix(1.5104542,0,0,1.5104542,64.198839,-1911.1511)"
           aria-label="t">
          <path
             inkscape:connector-curvature="0"
             id="path18612-1-6"
             style="font-style:normal;font-variant:normal;font-weight:normal;font-stretch:normal;font-family:Lustria;-inkscape-font-specification:Lustria;letter-spacing:1.43271899px;word-spacing:0px;fill:none"
             d="m -694.17227,-1104.9398 q 0,0.76 -1.64,1.56 -1.6,0.8 -3.24,0.8 -2.92,0 -4.2,-1.36 -1.24,-1.4 -1.24,-4.64 v -12 q 0,-0.44 -0.52,-0.44 h -2.44 q -0.2,0 -0.36,-0.12 -0.16,-0.16 -0.12,-0.36 l 0.12,-1.04 q 0.08,-0.48 0.48,-0.48 h 2.4 q 0.36,0 0.36,-0.44 l 0.36,-5.56 q 0.04,-0.76 0.76,-0.76 0.56,0 0.76,0.6 l 1.32,5.64 q 0.12,0.52 0.6,0.52 h 5.96 q 0.56,0 0.44,0.48 l -0.12,1.04 q -0.08,0.48 -0.48,0.48 h -6.08 q -0.32,0 -0.32,0.44 v 12.4 q 0,3.76 2.92,3.76 1.32,0 2.6,-0.48 l 1.28,-0.48 q 0.4,0 0.4,0.44 z" />
        </g>
        <g
           id="flowRoot1831-8-54-5-4-9-8-32-7-4-5-0-6-3-2"
           style="font-style:normal;font-weight:normal;font-size:40px;line-height:1.25;font-family:sans-serif;letter-spacing:0px;word-spacing:0px;fill:none;fill-opacity:1;stroke:none"
           transform="matrix(1.5104542,0,0,1.5104542,-743.05979,-1904.7389)"
           aria-label="t">
          <path
             inkscape:connector-curvature="0"
             id="path18606-7-9"
             style="font-style:normal;font-variant:normal;font-weight:normal;font-stretch:normal;font-family:Lustria;-inkscape-font-specification:Lustria;letter-spacing:1.43271899px;word-spacing:0px;fill:none"
             d="m -694.17227,-1104.9398 q 0,0.76 -1.64,1.56 -1.6,0.8 -3.24,0.8 -2.92,0 -4.2,-1.36 -1.24,-1.4 -1.24,-4.64 v -12 q 0,-0.44 -0.52,-0.44 h -2.44 q -0.2,0 -0.36,-0.12 -0.16,-0.16 -0.12,-0.36 l 0.12,-1.04 q 0.08,-0.48 0.48,-0.48 h 2.4 q 0.36,0 0.36,-0.44 l 0.36,-5.56 q 0.04,-0.76 0.76,-0.76 0.56,0 0.76,0.6 l 1.32,5.64 q 0.12,0.52 0.6,0.52 h 5.96 q 0.56,0 0.44,0.48 l -0.12,1.04 q -0.08,0.48 -0.48,0.48 h -6.08 q -0.32,0 -0.32,0.44 v 12.4 q 0,3.76 2.92,3.76 1.32,0 2.6,-0.48 l 1.28,-0.48 q 0.4,0 0.4,0.44 z" />
        </g>
        <g
           id="flowRoot1831-8-54-5-4-9-2-2-0-8-7-1"
           style="font-style:normal;font-weight:normal;font-size:40px;line-height:1.25;font-family:sans-serif;letter-spacing:0px;word-spacing:0px;fill:none;fill-opacity:1;stroke:none"
           transform="matrix(0,1.5104542,-1.5104542,0,-3394.0837,-2642.162)"
           aria-label="t">
          <path
             inkscape:connector-curvature="0"
             id="path18609-6-2"
             style="font-style:normal;font-variant:normal;font-weight:normal;font-stretch:normal;font-family:Lustria;-inkscape-font-specification:Lustria;letter-spacing:1.43271899px;word-spacing:0px;fill:none"
             d="m -694.17227,-1104.9398 q 0,0.76 -1.64,1.56 -1.6,0.8 -3.24,0.8 -2.92,0 -4.2,-1.36 -1.24,-1.4 -1.24,-4.64 v -12 q 0,-0.44 -0.52,-0.44 h -2.44 q -0.2,0 -0.36,-0.12 -0.16,-0.16 -0.12,-0.36 l 0.12,-1.04 q 0.08,-0.48 0.48,-0.48 h 2.4 q 0.36,0 0.36,-0.44 l 0.36,-5.56 q 0.04,-0.76 0.76,-0.76 0.56,0 0.76,0.6 l 1.32,5.64 q 0.12,0.52 0.6,0.52 h 5.96 q 0.56,0 0.44,0.48 l -0.12,1.04 q -0.08,0.48 -0.48,0.48 h -6.08 q -0.32,0 -0.32,0.44 v 12.4 q 0,3.76 2.92,3.76 1.32,0 2.6,-0.48 l 1.28,-0.48 q 0.4,0 0.4,0.44 z" />
        </g>
        <g
           id="flowRoot1831-8-54-5-4-9-2-2-4-2-3-7"
           style="font-style:normal;font-weight:normal;font-size:40px;line-height:1.25;font-family:sans-serif;letter-spacing:0px;word-spacing:0px;fill:none;fill-opacity:1;stroke:none"
           transform="matrix(0,1.5104542,-1.5104542,0,-3394.0837,-2421.366)"
           aria-label="t">
          <path
             inkscape:connector-curvature="0"
             id="path18603-9-0"
             style="font-style:normal;font-variant:normal;font-weight:normal;font-stretch:normal;font-family:Lustria;-inkscape-font-specification:Lustria;letter-spacing:1.43271899px;word-spacing:0px;fill:none"
             d="m -694.17227,-1104.9398 q 0,0.76 -1.64,1.56 -1.6,0.8 -3.24,0.8 -2.92,0 -4.2,-1.36 -1.24,-1.4 -1.24,-4.64 v -12 q 0,-0.44 -0.52,-0.44 h -2.44 q -0.2,0 -0.36,-0.12 -0.16,-0.16 -0.12,-0.36 l 0.12,-1.04 q 0.08,-0.48 0.48,-0.48 h 2.4 q 0.36,0 0.36,-0.44 l 0.36,-5.56 q 0.04,-0.76 0.76,-0.76 0.56,0 0.76,0.6 l 1.32,5.64 q 0.12,0.52 0.6,0.52 h 5.96 q 0.56,0 0.44,0.48 l -0.12,1.04 q -0.08,0.48 -0.48,0.48 h -6.08 q -0.32,0 -0.32,0.44 v 12.4 q 0,3.76 2.92,3.76 1.32,0 2.6,-0.48 l 1.28,-0.48 q 0.4,0 0.4,0.44 z" />
        </g>
      </g>
    </g>
  </g>
</svg>
